<?xml version="1.0" encoding="UTF-8" standalone="no"?>
<!-- Created with Inkscape (http://www.inkscape.org/) -->

<svg
   width="210mm"
   height="297mm"
   viewBox="0 0 210 297"
   version="1.1"
   id="svg5"
   inkscape:version="1.1.1 (3bf5ae0d25, 2021-09-20)"
   sodipodi:docname="dessin.svg"
   xmlns:inkscape="http://www.inkscape.org/namespaces/inkscape"
   xmlns:sodipodi="http://sodipodi.sourceforge.net/DTD/sodipodi-0.dtd"
   xmlns="http://www.w3.org/2000/svg"
   xmlns:svg="http://www.w3.org/2000/svg">
  <sodipodi:namedview
     id="namedview7"
     pagecolor="#ffffff"
     bordercolor="#666666"
     borderopacity="1.0"
     inkscape:pageshadow="2"
     inkscape:pageopacity="0.0"
     inkscape:pagecheckerboard="0"
     inkscape:document-units="mm"
     showgrid="false"
     inkscape:zoom="0.64052329"
     inkscape:cx="396.55076"
     inkscape:cy="560.47923"
     inkscape:window-width="1920"
     inkscape:window-height="1046"
     inkscape:window-x="-11"
     inkscape:window-y="-11"
     inkscape:window-maximized="1"
     inkscape:current-layer="layer1" />
  <defs
     id="defs2" />
  <g
     inkscape:label="Calque 1"
     inkscape:groupmode="layer"
     id="layer1">
    <path
       style="fill:#000000;stroke-width:0.264583"
       d="m -28.522421,228.39781 -0.595313,-0.43 v -0.36872 -0.36872 l 0.450522,-0.25213 0.450522,-0.25213 -0.354745,-0.42744 -0.354746,-0.42744 0.427982,-0.47292 0.427982,-0.47291 -0.41866,-0.41866 -0.418661,-0.41866 0.168285,-0.53022 0.168283,-0.53021 0.734216,-0.30413 0.734214,-0.30412 2.288069,0.0772 2.288069,0.0772 0.07777,1.5875 0.07777,1.5875 h 0.661459 0.661458 l 0.08258,-1.14944 0.08258,-1.14944 -0.479454,-0.3635 -0.479454,-0.36349 0.573672,-0.008 0.573675,-0.008 0.418512,-0.1606 0.418516,-0.1606 v 1.7481 1.7481 h 0.264583 0.264583 v 0.23374 0.23374 l -0.726929,0.13896 -0.72693,0.13896 -0.139951,-0.22644 -0.139949,-0.22645 -0.38989,0.24657 -0.389892,0.24656 -0.562917,0.004 -0.562914,0.004 -0.359164,-0.43276 -0.359167,-0.43277 -0.136252,-1.33518 -0.136253,-1.33517 -0.71578,-0.19039 -0.715782,-0.19039 0.161483,0.80741 0.161483,0.80741 -0.488461,0.35717 -0.488457,0.35717 h -0.875472 -0.875472 v 0.39688 0.39687 h 1.075727 1.075727 l 0.511773,0.27389 0.511773,0.2739 v 0.61114 0.61114 l -0.51843,0.46918 -0.51843,0.46917 -1.135216,0.11911 -1.135216,0.11911 -0.595312,-0.42999 z m 2.796526,-0.86301 0.08455,-0.59531 h -1.061119 -1.061122 l -0.170683,0.27617 -0.170685,0.27617 0.330972,0.3988 0.33097,0.3988 0.816287,-0.0797 0.816285,-0.0797 z m -0.589208,-3.37687 0.166875,-0.6649 -0.313473,-0.37771 -0.313473,-0.37771 -0.377528,0.14487 -0.377532,0.14487 v 0.72135 0.72134 l 0.17639,0.17639 0.176387,0.17639 h 0.347737 0.347739 z m 104.419764,4.23988 -0.595312,-0.43 v -0.36872 -0.36872 l 0.450522,-0.25213 0.450521,-0.25213 -0.354745,-0.42744 -0.354745,-0.42744 0.427982,-0.47292 0.427982,-0.47291 -0.418661,-0.41866 -0.418661,-0.41866 0.168286,-0.53022 0.168283,-0.53021 0.734216,-0.30413 0.734213,-0.30412 2.288069,0.0772 2.288069,0.0772 0.07777,1.5875 0.07777,1.5875 h 0.661458 0.661458 l 0.08258,-1.14944 0.08258,-1.14944 -0.479454,-0.3635 -0.479454,-0.36349 0.573673,-0.008 0.573674,-0.008 0.418513,-0.1606 0.418515,-0.1606 v 1.7481 1.7481 h 0.264584 0.264583 v 0.23374 0.23374 l -0.72693,0.13896 -0.726929,0.13896 -0.139951,-0.22644 -0.139949,-0.22645 -0.38989,0.24657 -0.389893,0.24656 -0.562917,0.004 -0.562914,0.004 -0.359164,-0.43276 -0.359166,-0.43277 -0.136253,-1.33518 -0.136252,-1.33517 -0.71578,-0.19039 -0.715783,-0.19039 0.161483,0.80741 0.161483,0.80741 -0.48846,0.35717 -0.488458,0.35717 h -0.875472 -0.875472 v 0.39688 0.39687 h 1.075727 1.075727 l 0.511773,0.27389 0.511773,0.2739 v 0.61114 0.61114 l -0.51843,0.46918 -0.518429,0.46917 -1.135216,0.11911 -1.135216,0.11911 -0.595313,-0.42999 z m 2.796527,-0.86301 0.08455,-0.59531 h -1.06112 -1.061122 l -0.170683,0.27617 -0.170685,0.27617 0.330973,0.3988 0.33097,0.3988 0.816287,-0.0797 0.816284,-0.0797 z m -0.589209,-3.37687 0.166876,-0.6649 -0.313473,-0.37771 -0.313473,-0.37771 -0.377529,0.14487 -0.377531,0.14487 v 0.72135 0.72134 l 0.176389,0.17639 0.176388,0.17639 h 0.347736 0.347739 z m 85.316751,4.1683 -0.57467,-0.46533 0.17678,-0.46071 0.17679,-0.4607 h 0.40958 0.40957 l -0.47889,-0.52917 -0.47889,-0.52917 0.45512,-0.50289 0.45512,-0.50291 -0.28182,-0.17417 -0.28182,-0.17417 v -0.63084 -0.63084 l 0.58804,-0.41188 0.58804,-0.41188 h 1.52863 1.52863 v 0.29544 0.29544 l -0.47774,-0.12492 -0.47773,-0.12493 0.11124,0.75795 0.11125,0.75795 -0.32737,0.39445 -0.32737,0.39445 h -1.02593 -1.02594 v 0.39688 0.39687 h 1.07573 1.07573 l 0.51177,0.2739 0.51177,0.27389 v 0.77764 0.77765 l -0.78061,0.40367 -0.78061,0.40367 h -0.90987 -0.90987 z m 2.88767,-0.44911 0.31976,-0.38529 -0.17069,-0.27617 -0.17068,-0.27617 h -1.04272 -1.04272 v 0.48507 0.48507 l 0.17639,0.17638 0.17639,0.17639 h 0.71726 0.71725 z m -0.56538,-3.79917 0.0865,-0.60717 -0.31999,-0.38558 -0.32,-0.38557 -0.36177,0.30024 -0.36177,0.30024 v 0.58497 0.58496 l 0.18553,0.18554 0.18554,0.18553 0.40977,-0.078 0.40978,-0.078 z m 77.5026,4.42784 -0.46302,-0.26968 v -0.50287 -0.50287 l 0.43085,-0.24112 0.43085,-0.24112 -0.29856,-0.18452 -0.29856,-0.18452 v -0.5004 -0.50041 l 0.42585,-0.23831 0.42582,-0.23831 -0.42582,-0.1634 -0.42585,-0.16341 v -0.66367 -0.66366 l 0.63532,-0.41628 0.63532,-0.41628 1.67979,0.0965 1.67978,0.0965 -0.59277,0.21154 -0.59277,0.21154 0.14472,0.57669 0.14476,0.5767 -0.47802,0.43076 -0.478,0.43076 -0.92604,0.0868 -0.92604,0.0868 v 0.26458 0.26459 l 1.22782,0.0795 1.2278,0.0795 0.44969,0.49689 0.44968,0.49689 -0.17489,0.55103 -0.17489,0.55103 -0.76186,0.39397 -0.76187,0.39397 -0.87302,-0.008 -0.87305,-0.008 -0.46302,-0.26968 z m 2.70235,-0.62867 0.31978,-0.38529 -0.17069,-0.27617 -0.17068,-0.27617 h -1.04272 -1.04273 v 0.48507 0.48507 l 0.1764,0.17638 0.17637,0.17639 h 0.71726 0.71726 z m -0.57145,-4.01488 0.0804,-0.82395 -0.39177,-0.15034 -0.39179,-0.15034 -0.31348,0.37771 -0.31345,0.37771 0.17129,0.68248 0.17129,0.68247 0.45355,-0.0859 0.45357,-0.0859 z m -297.538191,2.52689 0.463021,-0.26969 v -2.50039 -2.5004 h -0.629187 -0.629187 l -0.415269,0.59532 -0.415269,0.59531 -0.01389,-0.8599 -0.01386,-0.85989 h 2.778125 2.778125 l -0.01791,0.85989 -0.01791,0.8599 -0.287107,-0.59531 -0.28711,-0.59532 h -0.753316 -0.753319 v 2.5004 2.50039 l 0.463021,0.26969 0.46302,0.26968 h -1.5875 -1.5875 l 0.463021,-0.26968 z m 4.497917,0 0.46302,-0.26969 v -1.34674 -1.34675 l -0.46302,-0.35148 -0.463021,-0.35149 0.573672,-0.008 0.573675,-0.008 0.418512,-0.16059 0.418516,-0.1606 v 0.46619 0.46619 l 0.483854,-0.43789 0.483854,-0.43788 h 0.442187 0.442188 v 0.67461 0.6746 l -0.456189,-0.25529 -0.456187,-0.2553 -0.469855,0.25146 -0.469852,0.25146 v 1.16816 1.16817 l 0.463021,0.26969 0.46302,0.26968 h -1.455208 -1.455208 l 0.463021,-0.26968 z m 4.101041,0.11055 0.330729,-0.13346 v -1.51253 -1.51254 l -0.3175,-0.3175 -0.3175,-0.3175 h 0.560443 0.560446 l 0.418513,-0.1606 0.418515,-0.16059 v 1.99063 1.99063 l 0.330729,0.13346 0.330729,0.13345 h -1.322916 -1.322917 z m 2.764896,-0.14228 -0.3175,-0.3175 v -0.46124 -0.46125 l 0.588039,-0.41188 0.588037,-0.41188 h 0.73488 0.734877 l -0.004,-0.33072 -0.004,-0.33073 -0.233447,-0.36867 -0.23345,-0.36867 -0.490104,0.14021 -0.490103,0.14021 -0.463021,0.19062 -0.463021,0.19062 v -0.41319 -0.4132 l 0.976882,-0.18326 0.976881,-0.18327 0.676764,0.37852 0.676765,0.37852 0.07853,1.48493 0.07852,1.48493 0.562703,0.14715 0.562702,0.14714 0.218668,-0.13514 0.218668,-0.13514 v -1.27491 -1.2749 l -0.432094,-0.35861 -0.432091,-0.3586 0.895112,-0.18495 0.895114,-0.18495 0.08365,0.23293 0.08365,0.23293 0.643959,-0.29341 0.643959,-0.29341 0.661458,0.30138 0.661458,0.30138 v 1.54026 1.54025 l 0.3175,0.3175 0.3175,0.3175 h -1.143645 -1.143649 l 0.312317,-0.37631 0.312317,-0.37632 -0.08148,-1.27733 -0.08149,-1.27733 -0.727604,-0.0837 -0.727604,-0.0837 v 1.41987 1.41986 l 0.321821,0.32182 0.321823,0.32183 -1.975469,-0.0433 -1.975467,-0.0433 -0.341942,-0.26731 -0.341942,-0.26731 -0.306287,0.30629 -0.306287,0.30628 h -0.555625 -0.555625 z m 2.27815,-1.19978 -0.08211,-0.42324 -0.275283,-0.0916 -0.275281,-0.0916 -0.508481,0.37181 -0.508482,0.37181 0.348525,0.41994 0.348525,0.41995 0.517348,-0.27687 0.517345,-0.27688 z m 17.446537,1.34206 0.33073,-0.13346 v -2.83545 -2.83545 l -0.3175,-0.3175 -0.3175,-0.3175 h 0.560443 0.560445 l 0.418513,-0.1606 0.418515,-0.1606 v 3.15039 3.15039 l 0.3175,0.3175 0.3175,0.3175 -1.309687,-0.0209 -1.309688,-0.0209 0.330729,-0.13345 z m 2.86317,-0.24055 -0.415774,-0.41577 0.004,-0.17954 0.004,-0.17954 0.194384,-0.29112 0.194387,-0.29112 0.577919,-0.30419 0.577919,-0.3042 h 0.54656 0.54656 v -0.53746 -0.53748 l -0.351247,-0.13478 -0.351248,-0.13479 -0.707086,0.26883 -0.707085,0.26884 v -0.36202 -0.36202 l 0.418515,-0.1606 0.418512,-0.1606 h 0.657215 0.657212 l 0.511773,0.27389 0.511773,0.2739 v 1.43275 1.43275 l 0.459282,0.25703 0.459279,0.25702 -0.727299,0.18255 -0.7273,0.18253 -0.336167,-0.27899 -0.336169,-0.27899 -0.388001,0.24539 -0.388,0.2454 -0.444122,0.004 -0.444122,0.004 -0.415774,-0.41577 z m 2.230059,-1.06774 v -0.63315 h -0.149685 -0.149685 l -0.511773,0.27389 -0.511773,0.27389 v 0.36552 0.36552 l 0.330729,0.11536 0.330729,0.11537 0.330729,-0.12163 0.330729,-0.12162 z m 2.328334,1.16601 0.3175,-0.3175 v -1.34937 -1.34938 l -0.3175,-0.3175 -0.3175,-0.3175 h 0.428151 0.428154 l 0.418513,-0.1606 0.418515,-0.16059 v 0.46619 0.46619 l 0.5094817,-0.46108 0.5094791,-0.46107 0.4827084,0.092 0.4827059,0.092 0.084548,0.59261 0.084548,0.59261 -0.2168393,-0.004 -0.2168393,-0.004 -0.3826192,-0.24207 -0.3826193,-0.24207 -0.4772765,0.25543 -0.4772765,0.25543 v 1.16817 1.16817 l 0.4630207,0.26968 0.4630208,0.26968 -1.3096875,0.008 -1.309687,0.008 0.3175,-0.3175 z m 6.2044789,0.0317 0.4630208,-0.26968 v -2.48724 -2.48725 l -0.4630208,-0.26969 -0.4630209,-0.26968 1.8520834,-0.004 1.8520833,-0.004 0.6614583,0.33291 0.66145802,0.33292 0.08031,0.95576 0.08031,0.95576 -0.73759202,0.58018 -0.7375941,0.58029 -0.7317793,-0.14636 -0.7317792,-0.14634 v 1.03857 1.03857 l 0.4630208,0.26969 0.4630208,0.26968 h -1.5875 -1.5875 z m 3.0559374,-2.94214 0.3175,-0.3175 v -0.68791 -0.68792 l -0.3175,-0.3175 -0.3175,-0.3175 h -0.47625 -0.4762499 v 1.32292 1.32292 h 0.4762499 0.47625 z m 2.23572872,2.94214 0.463021,-0.26968 v -1.34674 -1.34675 l -0.463021,-0.35148 -0.46302,-0.35149 0.573672,-0.008 0.573675,-0.008 0.41851198,-0.16059 0.418516,-0.1606 v 0.46619 0.46619 l 0.483854,-0.43789 0.483854,-0.43788 h 0.442187 0.442188 v 0.67461 0.6746 l -0.456189,-0.25529 -0.456187,-0.2553 -0.469855,0.25146 -0.469852,0.25146 v 1.16816 1.16817 l 0.46302,0.26969 0.463021,0.26968 H 1.044766 -0.41044198 l 0.46302,-0.26968 z m 4.11427098,-0.0317 0.3175,-0.3175 v -1.34937 -1.34938 l -0.3175,-0.3175 -0.3175,-0.3175 h 0.428152 0.428154 l 0.418512,-0.1606 0.418516,-0.16059 v 1.86724 1.86724 l 0.46302,0.26969 0.463021,0.26968 -1.309687,0.008 -1.309688,0.008 0.3175,-0.3175 z m 2.764896,0.14228 -0.330729,-0.13346 v -0.50711 -0.50712 h 0.151191 0.151191 l 0.411239,0.41124 0.411239,0.41124 0.694341,-0.0805 0.694341,-0.0805 v -0.23575 -0.23575 l -0.396875,-0.22743 -0.396875,-0.22743 -0.727605,-0.25788 -0.727604,-0.25788 v -0.79099 -0.79098 l 0.540369,-0.2892 0.540367,-0.2892 0.980988,0.0815 0.980985,0.0814 0.08455,0.59532 0.08455,0.59531 H 9.82273 9.568053 L 9.415756,223.36761 9.263462,222.97074 H 8.609314 7.955166 l -0.130447,0.21107 -0.130448,0.21107 0.180978,0.28243 0.18098,0.28244 0.661459,0.20034 0.661458,0.20033 0.330729,0.2646 0.330729,0.2646 v 0.63561 0.63561 l -0.678682,0.25803 -0.678683,0.25804 -0.71038,-0.0209 -0.71038,-0.0209 -0.330729,-0.13346 z m 3.96875,-0.11055 0.463021,-0.26969 v -1.27737 -1.27737 l -0.432094,-0.35861 -0.432091,-0.3586 0.892162,-0.18247 0.892164,-0.18247 0.142224,0.23013 0.142227,0.23013 0.38989,-0.24657 0.389893,-0.24656 0.444122,-0.004 0.444121,-0.004 0.415774,0.41577 0.415775,0.41577 v 1.3834 1.38339 l 0.3175,0.3175 0.3175,0.3175 -1.309688,-0.008 -1.309687,-0.008 0.46302,-0.26968 0.463021,-0.26969 v -1.02373 -1.02355 l -0.160599,-0.41851 -0.1606,-0.41852 H 13.055 12.421849 v 1.4023 1.40229 l 0.3175,0.3175 0.3175,0.3175 -1.309687,-0.008 -1.309688,-0.008 0.463021,-0.26969 z m 5.473044,-0.0905 0.312317,-0.37632 -0.08148,-1.27596 -0.08148,-1.27596 -0.79375,-0.15425 -0.79375,-0.15424 0.727604,-0.35261 0.727604,-0.35262 0.661459,0.30139 0.661458,0.30138 v 1.54025 1.54026 l 0.3175,0.3175 0.3175,0.3175 h -1.143646 -1.143648 z m 33.949872,0.0905 0.463021,-0.26969 v -2.48724 -2.48725 l -0.463021,-0.26969 -0.46302,-0.26968 1.991648,-0.008 1.991651,-0.008 0.588036,0.41188 0.58804,0.41188 v 0.76374 0.76374 l -0.562013,0.39365 -0.562012,0.39365 0.580912,0.93994 0.580908,0.93993 0.703138,0.55309 0.703139,0.55308 -1.052767,-0.0857 -1.052764,-0.0857 -0.79375,-1.24917 -0.79375,-1.24916 -0.330729,-0.1316 -0.330729,-0.13158 v 1.16917 1.16917 l 0.463021,0.26969 0.463021,0.26968 h -1.5875 -1.5875 z m 2.995862,-3.09171 0.283882,-0.19439 0.144372,-0.39688 0.144373,-0.39687 -0.221293,-0.59531 -0.221289,-0.59532 h -0.669986 -0.669983 v 1.19063 1.19062 l 0.463021,-0.004 0.463021,-0.004 0.283882,-0.19438 z m 3.408259,2.72805 -0.649433,-0.64943 v -0.52874 -0.52875 l 0.293759,-0.64473 0.293759,-0.64473 0.644731,-0.29376 0.644734,-0.29376 h 0.457846 0.457845 l 0.588037,0.41188 0.588039,0.41188 v 0.51416 0.51416 h -1.322917 -1.322916 v 0.52307 0.52307 l 0.625744,0.41 0.625745,0.41001 0.697172,-0.26507 0.697172,-0.26506 v 0.21556 0.21557 l -0.673907,0.30705 -0.67391,0.30705 h -0.661035 -0.661035 z m 2.210615,-2.45942 -0.08917,-0.46302 h -0.654211 -0.654212 l -0.08917,0.46302 -0.08917,0.46302 h 0.832552 0.832551 z m 2.213155,2.49649 -0.575287,-0.61237 v -0.68891 -0.68891 l 0.164354,-0.4283 0.164354,-0.4283 0.77927,-0.40298 0.779269,-0.40297 1.10627,0.082 1.106274,0.082 0.254791,-0.57903 0.254791,-0.57903 0.47344,-0.1238 0.473437,-0.12381 v 0.63669 0.63669 h 0.661459 0.661458 v 0.26458 0.26458 h -0.674661 -0.674664 l 0.07935,1.51051 0.07935,1.5105 0.661458,0.15532 0.661459,0.15533 -0.484661,0.18625 -0.484659,0.18626 h -0.48863 -0.488627 l -0.415774,-0.41577 -0.415774,-0.41577 v -1.43631 -1.43631 h -0.396875 -0.396875 v 0.25803 0.25804 l -0.707086,-0.26884 -0.707086,-0.26883 -0.317201,0.12172 -0.317201,0.12172 -0.166772,0.66447 -0.166769,0.66446 0.268893,0.70725 0.268891,0.70724 1.054457,-0.10056 1.054457,-0.10056 v 0.16296 0.16296 l -0.673907,0.30705 -0.673909,0.30705 H 62.329478 61.72659 Z m 6.885963,0.29486 -0.3175,-0.3175 v -0.46124 -0.46125 l 0.58804,-0.41188 0.588036,-0.41188 h 0.73488 0.734878 l -0.004,-0.33072 -0.004,-0.33073 -0.233447,-0.36867 -0.233449,-0.36867 -0.490104,0.14021 -0.490104,0.14021 -0.46302,0.19062 -0.463021,0.19062 v -0.41319 -0.4132 l 0.976881,-0.18326 0.976881,-0.18327 0.676765,0.37852 0.676764,0.37852 0.07853,1.48493 0.07853,1.48493 0.562702,0.14715 0.562703,0.14714 0.218667,-0.13514 0.218668,-0.13514 v -1.27491 -1.2749 l -0.432094,-0.35861 -0.432091,-0.3586 0.895112,-0.18495 0.895115,-0.18495 0.08365,0.23293 0.08364,0.23293 0.643959,-0.29341 0.643959,-0.29341 0.661458,0.30138 0.661459,0.30138 v 1.54026 1.54025 l 0.3175,0.3175 0.3175,0.3175 h -1.143646 -1.143648 l 0.312317,-0.37631 0.312316,-0.37632 -0.08148,-1.27733 -0.08149,-1.27733 -0.727604,-0.0837 -0.727605,-0.0837 v 1.41987 1.41986 l 0.321821,0.32182 0.321823,0.32183 -1.975469,-0.0433 -1.975466,-0.0433 -0.341942,-0.26731 -0.341943,-0.26731 -0.306287,0.30629 -0.306287,0.30628 h -0.555625 -0.555625 z m 2.27815,-1.19978 -0.08211,-0.42324 -0.275283,-0.0916 -0.27528,-0.0916 -0.508482,0.37181 -0.508482,0.37181 0.348526,0.41994 0.348525,0.41995 0.517347,-0.27687 0.517345,-0.27688 z m 17.446538,1.34206 0.330729,-0.13346 v -2.83545 -2.83545 l -0.3175,-0.3175 -0.3175,-0.3175 h 0.560443 0.560441 l 0.41852,-0.1606 0.41851,-0.1606 v 3.15039 3.15039 l 0.3175,0.3175 0.3175,0.3175 -1.30968,-0.0209 -1.309692,-0.0209 0.330729,-0.13345 z m 2.863173,-0.24055 -0.41578,-0.41577 0.004,-0.17954 0.004,-0.17954 0.19438,-0.29112 0.19439,-0.29112 0.57792,-0.30419 0.57792,-0.3042 h 0.54656 0.54656 v -0.53746 -0.53748 l -0.35125,-0.13478 -0.35125,-0.13479 -0.70708,0.26883 -0.70709,0.26884 v -0.36202 -0.36202 l 0.41852,-0.1606 0.41851,-0.1606 h 0.65721 0.65722 l 0.51177,0.27389 0.51177,0.2739 v 1.43275 1.43275 l 0.45928,0.25703 0.45928,0.25702 -0.7273,0.18255 -0.7273,0.18253 -0.33616,-0.27899 -0.33617,-0.27899 -0.388,0.24539 -0.388,0.2454 -0.44413,0.004 -0.44412,0.004 -0.41577,-0.41577 z m 2.23006,-1.06774 v -0.63315 h -0.14969 -0.14968 l -0.51178,0.27389 -0.51177,0.27389 v 0.36552 0.36552 l 0.33073,0.11536 0.33073,0.11537 0.33073,-0.12163 0.33073,-0.12162 z m 2.32833,1.16601 0.3175,-0.3175 v -1.34937 -1.34938 l -0.3175,-0.3175 -0.3175,-0.3175 h 0.42815 0.42815 l 0.41852,-0.1606 0.41851,-0.16059 v 0.46619 0.46619 l 0.50948,-0.46108 0.50948,-0.46107 0.48271,0.092 0.48271,0.092 0.0845,0.59261 0.0845,0.59261 -0.21684,-0.004 -0.21684,-0.004 -0.38262,-0.24207 -0.38261,-0.24207 -0.47728,0.25543 -0.47728,0.25543 v 1.16817 1.16817 l 0.46302,0.26968 0.46302,0.26968 -1.30968,0.008 -1.30969,0.008 0.3175,-0.3175 z m 6.204484,0.0317 0.46302,-0.26968 v -2.48725 -2.48725 l -0.46302,-0.26968 -0.46302,-0.26968 1.85208,-0.004 1.85208,-0.004 0.66146,0.33291 0.66146,0.33291 0.0803,0.95576 0.0803,0.95576 -0.73759,0.58019 -0.7376,0.58019 -0.73177,-0.14635 -0.73176,-0.14625 v 1.03857 1.03857 l 0.46302,0.26969 0.46302,0.26968 h -1.5875 -1.5875 z m 3.05594,-2.94214 0.3175,-0.3175 v -0.68791 -0.68792 l -0.3175,-0.3175 -0.3175,-0.3175 h -0.47625 -0.47625 v 1.32292 1.32292 h 0.47625 0.47625 z m 2.23572,2.94214 0.46303,-0.26968 v -1.34674 -1.34675 l -0.46303,-0.35148 -0.46302,-0.35149 0.57368,-0.008 0.57367,-0.008 0.41851,-0.16059 0.41852,-0.1606 v 0.46619 0.46619 l 0.48385,-0.43789 0.48386,-0.43788 h 0.44218 0.44219 v 0.67461 0.6746 l -0.45619,-0.25529 -0.45618,-0.2553 -0.46986,0.25146 -0.46985,0.25146 v 1.16816 1.16817 l 0.46302,0.26969 0.46302,0.26968 h -1.45521 -1.45521 l 0.46302,-0.26968 z m 4.11428,-0.0317 0.3175,-0.3175 v -1.34937 -1.34938 l -0.3175,-0.3175 -0.3175,-0.3175 h 0.42815 0.42815 l 0.41851,-0.1606 0.41852,-0.16059 v 1.86724 1.86724 l 0.46302,0.26969 0.46302,0.26968 -1.30969,0.008 -1.30968,0.008 0.3175,-0.3175 z m 2.76489,0.14228 -0.33073,-0.13346 v -0.50711 -0.50712 h 0.15119 0.15119 l 0.41124,0.41124 0.41124,0.41124 0.69434,-0.0805 0.69434,-0.0805 v -0.23575 -0.23575 l -0.39687,-0.22743 -0.39688,-0.22743 -0.7276,-0.25788 -0.7276,-0.25788 v -0.79099 -0.79098 l 0.54036,-0.2892 0.54037,-0.2892 0.98099,0.0815 0.98098,0.0814 0.0846,0.59532 0.0845,0.59531 h -0.25468 -0.25468 l -0.15229,-0.39688 -0.1523,-0.39687 h -0.65414 -0.65415 l -0.13045,0.21107 -0.13045,0.21107 0.18098,0.28243 0.18098,0.28244 0.66146,0.20034 0.66146,0.20033 0.33073,0.2646 0.33073,0.2646 v 0.63561 0.63561 l -0.67869,0.25803 -0.67868,0.25804 -0.71038,-0.0209 -0.71038,-0.0209 -0.33073,-0.13346 z m 3.96875,-0.11055 0.46302,-0.26969 v -1.27737 -1.27737 l -0.43209,-0.35861 -0.43209,-0.3586 0.89216,-0.18247 0.89216,-0.18247 0.14223,0.23013 0.14222,0.23013 0.38989,-0.24657 0.3899,-0.24656 0.44412,-0.004 0.44412,-0.004 0.41577,0.41577 0.41578,0.41577 v 1.3834 1.38339 l 0.3175,0.3175 0.3175,0.3175 -1.30969,-0.008 -1.30969,-0.008 0.46302,-0.26968 0.46303,-0.26969 v -1.02373 -1.02355 l -0.1606,-0.41851 -0.1606,-0.41852 h -0.63315 -0.63315 v 1.4023 1.40229 l 0.3175,0.3175 0.3175,0.3175 -1.30969,-0.008 -1.30969,-0.008 0.46302,-0.26969 z m 5.47305,-0.0905 0.31231,-0.37632 -0.0815,-1.27596 -0.0815,-1.27596 -0.79375,-0.15425 -0.79375,-0.15424 0.7276,-0.35261 0.72761,-0.35262 0.66145,0.30139 0.66146,0.30138 v 1.54025 1.54026 l 0.3175,0.3175 0.3175,0.3175 h -1.14364 -1.14365 z m 19.66237,0.0905 0.46302,-0.26969 v -2.48724 -2.48725 l -0.46302,-0.26969 -0.46302,-0.26968 1.80333,-0.008 1.80333,-0.008 0.57792,0.30419 0.57792,0.3042 0.19438,0.29111 0.19439,0.29112 0.004,0.60734 0.004,0.60734 -0.67715,0.67716 -0.67716,0.67716 -0.77805,-0.1142 -0.77805,-0.11419 v 0.99936 0.99937 l 0.46302,0.26968 0.46302,0.26968 h -1.5875 -1.5875 l 0.46302,-0.26968 z m 3.05594,-2.94214 0.3175,-0.3175 v -0.68792 -0.68792 l -0.3175,-0.3175 -0.3175,-0.3175 h -0.47625 -0.47625 v 1.32292 1.32292 h 0.47625 0.47625 z m 2.55443,2.57848 -0.64943,-0.64943 v -0.52874 -0.52875 l 0.29375,-0.64473 0.29376,-0.64473 0.64473,-0.29376 0.64474,-0.29376 h 0.45784 0.45785 l 0.58804,0.41188 0.58804,0.41188 v 0.51416 0.51416 h -1.32292 -1.32292 v 0.52307 0.52307 l 0.62575,0.41 0.62574,0.41001 0.69717,-0.26507 0.69718,-0.26506 v 0.21556 0.21557 l -0.67391,0.30705 -0.67391,0.30705 h -0.66104 -0.66103 z m 2.21061,-2.45942 -0.0892,-0.46302 h -0.65421 -0.65421 l -0.0892,0.46302 -0.0892,0.46302 h 0.83255 0.83255 z m 1.83631,2.93363 0.33073,-0.13346 v -1.54983 -1.54984 l -0.33073,-0.20844 -0.33073,-0.20844 0.79375,-0.14899 0.79375,-0.14898 0.18742,0.27345 0.18742,0.27346 0.32852,-0.32852 0.32852,-0.32852 h 0.58964 0.58964 l 0.41577,0.41578 0.41578,0.41577 v 1.38339 1.38339 l 0.3175,0.3175 0.3175,0.3175 -1.30969,-0.008 -1.30969,-0.008 0.46302,-0.26968 0.46303,-0.26968 v -1.02355 -1.02355 l -0.1606,-0.41851 -0.1606,-0.41852 h -0.63315 -0.63315 v 1.56546 1.56545 l 0.33072,0.13345 0.33073,0.13345 h -1.32291 -1.32292 l 0.33073,-0.13345 z m 5.9399,-0.14228 -0.3175,-0.3175 v -1.51253 -1.51253 l -0.33073,-0.15435 -0.33073,-0.15434 0.33073,-0.15434 0.33073,-0.15434 v -0.47626 -0.47626 l 0.52916,-0.13838 0.52917,-0.13838 v 0.63669 0.63669 h 0.80936 0.80937 l -0.16352,0.26458 -0.16352,0.26459 h -0.64585 -0.64584 v 1.27 1.27 l 0.3175,0.3175 0.3175,0.3175 0.54239,0.0186 0.5424,0.0186 -0.52917,0.22739 -0.52916,0.22739 -0.5424,0.0186 -0.54239,0.0186 -0.3175,-0.3175 z m 2.7441,-0.0983 -0.41577,-0.41577 0.004,-0.17954 0.004,-0.17954 0.19439,-0.29112 0.19439,-0.29112 0.57791,-0.30419 0.57792,-0.30419 h 0.54656 0.54656 v -0.53747 -0.53747 l -0.35124,-0.13479 -0.35125,-0.13479 -0.70709,0.26884 -0.70708,0.26883 v -0.36202 -0.36202 l 0.41851,-0.1606 0.41852,-0.1606 h 0.65721 0.65721 l 0.51177,0.2739 0.51178,0.27389 v 1.43275 1.43275 l 0.45928,0.25703 0.45928,0.25703 -0.7273,0.18254 -0.7273,0.18254 -0.33617,-0.27899 -0.33617,-0.279 -0.388,0.2454 -0.388,0.24539 -0.44412,0.004 -0.44412,0.004 -0.41578,-0.41577 z m 2.23006,-1.06774 v -0.63315 h -0.14968 -0.14969 l -0.51177,0.27389 -0.51177,0.2739 v 0.36551 0.36552 l 0.33072,0.11537 0.33073,0.11536 0.33073,-0.12162 0.33073,-0.12163 z m 7.5286,0.83409 -0.64943,-0.64943 v -0.81781 -0.8178 l 0.64943,-0.64943 0.64943,-0.64944 h 0.69088 0.69088 l 0.57792,0.3042 0.57792,0.30419 0.19438,0.29112 0.19439,0.29112 v 0.92604 0.92604 l -0.19439,0.29112 -0.19438,0.29112 -0.57792,0.3042 -0.57792,0.30419 h -0.69088 -0.69088 z m 2.37288,-0.73963 0.25484,-0.72761 -0.25588,-0.7276 -0.25589,-0.72761 h -0.65509 -0.65508 l -0.0856,0.89651 -0.0856,0.89651 0.16114,0.64202 0.16113,0.64203 0.58064,-0.0833 0.58063,-0.0833 z m 2.07092,1.10328 0.46302,-0.26968 v -1.27738 -1.27737 l -0.4321,-0.3586 -0.43209,-0.35861 0.89512,-0.18495 0.89511,-0.18494 0.0837,0.23292 0.0836,0.23293 0.64396,-0.29341 0.64396,-0.2934 0.66146,0.30138 0.66146,0.30138 v 1.54025 1.54026 l 0.3175,0.3175 0.3175,0.3175 h -1.14365 -1.14365 l 0.31232,-0.37632 0.31231,-0.37632 -0.0815,-1.27733 -0.0815,-1.27732 -0.7276,-0.0837 -0.72761,-0.0837 v 1.41986 1.41987 l 0.3175,0.3175 0.3175,0.3175 -1.30969,-0.008 -1.30968,-0.008 0.46302,-0.26969 z m 5.37671,-0.13 -0.41577,-0.41577 0.004,-0.17954 0.004,-0.17954 0.19439,-0.29112 0.19438,-0.29112 0.57792,-0.30419 0.57792,-0.30419 h 0.54656 0.54656 v -0.53747 -0.53747 l -0.35125,-0.13479 -0.35124,-0.13479 -0.70709,0.26884 -0.70709,0.26883 v -0.36202 -0.36202 l 0.41852,-0.1606 0.41851,-0.1606 h 0.65722 0.65721 l 0.51177,0.2739 0.51177,0.27389 v 1.43659 1.43659 l 0.53465,0.28613 0.53461,0.28613 0.25914,-0.16015 0.2591,-0.16014 v -2.66719 -2.6672 l -0.46302,-0.35148 -0.46302,-0.35149 0.57367,-0.008 0.57367,-0.008 0.41852,-0.16059 0.41852,-0.1606 v 3.15039 3.15039 l 0.31599,0.31598 0.31599,0.31599 -2.04512,-0.0389 -2.04514,-0.0389 -0.139,-0.22491 -0.139,-0.22491 -0.49572,0.2653 -0.49572,0.2653 h -0.39536 -0.39537 l -0.41578,-0.41578 z m 2.23006,-1.06774 v -0.63315 h -0.14969 -0.14968 l -0.51178,0.27389 -0.51177,0.2739 v 0.36551 0.36552 l 0.33073,0.11537 0.33073,0.11536 0.33073,-0.12162 0.33073,-0.12163 z m 7.20989,1.19774 0.46303,-0.26968 v -2.48725 -2.48725 l -0.46303,-0.26968 -0.46302,-0.26969 1.93027,-0.008 1.93024,-0.008 0.67477,0.67478 0.67479,0.67477 -0.16893,0.71429 -0.16891,0.71429 -0.57791,0.4879 -0.57793,0.48789 -0.866,-0.14053 -0.86601,-0.14053 v 0.8944 0.8944 l 0.58803,0.41188 0.58804,0.41188 -1.58022,-0.008 -1.58023,-0.008 0.46302,-0.26968 z m 3.15701,-3.2861 0.30136,-0.66146 -0.30136,-0.66145 -0.30138,-0.66146 h -0.66715 -0.66712 v 1.14653 1.14652 l 0.1764,0.17639 0.17637,0.17639 h 0.49075 0.49075 z m 2.00237,3.39665 0.33073,-0.13345 v -1.51254 -1.51254 l -0.3175,-0.3175 -0.3175,-0.3175 h 0.42815 0.42815 l 0.41851,-0.1606 0.41852,-0.16059 v 0.44018 0.44019 l 0.58804,-0.41188 0.58803,-0.41188 h 0.4703 0.4703 v 0.66146 0.66146 h -0.21167 -0.21167 l -0.27326,-0.27326 -0.27326,-0.27326 -0.44111,0.16928 -0.44111,0.16927 v 1.40485 1.40485 l 0.33072,0.13346 0.33073,0.13345 h -1.32291 -1.32292 z m 4.10104,-0.11055 0.46302,-0.26968 v -1.42002 -1.42001 l -0.33073,-0.11812 -0.33073,-0.11812 0.13229,-0.13129 0.1323,-0.1313 0.7276,-0.17455 0.7276,-0.17455 v 1.80421 1.8042 l 0.3175,0.3175 0.3175,0.3175 -1.30968,-0.008 -1.30969,-0.008 0.46302,-0.26968 z m 2.91042,0.11055 -0.33073,-0.13345 v -0.54813 -0.54812 l 0.48384,0.43788 0.48387,0.43788 h 0.72618 0.72615 l -0.0855,-0.44399 -0.0855,-0.44399 -0.74451,-0.19911 -0.74454,-0.19911 -0.37994,-0.31534 -0.37997,-0.31534 v -0.49067 -0.49067 l 0.64272,-0.42113 0.64276,-0.42113 0.8786,0.0843 0.87863,0.0843 0.0931,0.66073 0.0931,0.66073 -0.51083,-0.4623 -0.51084,-0.46229 h -0.57446 -0.57449 v 0.3845 0.38449 l 1.19063,0.52667 1.19062,0.52667 v 0.52904 0.52904 l -0.58803,0.41188 -0.58804,0.41188 -0.80103,-0.0209 -0.80102,-0.0209 -0.33073,-0.13346 z m 3.83646,0 0.33072,-0.13345 v -1.54984 -1.54984 l -0.33072,-0.20844 -0.33073,-0.20844 0.79375,-0.14898 0.79375,-0.14899 0.18743,0.27346 0.1874,0.27345 0.32853,-0.32852 0.32851,-0.32852 h 0.58965 0.58963 l 0.41579,0.41578 0.41576,0.41577 v 1.54656 1.54655 l 0.33073,0.13345 0.33073,0.13345 h -1.32291 -1.32292 l 0.33073,-0.13345 0.33073,-0.13345 v -1.56545 -1.56545 h -0.66146 -0.66146 v 1.56545 1.56545 l 0.33073,0.13345 0.33073,0.13345 h -1.32292 -1.32291 z m 5.42395,-0.11055 0.46302,-0.26968 -0.004,-0.84675 -0.004,-0.84675 -0.15955,-0.59531 -0.15954,-0.59531 h -0.66299 -0.663 l 0.32938,-0.39688 0.32938,-0.39688 h 0.61016 0.61015 l 0.4158,0.41578 0.41576,0.41577 v 1.3834 1.38339 l 0.3175,0.3175 0.3175,0.3175 -1.30968,-0.008 -1.30969,-0.008 0.46302,-0.26969 z m 13.22917,0 0.46302,-0.26968 v -2.48725 -2.48725 l -0.46302,-0.26968 -0.46302,-0.26969 h 1.5875 1.5875 l -0.46302,0.26969 -0.46302,0.26968 v 1.04519 1.04519 h 1.32291 1.32292 v -1.04519 -1.04519 l -0.46302,-0.26968 -0.46302,-0.26969 h 1.45521 1.45521 l -0.46302,0.26969 -0.46303,0.26968 v 2.48725 2.48725 l 0.46303,0.26968 0.46302,0.26969 -1.45521,-2.7e-4 -1.45521,-2.6e-4 0.46302,-0.35149 0.46302,-0.35148 v -1.09531 -1.09531 h -1.32292 -1.32291 v 1.17748 1.17748 l 0.46302,0.26968 0.46302,0.26969 h -1.5875 -1.5875 l 0.46302,-0.26969 z m 7.70604,0.0252 -0.56218,-0.22703 -0.28739,-0.82443 -0.28739,-0.82443 0.23756,-0.62486 0.23757,-0.62485 0.60474,-0.42358 0.60473,-0.42358 h 0.54372 0.54372 l 0.58803,0.41188 0.58804,0.41188 v 0.51416 0.51417 h -1.34133 -1.34131 l 0.0845,0.58869 0.0846,0.58869 0.63537,0.31557 0.63537,0.31558 0.6214,-0.23626 0.6214,-0.23626 v 0.26458 0.26459 l -0.67868,0.25803 -0.67869,0.25804 -0.44579,-0.0168 -0.4458,-0.0168 -0.56219,-0.22704 z m 1.70302,-2.84524 -0.0886,-0.45998 -0.49443,-0.0952 -0.4944,-0.0952 -0.22611,0.35676 -0.22609,0.35677 -0.004,0.19843 -0.004,0.19844 h 0.81315 0.81314 l -0.0886,-0.45998 z m 2.33365,2.16094 0.89114,-0.94488 v -0.19404 -0.19405 l -0.89558,-0.97774 -0.89557,-0.97775 h 1.13538 1.13541 l -0.12591,0.48151 -0.12592,0.4815 0.3968,0.32933 0.39682,0.32933 0.29527,-0.55172 0.29528,-0.55171 -0.16015,-0.25912 -0.16013,-0.25912 h 0.82209 0.82211 l -0.93808,0.96592 -0.93811,0.96591 0.31682,0.42315 0.31681,0.42315 0.65804,0.7276 0.65805,0.72761 -1.30628,-0.004 -1.30627,-0.004 0.35512,-0.22507 0.3551,-0.22508 -0.35261,-0.56462 -0.35261,-0.56463 h -0.13729 -0.13729 l -0.33719,0.53993 -0.33721,0.53993 0.15687,0.25382 0.15687,0.25382 h -0.77446 -0.77446 l 0.89114,-0.94488 z m 4.38364,0.62738 -0.3175,-0.3175 v -0.46125 -0.46125 l 0.58804,-0.41188 0.58804,-0.41187 h 0.73488 0.73488 l -0.004,-0.33073 -0.004,-0.33073 -0.23347,-0.36867 -0.23344,-0.36867 -0.49009,0.14021 -0.49011,0.14022 -0.46302,0.19062 -0.46302,0.19061 v -0.41319 -0.41319 l 0.97689,-0.18327 0.97687,-0.18326 0.67678,0.37852 0.67675,0.37851 0.0794,1.51255 0.0794,1.51255 0.44981,0.0179 0.44982,0.0179 -0.61698,0.29678 -0.61701,0.29679 -0.53866,-0.33642 -0.5387,-0.33641 -0.2863,0.28631 -0.28631,0.2863 h -0.55562 -0.55563 l -0.3175,-0.3175 z m 2.27815,-1.19978 -0.0821,-0.42325 -0.27528,-0.0916 -0.2753,-0.0916 -0.50847,0.37181 -0.50848,0.37181 0.34854,0.41995 0.34851,0.41995 0.51734,-0.27688 0.51736,-0.27687 z m 7.28273,0.83638 -0.68088,-0.68089 0.15486,-0.95443 0.15489,-0.95443 0.35793,-0.35792 0.35793,-0.35793 0.96874,-0.15721 0.96875,-0.1572 0.63407,0.41547 0.6341,0.41547 0.18003,0.71733 0.18004,0.71733 -0.29773,0.71875 -0.29771,0.71875 -0.65601,0.2989 -0.65603,0.29891 h -0.66104 -0.66103 z m 2.39644,-0.26678 0.1606,-0.41852 v -0.85148 -0.85149 l -0.3175,-0.3175 -0.3175,-0.3175 h -0.44794 -0.44794 l -0.1606,0.41852 -0.1606,0.41851 v 0.85149 0.85148 l 0.3175,0.3175 0.3175,0.3175 h 0.44794 0.44794 z m 2.07883,0.6619 0.46302,-0.26968 v -1.44206 -1.44207 h -0.26458 -0.26459 v -0.23373 -0.23374 l 0.72761,-0.14135 0.7276,-0.14135 0.0789,0.21499 0.0789,0.21499 0.78769,-0.29733 0.78772,-0.29732 0.45628,0.28637 0.4563,0.28637 0.0761,1.56012 0.0761,1.56011 0.43744,0.33073 0.43746,0.33073 h -1.2736 -1.2736 l 0.31232,-0.37632 0.31231,-0.37632 -0.0815,-1.27733 -0.0815,-1.27732 h -0.66146 -0.66145 l -0.0815,1.27732 -0.0815,1.27733 0.31231,0.37632 0.31232,0.37632 -1.28918,-0.008 -1.28916,-0.008 0.46302,-0.26969 z m 5.54302,-0.0317 -0.3175,-0.3175 v -0.46125 -0.46124 l 0.58804,-0.41188 0.58803,-0.41188 h 0.73488 0.73488 l -0.004,-0.33073 -0.004,-0.33073 -0.23347,-0.36867 -0.23344,-0.36867 -0.49009,0.14022 -0.49012,0.14021 -0.46302,0.19062 -0.46302,0.19062 v -0.4132 -0.41319 l 0.9769,-0.18327 0.97687,-0.18326 0.67677,0.37852 0.67675,0.37851 0.0785,1.48493 0.0785,1.48493 0.50147,0.13114 0.50146,0.13114 0.14761,-0.14762 0.14761,-0.14761 v -2.71198 -2.71198 l -0.33073,-0.11812 -0.33073,-0.11811 0.1323,-0.1313 0.13229,-0.13129 0.7276,-0.17456 0.72761,-0.17455 v 3.12713 3.12712 l 0.31903,0.31903 0.31901,0.31903 -1.84036,-0.0408 -1.84039,-0.0408 -0.34195,-0.26704 -0.34195,-0.26703 -0.30628,0.30628 -0.30644,0.30628 h -0.55562 -0.55563 l -0.3175,-0.3175 z m 2.27814,-1.19978 -0.0821,-0.42324 -0.27527,-0.0916 -0.2753,-0.0916 -0.50847,0.37181 -0.50848,0.37181 0.34853,0.41994 0.34851,0.41995 0.51734,-0.27687 0.51737,-0.27688 z m 6.99551,1.23151 0.46302,-0.26969 v -2.48725 -2.48724 l -0.46302,-0.26969 -0.46302,-0.26968 1.80332,-0.008 1.80334,-0.008 0.57791,0.30419 0.57793,0.30419 0.19439,0.29112 0.19438,0.29112 0.004,0.60734 0.004,0.60734 -0.67715,0.67716 -0.67717,0.67715 -0.77803,-0.11419 -0.77806,-0.11419 v 0.99936 0.99936 l 0.46302,0.26969 0.46302,0.26968 h -1.5875 -1.5875 l 0.46302,-0.26968 z m 3.05593,-2.94215 0.3175,-0.3175 v -0.68791 -0.68792 l -0.3175,-0.3175 -0.3175,-0.3175 h -0.47625 -0.47625 v 1.32292 1.32291 h 0.47625 0.47625 z m 2.23573,2.94215 0.46302,-0.26969 v -1.22279 -1.22279 l -0.43788,-0.48385 -0.43789,-0.48386 h 0.54854 0.54853 l 0.41852,-0.1606 0.41852,-0.1606 v 0.44408 0.44409 l 0.41576,-0.41578 0.4158,-0.41577 h 0.51025 0.51027 v 0.66146 0.66145 h -0.21167 -0.21166 l -0.27326,-0.27325 -0.27327,-0.27326 -0.44111,0.16927 -0.44111,0.16928 v 1.28146 1.28146 l 0.46302,0.26969 0.46302,0.26968 h -1.45521 -1.45521 z m 4.11427,-0.0317 0.3175,-0.3175 v -1.34938 -1.34937 l -0.3175,-0.3175 -0.3175,-0.3175 h 0.42815 0.42815 l 0.41852,-0.1606 0.41852,-0.1606 v 1.86724 1.86724 l 0.46302,0.26969 0.46302,0.26968 -1.30969,0.008 -1.30969,0.008 0.3175,-0.3175 z m 2.7649,0.14227 -0.33073,-0.13346 v -0.54812 -0.54813 l 0.48384,0.43789 0.48387,0.43788 h 0.72618 0.72615 l -0.0873,-0.45364 -0.0874,-0.45364 -0.88466,-0.25372 -0.88468,-0.25372 -0.29462,-0.64664 -0.29464,-0.64664 0.63148,-0.51133 0.63146,-0.51134 0.94652,0.0794 0.94652,0.0794 0.087,0.66146 0.087,0.66146 -0.36637,-0.48815 -0.3664,-0.48815 -0.64661,0.0913 -0.64664,0.0913 v 0.37483 0.37483 l 0.79375,0.25601 0.79375,0.25601 0.33073,0.26146 0.33072,0.26145 v 0.58659 0.58659 l -0.67392,0.30706 -0.67389,0.30705 -0.71517,-0.0209 -0.71514,-0.0209 -0.33073,-0.13345 z m 3.96875,-0.11055 0.46302,-0.26969 v -1.27737 -1.27737 l -0.43209,-0.35861 -0.43209,-0.3586 0.89215,-0.18247 0.89217,-0.18246 0.14222,0.23012 0.14224,0.23013 0.38989,-0.24657 0.38989,-0.24656 0.44413,-0.004 0.4441,-0.004 0.41579,0.41577 0.41577,0.41577 v 1.3834 1.38339 l 0.3175,0.3175 0.3175,0.3175 -1.30969,-0.008 -1.30969,-0.008 0.46302,-0.26969 0.46302,-0.26968 v -1.02355 -1.02354 l -0.1606,-0.41852 -0.1606,-0.41851 h -0.63315 -0.63315 v 1.40229 1.40229 l 0.3175,0.3175 0.3175,0.3175 -1.30968,-0.008 -1.30969,-0.008 0.46302,-0.26968 z m 5.47304,-0.0905 0.31231,-0.37632 -0.0815,-1.27596 -0.0815,-1.27596 -0.79375,-0.15425 -0.79375,-0.15424 0.7276,-0.35261 0.7276,-0.35261 0.66146,0.30138 0.66146,0.30138 v 1.54025 1.54026 l 0.3175,0.3175 0.3175,0.3175 h -1.14363 -1.14367 z m -331.968875,-4.83685 -0.330729,-0.12262 v -0.4915 -0.49151 l 0.289973,-0.17921 0.289973,-0.17921 0.428183,0.42818 0.42818,0.42818 -0.387424,0.36515 -0.387426,0.36515 z m 45.166584,-0.22409 -0.340397,-0.41016 0.440291,-0.44029 0.440293,-0.44029 0.440293,0.44029 0.440291,0.44029 -0.340397,0.41016 -0.340398,0.41015 H 5.013516 4.813726 Z m 106.627091,0 -0.3404,-0.41016 0.44029,-0.44029 0.44029,-0.44029 0.4403,0.44029 0.44029,0.44029 -0.3404,0.41016 -0.3404,0.41015 h -0.19979 -0.19979 z m 88.62235,-0.0157 -0.32734,-0.39443 0.4149,-0.4149 0.41491,-0.41491 0.28996,0.17922 0.28998,0.17921 v 0.48525 0.48524 l -0.37753,0.14487 -0.37753,0.14487 z m 79.65263,0.0157 -0.34039,-0.41016 0.4403,-0.44029 0.44029,-0.44029 0.44029,0.44029 0.4403,0.44029 -0.34039,0.41016 -0.34041,0.41015 h -0.19979 -0.19979 z m -116.40563,-9.6093 -14.68438,-4.93818 -0.33073,-0.20972 -0.33072,-0.20971 V 181.51983 156.7689 l 3.09232,-4.40377 3.09232,-4.40377 0.54678,-0.79375 0.54679,-0.79375 2.22846,-3.10886 2.22846,-3.10885 h 18.95653 18.95652 l 2.22848,3.10885 2.22846,3.10886 0.54678,0.79375 0.54679,0.79375 3.09232,4.40377 3.09232,4.40377 v 24.75093 24.75093 l -0.33073,0.20947 -0.33073,0.20947 -14.81667,4.95979 -14.81666,4.95978 -0.52917,-0.0214 -0.52917,-0.0213 -14.68437,-4.93818 z m 14.55208,-9.41027 v -12.25474 l -2.0351,-0.0394 -2.0351,-0.0394 -0.13007,-0.13007 -0.13008,-0.13007 0.29127,-0.29127 0.29126,-0.29126 1.87391,0.10588 1.87391,0.10589 v -10.75519 -10.75518 l -8.42261,-2.81336 -8.42262,-2.81336 h -0.30863 -0.30864 v 1.21267 1.21268 l -0.33073,-0.109 -0.33073,-0.10899 -0.08,-1.36826 -0.08,-1.36827 -0.0523,-0.001 -0.0523,-0.001 -4.74692,-1.58648 -4.74692,-1.5864 h -0.21402 -0.21401 v 22.59365 22.59357 l 0.39526,0.15168 0.39527,0.15168 -0.30596,0.67149 -0.30595,0.6715 0.10913,0.0969 0.10912,0.0969 13.75833,4.61611 13.75834,4.61612 0.19843,-0.0996 0.19844,-0.0996 z m -27.25208,0.37285 v -0.27146 l 0.98252,-1.31604 0.98252,-1.31605 h 0.34039 0.3404 v 0.155 0.155 l -0.99219,1.42937 -0.99218,1.42937 -0.33073,0.003 -0.33073,0.003 z m 2.91042,-3.98459 v -0.28729 l 0.99218,-1.42937 0.99219,-1.42936 0.19844,-0.003 0.19844,-0.003 -0.007,0.46302 -0.007,0.46302 -0.92205,1.25677 -0.92205,1.25677 h -0.26202 -0.26201 v -0.28736 z m 2.91041,-4.08602 v -0.38796 l 0.95086,-1.32353 0.95086,-1.32353 h 0.23977 0.23976 v 0.32526 0.32527 l -0.85915,1.25903 -0.85915,1.25902 -0.33148,0.1272 -0.33147,0.12719 z m 3.10645,-6.01884 0.12877,-2.44014 0.36676,-0.38743 0.36677,-0.38742 v 1.90878 1.90878 h 1.04272 1.04272 l 0.1744,0.28218 0.1744,0.28219 -0.16813,0.16814 -0.16814,0.16813 -0.87412,-0.0589 -0.87412,-0.0589 -0.6704,0.52734 -0.6704,0.52734 z m 5.93784,1.44938 -1.67133,-0.0792 0.10452,-0.31764 0.10451,-0.31765 1.2847,-0.0826 1.2847,-0.0826 0.61285,0.15382 0.61285,0.15381 v 0.23124 0.23123 l -0.33073,0.0945 -0.33073,0.0944 z m 5.04029,-0.0522 -1.65813,-0.13311 -0.0617,-0.26458 -0.0617,-0.26459 1.69291,-0.0798 1.69292,-0.0798 0.27823,0.27823 0.27823,0.27823 -0.25136,0.19926 -0.25135,0.19925 z m -10.79988,-5.65284 -0.13828,-0.36035 0.0804,-1.53698 0.0804,-1.53697 0.33073,-0.10909 0.33073,-0.1091 v 2.00642 2.00643 h -0.27288 -0.27289 z m 0,-5.02708 -0.13828,-0.36036 0.0804,-1.53697 0.0804,-1.53697 0.33073,-0.1091 0.33073,-0.1091 v 2.00643 2.00642 h -0.27288 -0.27289 z m 0,-5.02709 -0.13828,-0.36035 0.0804,-1.53697 0.0804,-1.53697 0.33073,-0.1091 0.33073,-0.1091 v 2.00643 2.00642 h -0.27288 -0.27289 z m 0,-5.02708 -0.13828,-0.36035 0.0804,-1.53698 0.0804,-1.53697 0.33073,-0.1091 0.33073,-0.10909 v 2.00642 2.00642 h -0.27288 -0.27289 z m 47.77052,36.16404 0.12295,-0.11031 -0.32329,-0.45033 -0.3233,-0.45033 -0.30564,-0.59644 -0.30565,-0.59643 0.17364,-0.17364 0.17365,-0.17365 0.53081,0.48035 0.53078,0.48036 V 181.07528 158.4124 h -0.23778 -0.23778 l -4.72316,1.58678 -4.72316,1.58678 -0.0523,8e-4 -0.0523,7.9e-4 -0.08,1.36827 -0.08,1.36826 -0.33073,0.10899 -0.33073,0.109 v -1.21268 -1.21267 h -0.30863 -0.30864 l -8.42555,2.81434 -8.42555,2.81434 0.0691,10.73357 0.0691,10.73357 1.36221,-0.0724 1.3622,-0.0724 0.18565,0.30038 0.18564,0.30037 -0.14955,0.14955 -0.14954,0.14954 -1.3983,0.0313 -1.39831,0.0311 -0.069,12.03854 -0.069,12.03855 0.11296,0.29462 0.11295,0.29462 13.84663,-4.62877 13.84665,-4.62876 z m -3.03004,-4.7274 -1.01068,-1.46746 0.26869,-0.26868 0.26868,-0.26868 0.98094,1.36539 0.98095,1.3654 0.14226,0.37075 0.14227,0.37075 h -0.38121 -0.38121 z m -2.76778,-3.93802 -1.07198,-1.45108 v -0.27589 -0.27588 l 0.33073,5.3e-4 0.33073,5.3e-4 0.82902,1.25626 0.82899,1.25626 0.16751,0.31244 0.16748,0.31245 -0.25525,0.15775 -0.25524,0.15776 -1.07199,-1.4511 z m -3.05305,-4.26406 -1.01068,-1.46746 0.27469,-0.27468 0.27466,-0.27468 1.08892,1.52063 1.08889,1.52063 v 0.22151 0.22151 h -0.3529 -0.3529 z m -13.31629,-2.44823 -1.67135,-0.0792 0.10474,-0.31764 0.10473,-0.31764 1.50035,-0.0794 1.50037,-0.0793 0.41368,0.23151 0.4137,0.23151 -0.34745,0.24471 -0.34745,0.24471 z m 4.89458,5.3e-4 -1.80383,-0.0786 0.10504,-0.31823 0.10502,-0.31823 1.67192,-0.0798 1.67193,-0.0798 0.27821,0.27823 0.27824,0.27822 -0.25136,0.19844 -0.25135,0.19844 z m 4.895,0.0146 -1.67135,-0.0944 0.10483,-0.31764 0.10483,-0.31764 1.63266,-0.0788 1.63264,-0.0788 v -1.87186 -1.87186 l 0.39688,0.32938 0.39687,0.32938 v 1.6685 1.66849 l -0.41576,0.41577 -0.4158,0.41578 -0.0472,-0.051 -0.0473,-0.051 z m 1.80361,-7.34421 v -2.02847 l 0.33073,0.11024 0.33073,0.11025 v 1.80798 1.80799 l -0.33073,0.11024 -0.33073,0.11025 z m 0,-5.02708 v -2.02847 l 0.33073,0.11024 0.33073,0.11024 v 1.80799 1.80798 l -0.33073,0.11025 -0.33073,0.11024 z m 0,-5.02708 v -2.02848 l 0.33073,0.11025 0.33073,0.11024 v 1.80799 1.80798 l -0.33073,0.11024 -0.33073,0.11025 z m 0,-5.02709 v -2.02847 l 0.33073,0.11024 0.33073,0.11025 v 1.80798 1.80799 l -0.33073,0.11024 -0.33073,0.11024 z m -17.52505,-1.44544 0.45943,-0.25481 13.62604,-4.53007 13.62604,-4.53007 0.0928,-0.0925 0.0928,-0.0925 -1.41573,-2.00836 -1.41573,-2.00835 -2.24896,-3.16285 -2.24896,-3.16284 -1.04209,-1.50952 -1.04211,-1.50952 -0.23673,0.71017 -0.23672,0.71017 h -0.24251 -0.24255 v -1.45521 -1.4552 h -18.25625 -18.25625 v 1.4552 1.45521 h -0.24253 -0.24254 l -0.23672,-0.71017 -0.23672,-0.71017 -1.0421,1.50952 -1.0421,1.50952 -2.24895,3.16284 -2.24896,3.16285 -1.41574,2.00835 -1.41574,2.00836 0.0928,0.0925 0.0928,0.0925 13.62605,4.52983 13.62604,4.52982 0.39687,0.2395 0.39688,0.2395 0.33432,0.0156 0.33432,0.0156 0.45943,-0.25481 z m -19.6715,-6.98471 -0.13828,-0.36035 0.0804,-1.53697 0.0804,-1.53697 0.33073,-0.1091 0.33073,-0.1091 v 2.00643 2.00642 h -0.27288 -0.27289 z m 37.19655,-1.62402 v -2.02847 l 0.33073,0.11024 0.33073,0.11024 v 1.80799 1.80798 l -0.33073,0.11025 -0.33073,0.11024 z m -37.02249,-3.1519 -0.31021,-0.37378 0.0794,-1.65574 0.0794,-1.65575 0.33073,-0.10919 0.33073,-0.1092 v 2.13872 2.13871 h -0.0999 -0.0999 z m 37.02249,-1.73255 v -2.17111 l 0.33073,0.10928 0.33073,0.10928 0.0773,1.72321 0.0773,1.72321 -0.40801,0.33863 -0.40802,0.33862 z m -37.14565,-3.33928 -0.1606,-0.41851 v -1.27964 -1.27964 l 0.1606,-0.41851 0.1606,-0.41851 h 0.23628 0.23627 v 2.11666 2.11667 h -0.23627 -0.23628 z m 37.14565,-1.69815 v -2.11666 h 0.23627 0.23628 l 0.1606,0.41851 0.1606,0.41851 v 1.27964 1.27964 l -0.1606,0.41851 -0.1606,0.41852 h -0.23628 -0.23627 z m 61.11875,68.09592 -1.98437,-0.3681 -3.57188,-0.64173 -3.57187,-0.64173 -3.70417,-0.67298 -3.70417,-0.67298 -1.05833,-0.16293 -1.05833,-0.16294 -0.35947,-0.29563 -0.35946,-0.29562 -1.05915,-2.25887 -1.05918,-2.25886 -1.85352,-3.96826 -1.85353,-3.96825 0.1833,-26.19425 0.1833,-26.19425 0.44302,-0.43306 0.44302,-0.43306 1.52135,-0.82371 1.52136,-0.82371 1.52135,-0.83697 1.52136,-0.83697 0.79375,-0.44419 0.79375,-0.4442 1.71979,-0.93179 1.71979,-0.9318 0.92604,-0.52161 0.92604,-0.52161 1.27402,-0.7094 1.27403,-0.70941 0.57806,-0.0419 0.57806,-0.0419 3.30729,0.59684 3.30729,0.59683 2.77813,0.50319 2.77812,0.50318 3.04271,0.52018 3.04271,0.52018 1.41729,0.30618 1.4173,0.30618 3.03897,6.25588 3.03901,6.25587 -0.1732,26.06146 -0.17317,26.06146 -0.12787,0.44451 -0.12787,0.44451 -1.5094,0.8529 -1.50939,0.85289 -0.92605,0.52302 -0.92604,0.52302 -3.30729,1.85758 -3.30729,1.85759 -1.19063,0.67386 -1.19062,0.67387 -1.32292,0.73656 -1.32291,0.73656 -0.39688,-0.0267 -0.39687,-0.0267 z m 1.74241,-5.98393 0.0688,-4.30053 0.0235,-20.10833 0.0236,-20.10833 -0.003,-0.71562 -0.003,-0.71561 -0.99219,-0.16692 -0.99218,-0.16691 -3.37516,-0.63882 -3.37518,-0.63883 h -0.39513 -0.39516 v 1.08038 1.08038 l -0.33073,-0.10876 -0.33073,-0.10875 -0.0801,-1.07845 -0.0801,-1.07844 -3.22717,-0.57123 -3.22718,-0.57123 -1.12821,-0.21671 -1.12818,-0.21671 -0.1179,0.19077 -0.1179,0.19076 -0.035,16.98563 -0.035,16.98563 0.30659,0.36941 0.30658,0.3694 -0.37164,0.61303 -0.3716,0.61301 0.0233,7.0047 0.0233,7.00469 1.45521,0.32169 1.45521,0.3217 4.7625,0.83575 4.7625,0.83575 3.30729,0.59011 3.30729,0.59011 0.1092,-0.0861 0.10919,-0.0861 0.0688,-4.30053 z m -16.91629,-15.19697 -0.17195,-0.17196 v -0.19534 -0.19535 l 1.1716,-0.6866 1.17157,-0.6866 h 0.43797 0.43796 l -0.10546,0.33073 -0.10546,0.33073 -1.33213,0.72317 -1.33215,0.72318 z m 14.24784,-2.3331 -0.26458,-0.0886 -0.99219,-0.16595 -0.99219,-0.16595 v -0.41493 -0.41493 l 1.22444,0.18362 1.22447,0.18362 0.37422,0.1436 0.37423,0.14361 -0.0938,0.2816 -0.0939,0.28159 -0.24805,0.0606 -0.24805,0.0606 z m -9.65729,-0.52341 v -0.3915 l 1.04134,-0.53125 1.04135,-0.53126 -0.0243,-0.86318 -0.0243,-0.86319 0.0413,-0.58701 0.0413,-0.58701 0.38333,0.1471 0.38333,0.14709 0.0797,1.23367 0.0797,1.23366 1.13781,0.27444 1.13781,0.27444 -0.0795,0.25473 -0.0795,0.25472 -1.39401,-0.069 -1.39403,-0.069 -1.04283,0.53202 -1.04283,0.53201 h -0.14285 -0.14282 z m 2.11666,-7.78854 v -1.60955 h 0.41008 0.41008 l -0.0793,1.50045 -0.0793,1.50045 -0.33073,0.1091 -0.33073,0.1091 z m 0,-5.46805 v -1.74185 l 0.33073,0.1092 0.33073,0.10919 0.0788,1.63265 0.0788,1.63264 h -0.4095 -0.4095 z m 0,-5.29167 v -1.74184 l 0.33073,0.10919 0.33073,0.1092 0.0788,1.63264 0.0788,1.63265 h -0.4095 -0.4095 z m 0.10817,-3.91418 -0.13981,-0.36434 0.082,-1.2893 0.082,-1.2893 h 0.26458 0.26458 l 0.0788,1.65364 0.0788,1.65365 h -0.28552 -0.28551 z m 13.3114,43.72055 1.00023,-0.56464 4.36562,-2.44307 4.36563,-2.44308 1.32291,-0.72913 1.32292,-0.72913 0.25154,-0.23208 0.25151,-0.23208 -0.3466,-0.95852 -0.34661,-0.95852 0.35658,-0.22038 0.35658,-0.22037 0.0511,-3.385 0.0511,-3.38499 0.0241,-20.10833 0.0241,-20.10834 -0.006,-0.35587 -0.006,-0.35587 -1.23259,0.72234 -1.23256,0.72234 -1.00446,0.53614 -1.00444,0.53615 -0.0781,1.41553 -0.0781,1.41554 -0.26458,0.006 -0.26458,0.006 -0.13592,-1.00095 -0.13594,-1.00096 -0.39243,0.0879 -0.39246,0.0879 -2.64663,1.49381 -2.64662,1.49381 -0.93962,0.53492 -0.93964,0.53493 -0.42659,0.26458 -0.42661,0.26458 -0.089,14.15521 -0.089,14.15521 0.8599,0.25316 0.85989,0.25315 v 0.34216 0.34216 h -0.92604 -0.92604 v 10.18646 10.18646 h 0.25654 0.25654 l 1.00023,-0.56464 z m 10.55981,-12.43012 -0.69604,-1.34158 v -0.24017 -0.24016 h 0.37015 0.37018 l 0.55586,1.06648 0.55589,1.06648 v 0.37311 0.37312 l -0.23,0.14215 -0.23,0.14215 z m -1.67958,-3.72762 -0.27535,-0.34325 -0.57118,-1.13355 -0.57118,-1.13356 0.16057,-0.25982 0.16058,-0.25982 0.25132,0.15533 0.25133,0.15533 0.63611,1.2553 0.63611,1.25531 -0.20148,0.32599 -0.20145,0.326 z m -4.06008,-2.69134 -0.11576,-0.11016 -1.01973,-0.13457 -1.01973,-0.13457 -0.28556,-0.28554 -0.28554,-0.28554 0.13314,-0.13314 0.13314,-0.13314 1.56903,0.19599 1.569,0.19599 v 0.37371 0.37371 l -0.28112,0.0937 -0.28112,0.0937 z m 2.84721,-1.42222 -0.11097,-0.19844 -0.0378,-1.22364 -0.0378,-1.22364 0.36687,-0.30447 0.36684,-0.30446 0.1229,0.33748 0.12287,0.33748 -0.0593,1.19063 -0.0593,1.19062 -0.0326,0.19844 -0.0326,0.19844 h -0.24898 -0.24897 z m 0.0429,-5.29167 -0.0369,-0.19844 -0.0599,-1.05833 -0.0599,-1.05833 0.25754,-0.49877 0.25755,-0.49877 0.23209,0.36648 0.23209,0.36647 0.004,0.97055 0.004,0.97055 -0.1606,0.41851 -0.1606,0.41852 h -0.23627 -0.23628 l -0.0369,-0.19844 z m 0.003,-5.40191 -0.0334,-0.35278 0.0156,-1.2831 0.0156,-1.2831 0.15447,-0.15447 0.15446,-0.15447 0.27533,0.27532 0.2753,0.27531 -0.0813,1.40604 -0.0813,1.40604 -0.33073,0.109 -0.33073,0.10899 z m 0.0334,-6.70278 v -1.76389 l 0.33073,0.11025 0.33073,0.11024 v 1.5434 1.5434 l -0.33073,0.11025 -0.33073,0.11024 z m 0.1692,-3.75545 -0.1692,-0.1692 v -1.5434 -1.54341 h 0.39688 0.39687 v 1.57189 1.57189 l -0.22767,0.14071 -0.22768,0.14071 z m 0,-5.29167 -0.1692,-0.1692 v -1.5434 -1.5434 h 0.39688 0.39687 v 1.57188 1.57189 l -0.22767,0.14071 -0.22768,0.14072 z m -32.18378,35.93473 v -4.7301 l -0.42077,-0.34921 -0.42077,-0.3492 0.38804,-0.28375 0.38804,-0.28373 0.13002,-18.11855 0.12999,-18.11854 -0.33341,-0.92623 -0.33342,-0.92621 -1.48588,-3.1231 -1.48587,-3.12309 -0.25646,0.1585 -0.25646,0.1585 -0.0279,21.75001 -0.0279,21.75001 -0.0354,1.19063 -0.0354,1.19062 0.38812,-0.0368 0.38812,-0.0368 0.46302,-0.18999 0.46302,-0.18999 v 0.41023 0.41022 l -0.79629,0.47038 -0.79629,0.47037 0.0687,0.17572 0.0687,0.17572 1.69767,3.6022 1.6977,3.60219 h 0.22053 0.22056 z m 23.23243,-40.68094 1.24153,-0.69645 4.36562,-2.44786 4.36563,-2.44786 1.71979,-0.97586 1.71979,-0.97586 0.23045,-0.22453 0.23043,-0.22454 -1.88407,-3.88595 -1.8841,-3.88595 v -0.19354 -0.19354 l -0.66146,-0.30138 -0.66146,-0.30138 v -0.91388 -0.91389 l -0.46302,-0.14507 -0.46302,-0.14507 -3.175,-0.53956 -3.175,-0.53956 -2.11667,-0.38877 -2.11666,-0.38878 -1.05834,-0.16058 -1.05833,-0.16059 -3.07271,-0.58592 -3.07271,-0.58592 -0.4816,0.16894 -0.48159,0.16894 0.3081,0.19043 0.30814,0.19043 -0.0294,1.30664 -0.0294,1.30664 -0.34012,0.28229 -0.34015,0.2823 -0.14028,-0.47695 -0.14026,-0.47696 0.0845,-1.25677 0.0846,-1.25677 h -0.22307 -0.22307 l -1.00023,0.55932 -1.00023,0.55931 -1.05834,0.59885 -1.05833,0.59884 -1.79403,0.96758 -1.79404,0.96757 -0.98409,0.5561 -0.98409,0.55609 -1.71979,0.93055 -1.71979,0.93054 -0.46104,0.2865 -0.46104,0.28649 0.16045,0.50553 0.16044,0.50552 1.71831,3.59925 1.71828,3.59925 0.61971,1.39234 0.61971,1.39233 0.34382,0.11623 0.34386,0.11624 1.05833,0.15204 1.05833,0.15204 3.43959,0.63235 3.43958,0.63234 3.96875,0.70227 3.96875,0.70227 1.05833,0.21759 1.05834,0.21759 0.34597,0.0283 0.34594,0.0283 z m -12.26992,-2.82612 -0.14624,-0.38112 0.082,-1.26861 0.082,-1.26862 0.33073,-0.10888 0.33072,-0.10887 v 1.59393 1.59393 l -0.26646,0.16468 -0.26643,0.16468 z m 21.17801,-3.14545 -0.156,-0.40651 0.0812,-1.42367 0.0812,-1.42367 0.26459,0.0631 0.26458,0.0631 0.0805,1.49681 0.0805,1.49681 -0.27027,0.27027 -0.27025,0.27026 z m -21.11621,-2.23961 -0.1764,-0.17639 v -1.26321 -1.2632 l 0.29417,-0.1818 0.29416,-0.18181 0.17685,0.28614 0.17685,0.28615 -0.0499,1.00452 -0.0499,1.00453 -0.0241,0.33073 -0.0241,0.33073 h -0.22048 -0.2205 l -0.17637,-0.17639 z m 21.0438,-4.65226 0.0788,-1.65365 h 0.26459 0.26458 l 0.0788,1.65365 0.0788,1.65365 h -0.42211 -0.42212 z m -21.0438,-0.63941 -0.1764,-0.17639 v -1.2632 -1.26321 l 0.29417,-0.1818 0.29416,-0.18181 0.18767,0.30366 0.18767,0.30365 -0.0523,1.11931 -0.0523,1.1193 -0.0326,0.19844 -0.0327,0.19844 h -0.22047 -0.22051 z m -223.572924,65.89571 -0.0441,-0.0296 -40.878124,-0.1672 -40.878125,-0.16721 -2.711979,-0.002 -2.711979,-0.002 v -12.79964 -12.79966 l 22.478404,-22.27919 22.478408,-22.27919 0.396591,0.0877 0.396595,0.0877 22.104167,22.33518 22.104167,22.33518 v 12.78826 12.78826 l -0.264583,0.0284 -0.264583,0.0283 -1.080381,0.0378 -1.080384,0.0378 z m 0.08819,-1.58667 v -0.1941 l -0.40355,-0.44592 -0.403551,-0.44592 0.425035,-0.35275 0.425034,-0.35274 0.504093,0.31481 0.504092,0.31481 h 0.135882 0.135882 V 200.0749 189.08532 l -12.104688,-0.0282 -12.104687,-0.0282 -19.407119,-0.11183 -19.407115,-0.11182 -0.50278,0.455 -0.502777,0.45501 -0.463021,-0.41541 -0.463021,-0.41541 -10.847917,-0.053 -10.847916,-0.053 -0.330729,0.0305 -0.33073,0.0305 v 10.9719 10.97191 l 0.400245,-0.15359 0.400244,-0.15359 0.366192,0.30391 0.366191,0.30391 -0.13535,0.51758 -0.13535,0.51758 17.823603,0.068 17.8236,0.068 24.540104,0.0827 24.540104,0.0826 z m -82.761666,-3.3314 -0.3175,-0.3175 v -0.28504 -0.28504 l 0.820957,-0.72037 0.820956,-0.72038 h 0.228068 0.228068 l 0.261732,0.48905 0.261732,0.48905 -0.860332,0.83387 -0.860331,0.83386 h -0.132925 -0.132925 z m 79.10411,-0.56091 -0.839918,-0.86657 v -0.28983 -0.28982 l 0.439955,-0.16883 0.439957,-0.16882 0.750668,0.71918 0.75067,0.71919 v 0.31498 0.31497 l -0.350707,0.29107 -0.350708,0.29106 z m -75.300591,-3.53171 -0.16937,-0.44137 0.848688,-0.87563 0.84869,-0.87563 0.350708,0.29107 0.350708,0.29106 v 0.31498 0.31497 l -0.742082,0.71096 -0.742082,0.71096 h -0.287944 -0.287943 z m 71.202883,-0.56529 -0.710959,-0.74208 v -0.28795 -0.28794 l 0.447,-0.17153 0.447003,-0.17153 0.781013,0.78101 0.781013,0.78101 -0.161378,0.42055 -0.161377,0.42054 H 19.22653 18.870851 Z m -67.233588,-3.40204 -0.168825,-0.43996 0.719185,-0.75067 0.719188,-0.75067 h 0.355679 0.355677 l 0.158355,0.41267 0.158356,0.41267 -0.745326,0.77796 -0.745328,0.77795 h -0.319067 -0.319066 z m 63.342189,-0.4917 -0.896835,-0.9253 0.453658,-0.45366 0.453657,-0.45365 0.934402,0.9344 0.934403,0.9344 -0.491226,0.44456 -0.491222,0.44455 z m -59.43619,-3.44977 -0.158356,-0.41267 0.745326,-0.77795 0.745328,-0.77796 h 0.35568 0.355677 l 0.158355,0.41267 0.158356,0.41267 -0.745326,0.77796 -0.745328,0.77795 h -0.35568 -0.355677 z m 55.518306,-0.4665 -0.852128,-0.87917 0.486818,-0.44057 0.48682,-0.44057 0.883967,0.91203 0.883968,0.91202 -0.338373,0.40771 -0.338376,0.40772 h -0.180284 -0.180284 z m -51.452854,-3.29446 -0.44455,-0.49122 0.925298,-0.89684 0.925298,-0.89683 0.453658,0.45366 0.453657,0.45365 -0.934403,0.93441 -0.934405,0.9344 z m 47.628453,-0.52887 -0.718942,-0.75041 v -0.28386 -0.28385 l 0.394552,-0.32745 0.394552,-0.32745 0.807688,0.86464 0.807691,0.86463 -0.0808,0.41957 -0.0808,0.41956 -0.4025,0.0775 -0.4025,0.0775 z m -4.467188,-5.44407 0.491577,-0.44487 0.636148,0.48498 0.636146,0.48498 11.046354,0.0691 11.046354,0.0691 v -0.21021 -0.21022 l -4.828646,-4.90246 -4.828645,-4.90245 -15.69285598,-15.80234 -15.69285502,-15.80234 -0.512874,0.32029 -0.512873,0.3203 -0.542502,-0.3388 -0.542502,-0.3388 -20.754406,20.56193 -20.754404,20.56193 0.135714,0.13571 0.135714,0.13572 10.853564,0.10676 10.853563,0.10676 0.4519,-0.19834 0.4519,-0.19834 0.264584,0.10816 0.264583,0.10815 17.330208,0.13229 17.33020802,0.13229 1.121233,-0.0222 1.12123298,-0.0222 z m -35.233697,-1.67148 -0.17639,-0.17639 v -0.46155 -0.46155 l 0.833816,-0.70161 0.833816,-0.70161 0.41107,0.41107 0.411072,0.41107 -0.899914,0.92848 -0.899914,0.92848 h -0.168585 -0.168584 z m 31.835833,-1.01667 -0.8999141,-0.92848 0.4536572,-0.45366 0.4536569,-0.45365 0.96922502,0.96922 0.969224,0.96923 -0.342683,0.4129 -0.342683,0.41291 h -0.180285 -0.180284 z m -28.051413,-3.18214 -0.337315,-0.40644 0.751295,-0.78418 0.751295,-0.78419 h 0.314979 0.314975 l 0.337318,0.40645 0.337314,0.40644 -0.751295,0.78418 -0.751295,0.78418 h -0.314978 -0.314976 z m 24.1366141,-0.73095 -0.8459655,-0.87281 0.3178122,-0.31782 0.3178122,-0.31781 h 0.2944575 0.2944574 l 0.7191878,0.75067 0.7191851,0.75067 -0.1688253,0.43996 -0.168828,0.43995 H -4.0910134 -4.40768 Z m -20.1732301,-2.97968 -0.342683,-0.41291 0.969224,-0.96922 0.969225,-0.96923 0.453657,0.45366 0.453657,0.45366 -0.899914,0.92847 -0.899914,0.92848 h -0.180285 -0.180284 z m 16.3003123,-0.89421 -0.745326,-0.77796 0.1583558,-0.41267 0.1583557,-0.41267 h 0.3556768 0.3556793 l 0.7453286,0.77796 0.745326,0.77795 -0.1583558,0.41267 -0.1583557,0.41267 h -0.3556768 -0.3556793 z m -12.3272553,-3.06935 -0.338373,-0.40771 0.867109,-0.89464 0.867111,-0.89463 0.364908,0.14003 0.364911,0.14003 v 0.45136 0.45136 l -0.742083,0.71096 -0.742082,0.71096 h -0.151561 -0.151564 z m 8.358505,-0.8994 -0.745326,-0.77796 0.158356,-0.41267 0.158356,-0.41267 h 0.355677 0.355679 l 0.745329,0.77796 0.745326,0.77795 -0.158356,0.41267 -0.158356,0.41267 h -0.355677 -0.355679 z m -4.379917,-3.0575 -0.338453,-0.40781 0.43339,-0.47889 0.433391,-0.47889 v -1.10365 -1.10364 h 0.661458 0.661458 v 1.13771 1.1377 l 0.270836,0.27084 0.270835,0.27083 -0.469273,0.41225 -0.469273,0.41224 -0.557958,0.16957 -0.557956,0.16956 z m 0.579977,-7.74007 0.08064,-1.25677 0.595312,-0.0846 0.595313,-0.0846 v 1.34132 1.34132 h -0.675955 -0.675955 z m 0.237924,-4.28404 -0.323901,-0.20018 0.08331,-1.1644 0.08331,-1.1644 0.595313,-0.0846 0.595312,-0.0845 v 1.31301 1.31301 l -0.354721,0.13612 -0.354724,0.13612 z m -0.183216,-5.67616 -0.141619,-0.36905 0.08378,-1.02001 0.08377,-1.02001 h 0.661459 0.661458 l 0.01257,1.05833 0.01257,1.05833 -0.107021,0.33073 -0.107024,0.33073 h -0.509163 -0.509164 l -0.141618,-0.36905 z m 67.009615,61.31142 -0.17639,-0.17639 v -23.86631 -23.86631 l 4.167188,-4.08631 4.167187,-4.0863 3.96875,-3.86261 3.96875,-3.8626 0.79375,-0.7197 0.79375,-0.71969 4.148857,-4.06715 4.148857,-4.06715 24.690729,0.0675 24.69073,0.0675 0.0675,23.96337 0.0675,23.96337 -3.7717,3.70282 -3.77171,3.70281 -4.4921,4.3484 -4.49211,4.3484 -3.97456,3.88123 -3.97456,3.88124 -0.92604,0.81089 -0.926044,0.81089 -24.496008,0.004 -24.496009,0.004 -0.176387,-0.17639 z m 48.110064,-24.03299 v -22.48958 l -23.349475,-0.0676 -23.349479,-0.0676 v 22.27256 22.27256 l 0.664962,-0.6247 0.664964,-0.6247 0.267329,0.26733 0.267333,0.26733 -0.535419,0.48455 -0.535419,0.48454 v 0.22504 0.22504 l 22.952604,-0.0676 22.9526,-0.0676 z M 54.490599,208.6278 v -0.32001 l 1.236459,-1.13519 1.236456,-1.1352 h 0.218752 0.21875 v 0.32072 0.32071 l -1.113423,1.1345 -1.113422,1.13449 h -0.341786 -0.341786 z m 3.96875,-3.85711 v -0.20839 l 1.297599,-1.27808 1.297598,-1.27809 0.315275,0.19485 0.315275,0.19485 -1.272199,1.29162 -1.272198,1.29162 h -0.340675 -0.340675 z m 4.233333,-4.06703 v -0.30667 l 1.247114,-1.14497 1.247113,-1.14497 0.262107,0.2621 0.262107,0.26211 -1.167434,1.18953 -1.167435,1.18953 h -0.341786 -0.341786 z m 3.96875,-3.87047 v -0.20839 l 1.265859,-1.24682 1.26586,-1.24683 h 0.189349 0.189349 v 0.32072 0.32071 l -1.113422,1.1345 -1.113423,1.13449 h -0.341786 -0.341786 z m 4.233333,-4.06148 v -0.3011 l 1.256771,-1.14827 1.256771,-1.14828 0.198438,-0.006 0.198437,-0.006 v 0.32072 0.32071 l -1.113422,1.1345 -1.113422,1.13449 h -0.341787 -0.341786 v -0.30111 z m 4.101164,-3.66745 -0.19022,-0.30777 0.690362,-0.72059 0.690361,-0.72058 v -1.13205 -1.13205 l 0.330729,0.10865 0.330729,0.10864 0.08212,0.97174 0.08212,0.97174 h 1.064411 1.064411 l -0.10876,0.33072 -0.108757,0.33073 -1.170061,0.083 -1.170062,0.083 -0.698582,0.66628 -0.698579,0.66628 z m 6.140227,-1.22408 -0.187224,-0.18722 v -0.22049 -0.22048 h 2.006423 2.006425 l -0.109281,0.33072 -0.109281,0.33073 -1.709917,0.077 -1.709917,0.077 z m 5.641026,-0.0827 -0.389462,-0.25243 0.417327,-0.16015 0.417328,-0.16014 1.691921,0.0798 1.69193,0.0798 v 0.26458 0.26459 l -1.71979,0.0682 -1.719796,0.0682 z m 5.732414,0.0791 -0.1692,-0.16919 0.14072,-0.22768 0.14071,-0.22768 h 1.82086 1.82085 l 0.14639,0.23686 0.14638,0.23686 -0.41699,0.16001 -0.417,0.16002 h -1.52176 -1.52176 z m -16.139382,-4.49772 -0.183782,-0.18378 v -1.83003 -1.83004 l 0.330729,0.1091 0.330729,0.1091 0.07935,1.50035 0.07935,1.50036 -0.226296,0.40436 -0.226293,0.40437 z m -0.183782,-7.50392 v -1.89618 l 0.330729,0.11024 0.330729,0.11025 v 1.67569 1.67569 l -0.330729,0.11025 -0.330729,0.11024 z m 0,-5.51859 v -1.85851 l 0.256826,-0.15873 0.256828,-0.15873 0.15653,0.62367 0.15653,0.62367 -0.08263,1.2847 -0.08263,1.2847 -0.330729,0.10887 -0.330729,0.10888 z m 30.823958,33.53234 4.23334,-4.09521 4.10104,-3.99497 4.10104,-3.99496 1.78594,-1.6466 1.78594,-1.64661 v -0.23228 -0.23228 h -0.50753 -0.50753 l -0.41699,-0.16002 -0.417,-0.16002 0.14639,-0.23685 0.14638,-0.23686 h 1.30731 1.3073 v -22.28406 -22.28405 l -1.78594,1.71964 -1.78594,1.71963 -3.83645,3.71649 -3.83646,3.71648 -4.10104,3.97616 -4.10105,3.97615 -2.31807,2.19839 -2.318064,2.19838 0.0691,10.60725 0.0691,10.60724 1.00858,0.0831 1.00859,0.0831 -0.103,0.31378 -0.10299,0.31378 -0.97174,0.0821 -0.971734,0.0821 v 11.28593 11.28593 l 1.389064,-1.33284 1.38906,-1.33283 z m -2.85548,-16.00847 -0.18722,-0.18722 v -0.22049 -0.22048 h 2.00642 2.00642 l -0.10928,0.33072 -0.10928,0.33073 -1.70992,0.077 -1.70991,0.077 z m 5.82083,0 -0.18722,-0.18722 v -0.22049 -0.22048 h 2.00642 2.00643 l -0.10928,0.33072 -0.10928,0.33073 -1.70992,0.077 -1.70992,0.077 z m 5.82084,0 -0.18723,-0.18722 v -0.22049 -0.22048 h 2.00643 2.00642 l -0.10928,0.33072 -0.10928,0.33073 -1.70992,0.077 -1.70992,0.077 z m -39.660265,-24.12667 0.08218,-1.14119 0.314698,0.10354 0.3147,0.10353 0.132292,1.03765 0.132292,1.03765 10.847916,0.0634 10.847913,0.0634 3.308354,-3.23837 3.30835,-3.23838 7.80415,-7.57323 7.80415,-7.57323 0.8599,-0.75392 0.85989,-0.75392 v -0.20567 -0.20566 H 99.866636 76.980182 v 1.03669 1.03669 l -0.160015,0.417 -0.160017,0.41699 -0.236858,-0.14638 -0.23686,-0.14639 v -0.80018 -0.80019 l -0.241448,0.0882 -0.241451,0.0882 -2.338237,2.2254 -2.338239,2.2254 -7.507991,7.2996 -7.507991,7.2996 -1.307643,1.17595 -1.307645,1.17596 -0.257145,0.48048 -0.257146,0.48048 11.586321,-0.0689 11.586323,-0.0689 z m 0.05012,-4.67965 v -2.02847 l 0.330729,0.11024 0.330729,0.11024 v 1.80799 1.80798 l -0.330729,0.11025 -0.330729,0.11024 z m 0,-5.55625 v -2.02848 l 0.330729,0.11025 0.330729,0.11024 v 1.80799 1.80798 l -0.330729,0.11025 -0.330729,0.11024 z m 0,-5.5783 v -2.00643 l 0.330729,0.10888 0.330729,0.10888 0.08263,1.2847 0.08263,1.2847 -0.153815,0.61285 -0.153813,0.61284 h -0.259543 -0.259543 z"
       id="path868" />
  </g>
</svg>
