<svg version="1.1" xmlns="http://www.w3.org/2000/svg" xmlns:xlink="http://www.w3.org/1999/xlink" width="269" height="240"><defs><clipPath id="fdJUGcsArPnx"><path fill="none" stroke="none" d=" M 0 0 L 269 0 L 269 240 L 0 240 L 0 0 Z"/></clipPath></defs><g transform="scale(1,1)" clip-path="url(#fdJUGcsArPnx)"><g transform="translate(-392,-116)"><rect fill="rgb(255,255,255)" stroke="none" x="0" y="0" width="1142" height="554" fill-opacity="1"/><path fill="none" stroke="rgb(0,0,0)" paint-order="fill stroke markers" d=" M 403.82729695896865 193.565203467213 L 474.5603157575537 193.565203467213" stroke-opacity="1" stroke-linecap="round" stroke-linejoin="round" stroke-miterlimit="10" stroke-width="2"/><path fill="none" stroke="rgb(0,0,0)" paint-order="fill stroke markers" d=" M 474.5603157575537 193.565203467213 L 474.5603157575537 236.005014746364" stroke-opacity="1" stroke-linecap="round" stroke-linejoin="round" stroke-miterlimit="10" stroke-width="2"/><path fill="none" stroke="rgb(0,0,0)" paint-order="fill stroke markers" d=" M 474.5603157575537 236.005014746364 L 403.82729695896865 236.005014746364" stroke-opacity="1" stroke-linecap="round" stroke-linejoin="round" stroke-miterlimit="10" stroke-width="2"/><path fill="none" stroke="rgb(0,0,0)" paint-order="fill stroke markers" d=" M 403.82729695896865 236.005014746364 L 403.82729695896865 193.565203467213" stroke-opacity="1" stroke-linecap="round" stroke-linejoin="round" stroke-miterlimit="10" stroke-width="2"/><path fill="none" stroke="rgb(0,0,0)" paint-order="fill stroke markers" d=" M 474.5603157575537 122.83218466862802 L 573.5865420755729 122.83218466862802" stroke-opacity="1" stroke-linecap="round" stroke-linejoin="round" stroke-miterlimit="10" stroke-width="2"/><path fill="none" stroke="rgb(0,0,0)" paint-order="fill stroke markers" d=" M 573.5865420755729 122.83218466862802 L 573.5865420755729 193.565203467213" stroke-opacity="1" stroke-linecap="round" stroke-linejoin="round" stroke-miterlimit="10" stroke-width="2"/><path fill="none" stroke="rgb(0,0,0)" paint-order="fill stroke markers" d=" M 573.5865420755729 193.565203467213 L 474.5603157575537 193.565203467213" stroke-opacity="1" stroke-linecap="round" stroke-linejoin="round" stroke-miterlimit="10" stroke-width="2"/><path fill="none" stroke="rgb(0,0,0)" paint-order="fill stroke markers" d=" M 474.5603157575537 193.565203467213 L 474.5603157575537 122.83218466862802" stroke-opacity="1" stroke-linecap="round" stroke-linejoin="round" stroke-miterlimit="10" stroke-width="2"/><path fill="none" stroke="rgb(0,0,0)" paint-order="fill stroke markers" d=" M 573.5865420755729 193.565203467213 L 644.319560874158 193.565203467213" stroke-opacity="1" stroke-linecap="round" stroke-linejoin="round" stroke-miterlimit="10" stroke-width="2"/><path fill="none" stroke="rgb(0,0,0)" paint-order="fill stroke markers" d=" M 644.319560874158 193.565203467213 L 644.319560874158 236.005014746364" stroke-opacity="1" stroke-linecap="round" stroke-linejoin="round" stroke-miterlimit="10" stroke-width="2"/><path fill="none" stroke="rgb(0,0,0)" paint-order="fill stroke markers" d=" M 644.319560874158 236.005014746364 L 573.5865420755729 236.005014746364" stroke-opacity="1" stroke-linecap="round" stroke-linejoin="round" stroke-miterlimit="10" stroke-width="2"/><path fill="none" stroke="rgb(0,0,0)" paint-order="fill stroke markers" d=" M 573.5865420755729 236.005014746364 L 573.5865420755729 193.565203467213" stroke-opacity="1" stroke-linecap="round" stroke-linejoin="round" stroke-miterlimit="10" stroke-width="2"/><path fill="none" stroke="rgb(0,0,0)" paint-order="fill stroke markers" d=" M 474.5603157575537 193.565203467213 L 573.5865420755729 193.565203467213" stroke-opacity="1" stroke-linecap="round" stroke-linejoin="round" stroke-miterlimit="10"/><path fill="none" stroke="rgb(0,0,0)" paint-order="fill stroke markers" d=" M 573.5865420755729 193.565203467213 L 573.5865420755729 236.005014746364" stroke-opacity="1" stroke-linecap="round" stroke-linejoin="round" stroke-miterlimit="10"/><path fill="none" stroke="rgb(0,0,0)" paint-order="fill stroke markers" d=" M 573.5865420755729 236.005014746364 L 474.5603157575537 236.005014746364" stroke-opacity="1" stroke-linecap="round" stroke-linejoin="round" stroke-miterlimit="10"/><path fill="none" stroke="rgb(0,0,0)" paint-order="fill stroke markers" d=" M 474.5603157575537 236.005014746364 L 474.5603157575537 193.565203467213" stroke-opacity="1" stroke-linecap="round" stroke-linejoin="round" stroke-miterlimit="10"/><path fill="none" stroke="rgb(0,0,0)" paint-order="fill stroke markers" d=" M 474.5603157575537 236.005014746364 L 573.5865420755729 236.005014746364" stroke-opacity="1" stroke-linecap="round" stroke-linejoin="round" stroke-miterlimit="10" stroke-width="2"/><path fill="none" stroke="rgb(0,0,0)" paint-order="fill stroke markers" d=" M 573.5865420755729 236.005014746364 L 573.5865420755729 306.73803354494896" stroke-opacity="1" stroke-linecap="round" stroke-linejoin="round" stroke-miterlimit="10" stroke-width="2"/><path fill="none" stroke="rgb(0,0,0)" paint-order="fill stroke markers" d=" M 573.5865420755729 306.73803354494896 L 474.5603157575537 306.73803354494896" stroke-opacity="1" stroke-linecap="round" stroke-linejoin="round" stroke-miterlimit="10" stroke-width="2"/><path fill="none" stroke="rgb(0,0,0)" paint-order="fill stroke markers" d=" M 474.5603157575537 306.73803354494896 L 474.5603157575537 236.005014746364" stroke-opacity="1" stroke-linecap="round" stroke-linejoin="round" stroke-miterlimit="10" stroke-width="2"/><path fill="none" stroke="rgb(0,0,0)" paint-order="fill stroke markers" d=" M 474.5603157575537 306.73803354494896 L 573.5865420755729 306.73803354494896" stroke-opacity="1" stroke-linecap="round" stroke-linejoin="round" stroke-miterlimit="10" stroke-width="2"/><path fill="none" stroke="rgb(0,0,0)" paint-order="fill stroke markers" d=" M 573.5865420755729 306.73803354494896 L 573.5865420755729 349.17784482409996" stroke-opacity="1" stroke-linecap="round" stroke-linejoin="round" stroke-miterlimit="10" stroke-width="2"/><path fill="none" stroke="rgb(0,0,0)" paint-order="fill stroke markers" d=" M 573.5865420755729 349.17784482409996 L 474.5603157575537 349.17784482409996" stroke-opacity="1" stroke-linecap="round" stroke-linejoin="round" stroke-miterlimit="10" stroke-width="2"/><path fill="none" stroke="rgb(0,0,0)" paint-order="fill stroke markers" d=" M 474.5603157575537 349.17784482409996 L 474.5603157575537 306.73803354494896" stroke-opacity="1" stroke-linecap="round" stroke-linejoin="round" stroke-miterlimit="10" stroke-width="2"/><path fill="none" stroke="rgb(0,0,0)" paint-order="fill stroke markers" d=" M 403.82729695896865 193.565203467213 L 474.5603157575537 193.565203467213" stroke-opacity="1" stroke-linecap="round" stroke-linejoin="round" stroke-miterlimit="10"/><path fill="none" stroke="rgb(0,0,0)" paint-order="fill stroke markers" d=" M 474.5603157575537 193.565203467213 L 474.5603157575537 122.83218466862802" stroke-opacity="1" stroke-linecap="round" stroke-linejoin="round" stroke-miterlimit="10"/><path fill="none" stroke="rgb(0,0,0)" paint-order="fill stroke markers" d=" M 474.5603157575537 122.83218466862802 L 573.5865420755729 122.83218466862802" stroke-opacity="1" stroke-linecap="round" stroke-linejoin="round" stroke-miterlimit="10"/><path fill="none" stroke="rgb(0,0,0)" paint-order="fill stroke markers" d=" M 573.5865420755729 122.83218466862802 L 573.5865420755729 193.565203467213" stroke-opacity="1" stroke-linecap="round" stroke-linejoin="round" stroke-miterlimit="10"/><path fill="none" stroke="rgb(0,0,0)" paint-order="fill stroke markers" d=" M 573.5865420755729 193.565203467213 L 644.319560874158 193.565203467213" stroke-opacity="1" stroke-linecap="round" stroke-linejoin="round" stroke-miterlimit="10"/><path fill="none" stroke="rgb(0,0,0)" paint-order="fill stroke markers" d=" M 644.319560874158 193.565203467213 L 644.319560874158 236.005014746364" stroke-opacity="1" stroke-linecap="round" stroke-linejoin="round" stroke-miterlimit="10"/><path fill="none" stroke="rgb(0,0,0)" paint-order="fill stroke markers" d=" M 644.319560874158 236.005014746364 L 573.5865420755729 236.005014746364" stroke-opacity="1" stroke-linecap="round" stroke-linejoin="round" stroke-miterlimit="10"/><path fill="none" stroke="rgb(0,0,0)" paint-order="fill stroke markers" d=" M 573.5865420755729 236.005014746364 L 573.5865420755729 349.17784482409996" stroke-opacity="1" stroke-linecap="round" stroke-linejoin="round" stroke-miterlimit="10"/><path fill="none" stroke="rgb(0,0,0)" paint-order="fill stroke markers" d=" M 573.5865420755729 349.17784482409996 L 474.5603157575537 349.17784482409996" stroke-opacity="1" stroke-linecap="round" stroke-linejoin="round" stroke-miterlimit="10"/><path fill="none" stroke="rgb(0,0,0)" paint-order="fill stroke markers" d=" M 474.5603157575537 349.17784482409996 L 474.5603157575537 236.005014746364" stroke-opacity="1" stroke-linecap="round" stroke-linejoin="round" stroke-miterlimit="10"/><path fill="none" stroke="rgb(0,0,0)" paint-order="fill stroke markers" d=" M 474.5603157575537 236.005014746364 L 403.82729695896865 236.005014746364" stroke-opacity="1" stroke-linecap="round" stroke-linejoin="round" stroke-miterlimit="10"/><path fill="none" stroke="rgb(0,0,0)" paint-order="fill stroke markers" d=" M 403.82729695896865 236.005014746364 L 403.82729695896865 193.565203467213" stroke-opacity="1" stroke-linecap="round" stroke-linejoin="round" stroke-miterlimit="10"/><path fill="none" stroke="rgb(0,0,0)" paint-order="fill stroke markers" d=" M 53.5 36.5 L 153.5 36.5" stroke-opacity="0.39215686274509803" stroke-linecap="round" stroke-linejoin="round" stroke-miterlimit="10"/><path fill="rgb(0,0,0)" stroke="none" paint-order="stroke fill markers" d=" M 128.66666666666669 36.5 C 128.66666666666669 41.19442037356174 124.86108704022843 45 120.16666666666669 45 C 115.47224629310494 45 111.66666666666669 41.19442037356174 111.66666666666669 36.5 C 111.66666666666669 31.805579626438256 115.47224629310494 28 120.16666666666669 28 C 124.86108704022843 28 128.66666666666669 31.805579626438256 128.66666666666669 36.5 Z" fill-opacity="0.39215686274509803"/><path fill="none" stroke="rgb(0,0,0)" paint-order="fill stroke markers" d=" M 128.66666666666669 36.5 C 128.66666666666669 41.19442037356174 124.86108704022843 45 120.16666666666669 45 C 115.47224629310494 45 111.66666666666669 41.19442037356174 111.66666666666669 36.5 C 111.66666666666669 31.805579626438256 115.47224629310494 28 120.16666666666669 28 C 124.86108704022843 28 128.66666666666669 31.805579626438256 128.66666666666669 36.5 Z" stroke-opacity="0.39215686274509803" stroke-linecap="round" stroke-linejoin="round" stroke-miterlimit="10"/><path fill="rgb(0,0,0)" stroke="none" paint-order="stroke fill markers" d=" M 125.66666666666669 36.5 C 125.66666666666669 39.537566124069365 123.20423279073604 42 120.16666666666669 42 C 117.12910054259733 42 114.66666666666669 39.537566124069365 114.66666666666669 36.5 C 114.66666666666669 33.462433875930635 117.12910054259733 31 120.16666666666669 31 C 123.20423279073604 31 125.66666666666669 33.462433875930635 125.66666666666669 36.5 Z" fill-opacity="1"/><path fill="none" stroke="rgb(0,0,0)" paint-order="fill stroke markers" d=" M 125.66666666666669 36.5 C 125.66666666666669 39.537566124069365 123.20423279073604 42 120.16666666666669 42 C 117.12910054259733 42 114.66666666666669 39.537566124069365 114.66666666666669 36.5 C 114.66666666666669 33.462433875930635 117.12910054259733 31 120.16666666666669 31 C 123.20423279073604 31 125.66666666666669 33.462433875930635 125.66666666666669 36.5 Z" stroke-opacity="1" stroke-linecap="round" stroke-linejoin="round" stroke-miterlimit="10"/><text fill="rgb(0,0,0)" stroke="none" font-family="geogebra-sans-serif, sans-serif" font-size="16px" font-style="normal" font-weight="normal" text-decoration="normal" x="109" y="21" text-anchor="start" dominant-baseline="alphabetic" fill-opacity="1">length = 7</text><text fill="none" stroke="rgb(255,255,255)" font-family="geogebra-sans-serif, sans-serif" font-size="16px" font-style="normal" font-weight="normal" text-decoration="normal" x="109" y="21" text-anchor="start" dominant-baseline="alphabetic" stroke-opacity="1" stroke-linejoin="bevel" stroke-miterlimit="10" stroke-width="3">length = 7</text><text fill="rgb(0,0,0)" stroke="none" font-family="geogebra-sans-serif, sans-serif" font-size="16px" font-style="normal" font-weight="normal" text-decoration="normal" x="109" y="21" text-anchor="start" dominant-baseline="alphabetic" fill-opacity="1">length = 7</text><path fill="none" stroke="rgb(0,0,0)" paint-order="fill stroke markers" d=" M 53.5 84.5 L 153.5 84.5" stroke-opacity="0.39215686274509803" stroke-linecap="round" stroke-linejoin="round" stroke-miterlimit="10"/><path fill="rgb(0,0,0)" stroke="none" paint-order="stroke fill markers" d=" M 84.22222222222217 84.5 C 84.22222222222217 89.19442037356174 80.41664259578391 93 75.72222222222217 93 C 71.02780184866043 93 67.22222222222217 89.19442037356174 67.22222222222217 84.5 C 67.22222222222217 79.80557962643826 71.02780184866043 76 75.72222222222217 76 C 80.41664259578391 76 84.22222222222217 79.80557962643826 84.22222222222217 84.5 Z" fill-opacity="0.39215686274509803"/><path fill="none" stroke="rgb(0,0,0)" paint-order="fill stroke markers" d=" M 84.22222222222217 84.5 C 84.22222222222217 89.19442037356174 80.41664259578391 93 75.72222222222217 93 C 71.02780184866043 93 67.22222222222217 89.19442037356174 67.22222222222217 84.5 C 67.22222222222217 79.80557962643826 71.02780184866043 76 75.72222222222217 76 C 80.41664259578391 76 84.22222222222217 79.80557962643826 84.22222222222217 84.5 Z" stroke-opacity="0.39215686274509803" stroke-linecap="round" stroke-linejoin="round" stroke-miterlimit="10"/><path fill="rgb(0,0,0)" stroke="none" paint-order="stroke fill markers" d=" M 81.22222222222217 84.5 C 81.22222222222217 87.53756612406936 78.75978834629153 90 75.72222222222217 90 C 72.68465609815281 90 70.22222222222217 87.53756612406936 70.22222222222217 84.5 C 70.22222222222217 81.46243387593064 72.68465609815281 79 75.72222222222217 79 C 78.75978834629153 79 81.22222222222217 81.46243387593064 81.22222222222217 84.5 Z" fill-opacity="1"/><path fill="none" stroke="rgb(0,0,0)" paint-order="fill stroke markers" d=" M 81.22222222222217 84.5 C 81.22222222222217 87.53756612406936 78.75978834629153 90 75.72222222222217 90 C 72.68465609815281 90 70.22222222222217 87.53756612406936 70.22222222222217 84.5 C 70.22222222222217 81.46243387593064 72.68465609815281 79 75.72222222222217 79 C 78.75978834629153 79 81.22222222222217 81.46243387593064 81.22222222222217 84.5 Z" stroke-opacity="1" stroke-linecap="round" stroke-linejoin="round" stroke-miterlimit="10"/><text fill="rgb(0,0,0)" stroke="none" font-family="geogebra-sans-serif, sans-serif" font-size="16px" font-style="normal" font-weight="normal" text-decoration="normal" x="46" y="77" text-anchor="start" dominant-baseline="alphabetic" fill-opacity="1">width = 3</text><text fill="none" stroke="rgb(255,255,255)" font-family="geogebra-sans-serif, sans-serif" font-size="16px" font-style="normal" font-weight="normal" text-decoration="normal" x="46" y="77" text-anchor="start" dominant-baseline="alphabetic" stroke-opacity="1" stroke-linejoin="bevel" stroke-miterlimit="10" stroke-width="3">width = 3</text><text fill="rgb(0,0,0)" stroke="none" font-family="geogebra-sans-serif, sans-serif" font-size="16px" font-style="normal" font-weight="normal" text-decoration="normal" x="46" y="77" text-anchor="start" dominant-baseline="alphabetic" fill-opacity="1">width = 3</text><path fill="none" stroke="rgb(0,0,0)" paint-order="fill stroke markers" d=" M 53.5 132.5 L 153.5 132.5" stroke-opacity="0.39215686274509803" stroke-linecap="round" stroke-linejoin="round" stroke-miterlimit="10"/><path fill="rgb(0,0,0)" stroke="none" paint-order="stroke fill markers" d=" M 106.44444444444446 132.5 C 106.44444444444446 137.19442037356174 102.6388648180062 141 97.94444444444446 141 C 93.25002407088272 141 89.44444444444446 137.19442037356174 89.44444444444446 132.5 C 89.44444444444446 127.80557962643826 93.25002407088272 124 97.94444444444446 124 C 102.6388648180062 124 106.44444444444446 127.80557962643826 106.44444444444446 132.5 Z" fill-opacity="0.39215686274509803"/><path fill="none" stroke="rgb(0,0,0)" paint-order="fill stroke markers" d=" M 106.44444444444446 132.5 C 106.44444444444446 137.19442037356174 102.6388648180062 141 97.94444444444446 141 C 93.25002407088272 141 89.44444444444446 137.19442037356174 89.44444444444446 132.5 C 89.44444444444446 127.80557962643826 93.25002407088272 124 97.94444444444446 124 C 102.6388648180062 124 106.44444444444446 127.80557962643826 106.44444444444446 132.5 Z" stroke-opacity="0.39215686274509803" stroke-linecap="round" stroke-linejoin="round" stroke-miterlimit="10"/><path fill="rgb(0,0,0)" stroke="none" paint-order="stroke fill markers" d=" M 103.44444444444446 132.5 C 103.44444444444446 135.53756612406937 100.98201056851381 138 97.94444444444446 138 C 94.9068783203751 138 92.44444444444446 135.53756612406937 92.44444444444446 132.5 C 92.44444444444446 129.46243387593063 94.9068783203751 127 97.94444444444446 127 C 100.98201056851381 127 103.44444444444446 129.46243387593063 103.44444444444446 132.5 Z" fill-opacity="1"/><path fill="none" stroke="rgb(0,0,0)" paint-order="fill stroke markers" d=" M 103.44444444444446 132.5 C 103.44444444444446 135.53756612406937 100.98201056851381 138 97.94444444444446 138 C 94.9068783203751 138 92.44444444444446 135.53756612406937 92.44444444444446 132.5 C 92.44444444444446 129.46243387593063 94.9068783203751 127 97.94444444444446 127 C 100.98201056851381 127 103.44444444444446 129.46243387593063 103.44444444444446 132.5 Z" stroke-opacity="1" stroke-linecap="round" stroke-linejoin="round" stroke-miterlimit="10"/><text fill="rgb(0,0,0)" stroke="none" font-family="geogebra-sans-serif, sans-serif" font-size="16px" font-style="normal" font-weight="normal" text-decoration="normal" x="86" y="117" text-anchor="start" dominant-baseline="alphabetic" fill-opacity="1">height = 5</text><text fill="none" stroke="rgb(255,255,255)" font-family="geogebra-sans-serif, sans-serif" font-size="16px" font-style="normal" font-weight="normal" text-decoration="normal" x="86" y="117" text-anchor="start" dominant-baseline="alphabetic" stroke-opacity="1" stroke-linejoin="bevel" stroke-miterlimit="10" stroke-width="3">height = 5</text><text fill="rgb(0,0,0)" stroke="none" font-family="geogebra-sans-serif, sans-serif" font-size="16px" font-style="normal" font-weight="normal" text-decoration="normal" x="86" y="117" text-anchor="start" dominant-baseline="alphabetic" fill-opacity="1">height = 5</text><text fill="rgb(0,0,0)" stroke="none" font-family="geogebra-sans-serif, sans-serif" font-size="16px" font-style="normal" font-weight="normal" text-decoration="normal" x="674" y="49" text-anchor="start" dominant-baseline="alphabetic" fill-opacity="1">Surface Area = 142</text></g></g></svg>