<svg version="1.1" xmlns="http://www.w3.org/2000/svg" xmlns:xlink="http://www.w3.org/1999/xlink" width="305" height="382"><defs><clipPath id="aUTsxpKmRirw"><path fill="none" stroke="none" d=" M 0 0 L 305 0 L 305 382 L 0 382 L 0 0 Z"/></clipPath></defs><g transform="scale(1,1)" clip-path="url(#aUTsxpKmRirw)"><g transform="translate(-359,-86)"><rect fill="rgb(255,255,255)" stroke="none" x="0" y="0" width="1142" height="554" fill-opacity="1"/><path fill="none" stroke="rgb(0,0,0)" paint-order="fill stroke markers" d=" M 389.6806931992516 193.56520346721302 L 474.5603157575537 193.565203467213" stroke-opacity="1" stroke-linecap="round" stroke-linejoin="round" stroke-miterlimit="10" stroke-width="2"/><path fill="none" stroke="rgb(0,0,0)" paint-order="fill stroke markers" d=" M 474.5603157575537 193.565203467213 L 474.5603157575537 278.444826025515" stroke-opacity="1" stroke-linecap="round" stroke-linejoin="round" stroke-miterlimit="10" stroke-width="2"/><path fill="none" stroke="rgb(0,0,0)" paint-order="fill stroke markers" d=" M 474.5603157575537 278.444826025515 L 389.6806931992516 278.444826025515" stroke-opacity="1" stroke-linecap="round" stroke-linejoin="round" stroke-miterlimit="10" stroke-width="2"/><path fill="none" stroke="rgb(0,0,0)" paint-order="fill stroke markers" d=" M 389.6806931992516 278.444826025515 L 389.6806931992516 193.56520346721302" stroke-opacity="1" stroke-linecap="round" stroke-linejoin="round" stroke-miterlimit="10" stroke-width="2"/><path fill="none" stroke="rgb(0,0,0)" paint-order="fill stroke markers" d=" M 474.5603157575537 108.68558090891102 L 559.4399383158559 108.68558090891102" stroke-opacity="1" stroke-linecap="round" stroke-linejoin="round" stroke-miterlimit="10" stroke-width="2"/><path fill="none" stroke="rgb(0,0,0)" paint-order="fill stroke markers" d=" M 559.4399383158559 108.68558090891102 L 559.4399383158559 193.565203467213" stroke-opacity="1" stroke-linecap="round" stroke-linejoin="round" stroke-miterlimit="10" stroke-width="2"/><path fill="none" stroke="rgb(0,0,0)" paint-order="fill stroke markers" d=" M 559.4399383158559 193.565203467213 L 474.5603157575537 193.565203467213" stroke-opacity="1" stroke-linecap="round" stroke-linejoin="round" stroke-miterlimit="10" stroke-width="2"/><path fill="none" stroke="rgb(0,0,0)" paint-order="fill stroke markers" d=" M 474.5603157575537 193.565203467213 L 474.5603157575537 108.68558090891102" stroke-opacity="1" stroke-linecap="round" stroke-linejoin="round" stroke-miterlimit="10" stroke-width="2"/><path fill="none" stroke="rgb(0,0,0)" paint-order="fill stroke markers" d=" M 559.4399383158559 193.565203467213 L 644.319560874158 193.565203467213" stroke-opacity="1" stroke-linecap="round" stroke-linejoin="round" stroke-miterlimit="10" stroke-width="2"/><path fill="none" stroke="rgb(0,0,0)" paint-order="fill stroke markers" d=" M 644.319560874158 193.565203467213 L 644.319560874158 278.444826025515" stroke-opacity="1" stroke-linecap="round" stroke-linejoin="round" stroke-miterlimit="10" stroke-width="2"/><path fill="none" stroke="rgb(0,0,0)" paint-order="fill stroke markers" d=" M 644.319560874158 278.444826025515 L 559.4399383158559 278.444826025515" stroke-opacity="1" stroke-linecap="round" stroke-linejoin="round" stroke-miterlimit="10" stroke-width="2"/><path fill="none" stroke="rgb(0,0,0)" paint-order="fill stroke markers" d=" M 559.4399383158559 278.444826025515 L 559.4399383158559 193.565203467213" stroke-opacity="1" stroke-linecap="round" stroke-linejoin="round" stroke-miterlimit="10" stroke-width="2"/><path fill="none" stroke="rgb(0,0,0)" paint-order="fill stroke markers" d=" M 474.5603157575537 193.565203467213 L 559.4399383158559 193.565203467213" stroke-opacity="1" stroke-linecap="round" stroke-linejoin="round" stroke-miterlimit="10"/><path fill="none" stroke="rgb(0,0,0)" paint-order="fill stroke markers" d=" M 559.4399383158559 193.565203467213 L 559.4399383158559 278.444826025515" stroke-opacity="1" stroke-linecap="round" stroke-linejoin="round" stroke-miterlimit="10"/><path fill="none" stroke="rgb(0,0,0)" paint-order="fill stroke markers" d=" M 559.4399383158559 278.444826025515 L 474.5603157575537 278.444826025515" stroke-opacity="1" stroke-linecap="round" stroke-linejoin="round" stroke-miterlimit="10"/><path fill="none" stroke="rgb(0,0,0)" paint-order="fill stroke markers" d=" M 474.5603157575537 278.444826025515 L 474.5603157575537 193.565203467213" stroke-opacity="1" stroke-linecap="round" stroke-linejoin="round" stroke-miterlimit="10"/><path fill="none" stroke="rgb(0,0,0)" paint-order="fill stroke markers" d=" M 474.5603157575537 278.444826025515 L 559.4399383158559 278.444826025515" stroke-opacity="1" stroke-linecap="round" stroke-linejoin="round" stroke-miterlimit="10" stroke-width="2"/><path fill="none" stroke="rgb(0,0,0)" paint-order="fill stroke markers" d=" M 559.4399383158559 278.444826025515 L 559.4399383158558 363.324448583817" stroke-opacity="1" stroke-linecap="round" stroke-linejoin="round" stroke-miterlimit="10" stroke-width="2"/><path fill="none" stroke="rgb(0,0,0)" paint-order="fill stroke markers" d=" M 559.4399383158558 363.324448583817 L 474.5603157575537 363.324448583817" stroke-opacity="1" stroke-linecap="round" stroke-linejoin="round" stroke-miterlimit="10" stroke-width="2"/><path fill="none" stroke="rgb(0,0,0)" paint-order="fill stroke markers" d=" M 474.5603157575537 363.324448583817 L 474.5603157575537 278.444826025515" stroke-opacity="1" stroke-linecap="round" stroke-linejoin="round" stroke-miterlimit="10" stroke-width="2"/><path fill="none" stroke="rgb(0,0,0)" paint-order="fill stroke markers" d=" M 474.5603157575537 363.324448583817 L 559.4399383158558 363.324448583817" stroke-opacity="1" stroke-linecap="round" stroke-linejoin="round" stroke-miterlimit="10" stroke-width="2"/><path fill="none" stroke="rgb(0,0,0)" paint-order="fill stroke markers" d=" M 559.4399383158558 363.324448583817 L 559.4399383158559 448.20407114211895" stroke-opacity="1" stroke-linecap="round" stroke-linejoin="round" stroke-miterlimit="10" stroke-width="2"/><path fill="none" stroke="rgb(0,0,0)" paint-order="fill stroke markers" d=" M 559.4399383158559 448.20407114211895 L 474.5603157575537 448.20407114211895" stroke-opacity="1" stroke-linecap="round" stroke-linejoin="round" stroke-miterlimit="10" stroke-width="2"/><path fill="none" stroke="rgb(0,0,0)" paint-order="fill stroke markers" d=" M 474.5603157575537 448.20407114211895 L 474.5603157575537 363.324448583817" stroke-opacity="1" stroke-linecap="round" stroke-linejoin="round" stroke-miterlimit="10" stroke-width="2"/><path fill="none" stroke="rgb(0,0,0)" paint-order="fill stroke markers" d=" M 389.6806931992516 193.56520346721302 L 474.5603157575537 193.565203467213" stroke-opacity="1" stroke-linecap="round" stroke-linejoin="round" stroke-miterlimit="10"/><path fill="none" stroke="rgb(0,0,0)" paint-order="fill stroke markers" d=" M 474.5603157575537 193.565203467213 L 474.5603157575537 108.68558090891102" stroke-opacity="1" stroke-linecap="round" stroke-linejoin="round" stroke-miterlimit="10"/><path fill="none" stroke="rgb(0,0,0)" paint-order="fill stroke markers" d=" M 474.5603157575537 108.68558090891102 L 559.4399383158559 108.68558090891102" stroke-opacity="1" stroke-linecap="round" stroke-linejoin="round" stroke-miterlimit="10"/><path fill="none" stroke="rgb(0,0,0)" paint-order="fill stroke markers" d=" M 559.4399383158559 108.68558090891102 L 559.4399383158559 193.565203467213" stroke-opacity="1" stroke-linecap="round" stroke-linejoin="round" stroke-miterlimit="10"/><path fill="none" stroke="rgb(0,0,0)" paint-order="fill stroke markers" d=" M 559.4399383158559 193.565203467213 L 644.319560874158 193.565203467213" stroke-opacity="1" stroke-linecap="round" stroke-linejoin="round" stroke-miterlimit="10"/><path fill="none" stroke="rgb(0,0,0)" paint-order="fill stroke markers" d=" M 644.319560874158 193.565203467213 L 644.319560874158 278.444826025515" stroke-opacity="1" stroke-linecap="round" stroke-linejoin="round" stroke-miterlimit="10"/><path fill="none" stroke="rgb(0,0,0)" paint-order="fill stroke markers" d=" M 644.319560874158 278.444826025515 L 559.4399383158559 278.444826025515" stroke-opacity="1" stroke-linecap="round" stroke-linejoin="round" stroke-miterlimit="10"/><path fill="none" stroke="rgb(0,0,0)" paint-order="fill stroke markers" d=" M 559.4399383158559 278.444826025515 L 559.4399383158559 448.20407114211895" stroke-opacity="1" stroke-linecap="round" stroke-linejoin="round" stroke-miterlimit="10"/><path fill="none" stroke="rgb(0,0,0)" paint-order="fill stroke markers" d=" M 559.4399383158559 448.20407114211895 L 474.5603157575537 448.20407114211895" stroke-opacity="1" stroke-linecap="round" stroke-linejoin="round" stroke-miterlimit="10"/><path fill="none" stroke="rgb(0,0,0)" paint-order="fill stroke markers" d=" M 474.5603157575537 448.20407114211895 L 474.5603157575537 278.444826025515" stroke-opacity="1" stroke-linecap="round" stroke-linejoin="round" stroke-miterlimit="10"/><path fill="none" stroke="rgb(0,0,0)" paint-order="fill stroke markers" d=" M 474.5603157575537 278.444826025515 L 389.6806931992516 278.444826025515" stroke-opacity="1" stroke-linecap="round" stroke-linejoin="round" stroke-miterlimit="10"/><path fill="none" stroke="rgb(0,0,0)" paint-order="fill stroke markers" d=" M 389.6806931992516 278.444826025515 L 389.6806931992516 193.56520346721302" stroke-opacity="1" stroke-linecap="round" stroke-linejoin="round" stroke-miterlimit="10"/><path fill="none" stroke="rgb(0,0,0)" paint-order="fill stroke markers" d=" M 53.5 36.5 L 153.5 36.5" stroke-opacity="0.39215686274509803" stroke-linecap="round" stroke-linejoin="round" stroke-miterlimit="10"/><path fill="rgb(0,0,0)" stroke="none" paint-order="stroke fill markers" d=" M 117.55555555555554 36.5 C 117.55555555555554 41.19442037356174 113.74997592911728 45 109.05555555555554 45 C 104.3611351819938 45 100.55555555555554 41.19442037356174 100.55555555555554 36.5 C 100.55555555555554 31.805579626438256 104.3611351819938 28 109.05555555555554 28 C 113.74997592911728 28 117.55555555555554 31.805579626438256 117.55555555555554 36.5 Z" fill-opacity="0.39215686274509803"/><path fill="none" stroke="rgb(0,0,0)" paint-order="fill stroke markers" d=" M 117.55555555555554 36.5 C 117.55555555555554 41.19442037356174 113.74997592911728 45 109.05555555555554 45 C 104.3611351819938 45 100.55555555555554 41.19442037356174 100.55555555555554 36.5 C 100.55555555555554 31.805579626438256 104.3611351819938 28 109.05555555555554 28 C 113.74997592911728 28 117.55555555555554 31.805579626438256 117.55555555555554 36.5 Z" stroke-opacity="0.39215686274509803" stroke-linecap="round" stroke-linejoin="round" stroke-miterlimit="10"/><path fill="rgb(0,0,0)" stroke="none" paint-order="stroke fill markers" d=" M 114.55555555555554 36.5 C 114.55555555555554 39.537566124069365 112.0931216796249 42 109.05555555555554 42 C 106.01798943148619 42 103.55555555555554 39.537566124069365 103.55555555555554 36.5 C 103.55555555555554 33.462433875930635 106.01798943148619 31 109.05555555555554 31 C 112.0931216796249 31 114.55555555555554 33.462433875930635 114.55555555555554 36.5 Z" fill-opacity="1"/><path fill="none" stroke="rgb(0,0,0)" paint-order="fill stroke markers" d=" M 114.55555555555554 36.5 C 114.55555555555554 39.537566124069365 112.0931216796249 42 109.05555555555554 42 C 106.01798943148619 42 103.55555555555554 39.537566124069365 103.55555555555554 36.5 C 103.55555555555554 33.462433875930635 106.01798943148619 31 109.05555555555554 31 C 112.0931216796249 31 114.55555555555554 33.462433875930635 114.55555555555554 36.5 Z" stroke-opacity="1" stroke-linecap="round" stroke-linejoin="round" stroke-miterlimit="10"/><text fill="rgb(0,0,0)" stroke="none" font-family="geogebra-sans-serif, sans-serif" font-size="16px" font-style="normal" font-weight="normal" text-decoration="normal" x="98" y="19" text-anchor="start" dominant-baseline="alphabetic" fill-opacity="1">length = 6</text><text fill="none" stroke="rgb(255,255,255)" font-family="geogebra-sans-serif, sans-serif" font-size="16px" font-style="normal" font-weight="normal" text-decoration="normal" x="98" y="19" text-anchor="start" dominant-baseline="alphabetic" stroke-opacity="1" stroke-linejoin="bevel" stroke-miterlimit="10" stroke-width="3">length = 6</text><text fill="rgb(0,0,0)" stroke="none" font-family="geogebra-sans-serif, sans-serif" font-size="16px" font-style="normal" font-weight="normal" text-decoration="normal" x="98" y="19" text-anchor="start" dominant-baseline="alphabetic" fill-opacity="1">length = 6</text><path fill="none" stroke="rgb(0,0,0)" paint-order="fill stroke markers" d=" M 53.5 84.5 L 153.5 84.5" stroke-opacity="0.39215686274509803" stroke-linecap="round" stroke-linejoin="round" stroke-miterlimit="10"/><path fill="rgb(0,0,0)" stroke="none" paint-order="stroke fill markers" d=" M 117.55555555555554 84.5 C 117.55555555555554 89.19442037356174 113.74997592911728 93 109.05555555555554 93 C 104.3611351819938 93 100.55555555555554 89.19442037356174 100.55555555555554 84.5 C 100.55555555555554 79.80557962643826 104.3611351819938 76 109.05555555555554 76 C 113.74997592911728 76 117.55555555555554 79.80557962643826 117.55555555555554 84.5 Z" fill-opacity="0.39215686274509803"/><path fill="none" stroke="rgb(0,0,0)" paint-order="fill stroke markers" d=" M 117.55555555555554 84.5 C 117.55555555555554 89.19442037356174 113.74997592911728 93 109.05555555555554 93 C 104.3611351819938 93 100.55555555555554 89.19442037356174 100.55555555555554 84.5 C 100.55555555555554 79.80557962643826 104.3611351819938 76 109.05555555555554 76 C 113.74997592911728 76 117.55555555555554 79.80557962643826 117.55555555555554 84.5 Z" stroke-opacity="0.39215686274509803" stroke-linecap="round" stroke-linejoin="round" stroke-miterlimit="10"/><path fill="rgb(0,0,0)" stroke="none" paint-order="stroke fill markers" d=" M 114.55555555555554 84.5 C 114.55555555555554 87.53756612406936 112.0931216796249 90 109.05555555555554 90 C 106.01798943148619 90 103.55555555555554 87.53756612406936 103.55555555555554 84.5 C 103.55555555555554 81.46243387593064 106.01798943148619 79 109.05555555555554 79 C 112.0931216796249 79 114.55555555555554 81.46243387593064 114.55555555555554 84.5 Z" fill-opacity="1"/><path fill="none" stroke="rgb(0,0,0)" paint-order="fill stroke markers" d=" M 114.55555555555554 84.5 C 114.55555555555554 87.53756612406936 112.0931216796249 90 109.05555555555554 90 C 106.01798943148619 90 103.55555555555554 87.53756612406936 103.55555555555554 84.5 C 103.55555555555554 81.46243387593064 106.01798943148619 79 109.05555555555554 79 C 112.0931216796249 79 114.55555555555554 81.46243387593064 114.55555555555554 84.5 Z" stroke-opacity="1" stroke-linecap="round" stroke-linejoin="round" stroke-miterlimit="10"/><text fill="rgb(0,0,0)" stroke="none" font-family="geogebra-sans-serif, sans-serif" font-size="16px" font-style="normal" font-weight="normal" text-decoration="normal" x="38" y="81" text-anchor="start" dominant-baseline="alphabetic" fill-opacity="1">width = 6</text><text fill="none" stroke="rgb(255,255,255)" font-family="geogebra-sans-serif, sans-serif" font-size="16px" font-style="normal" font-weight="normal" text-decoration="normal" x="38" y="81" text-anchor="start" dominant-baseline="alphabetic" stroke-opacity="1" stroke-linejoin="bevel" stroke-miterlimit="10" stroke-width="3">width = 6</text><text fill="rgb(0,0,0)" stroke="none" font-family="geogebra-sans-serif, sans-serif" font-size="16px" font-style="normal" font-weight="normal" text-decoration="normal" x="38" y="81" text-anchor="start" dominant-baseline="alphabetic" fill-opacity="1">width = 6</text><path fill="none" stroke="rgb(0,0,0)" paint-order="fill stroke markers" d=" M 53.5 132.5 L 153.5 132.5" stroke-opacity="0.39215686274509803" stroke-linecap="round" stroke-linejoin="round" stroke-miterlimit="10"/><path fill="rgb(0,0,0)" stroke="none" paint-order="stroke fill markers" d=" M 117.55555555555554 132.5 C 117.55555555555554 137.19442037356174 113.74997592911728 141 109.05555555555554 141 C 104.3611351819938 141 100.55555555555554 137.19442037356174 100.55555555555554 132.5 C 100.55555555555554 127.80557962643826 104.3611351819938 124 109.05555555555554 124 C 113.74997592911728 124 117.55555555555554 127.80557962643826 117.55555555555554 132.5 Z" fill-opacity="0.39215686274509803"/><path fill="none" stroke="rgb(0,0,0)" paint-order="fill stroke markers" d=" M 117.55555555555554 132.5 C 117.55555555555554 137.19442037356174 113.74997592911728 141 109.05555555555554 141 C 104.3611351819938 141 100.55555555555554 137.19442037356174 100.55555555555554 132.5 C 100.55555555555554 127.80557962643826 104.3611351819938 124 109.05555555555554 124 C 113.74997592911728 124 117.55555555555554 127.80557962643826 117.55555555555554 132.5 Z" stroke-opacity="0.39215686274509803" stroke-linecap="round" stroke-linejoin="round" stroke-miterlimit="10"/><path fill="rgb(0,0,0)" stroke="none" paint-order="stroke fill markers" d=" M 114.55555555555554 132.5 C 114.55555555555554 135.53756612406937 112.0931216796249 138 109.05555555555554 138 C 106.01798943148619 138 103.55555555555554 135.53756612406937 103.55555555555554 132.5 C 103.55555555555554 129.46243387593063 106.01798943148619 127 109.05555555555554 127 C 112.0931216796249 127 114.55555555555554 129.46243387593063 114.55555555555554 132.5 Z" fill-opacity="1"/><path fill="none" stroke="rgb(0,0,0)" paint-order="fill stroke markers" d=" M 114.55555555555554 132.5 C 114.55555555555554 135.53756612406937 112.0931216796249 138 109.05555555555554 138 C 106.01798943148619 138 103.55555555555554 135.53756612406937 103.55555555555554 132.5 C 103.55555555555554 129.46243387593063 106.01798943148619 127 109.05555555555554 127 C 112.0931216796249 127 114.55555555555554 129.46243387593063 114.55555555555554 132.5 Z" stroke-opacity="1" stroke-linecap="round" stroke-linejoin="round" stroke-miterlimit="10"/><text fill="rgb(0,0,0)" stroke="none" font-family="geogebra-sans-serif, sans-serif" font-size="16px" font-style="normal" font-weight="normal" text-decoration="normal" x="98" y="117" text-anchor="start" dominant-baseline="alphabetic" fill-opacity="1">height = 6</text><text fill="none" stroke="rgb(255,255,255)" font-family="geogebra-sans-serif, sans-serif" font-size="16px" font-style="normal" font-weight="normal" text-decoration="normal" x="98" y="117" text-anchor="start" dominant-baseline="alphabetic" stroke-opacity="1" stroke-linejoin="bevel" stroke-miterlimit="10" stroke-width="3">height = 6</text><text fill="rgb(0,0,0)" stroke="none" font-family="geogebra-sans-serif, sans-serif" font-size="16px" font-style="normal" font-weight="normal" text-decoration="normal" x="98" y="117" text-anchor="start" dominant-baseline="alphabetic" fill-opacity="1">height = 6</text><text fill="rgb(0,0,0)" stroke="none" font-family="geogebra-sans-serif, sans-serif" font-size="16px" font-style="normal" font-weight="normal" text-decoration="normal" x="674" y="49" text-anchor="start" dominant-baseline="alphabetic" fill-opacity="1">Surface Area = 216</text></g></g></svg>