<svg version="1.1" xmlns="http://www.w3.org/2000/svg" xmlns:xlink="http://www.w3.org/1999/xlink" width="297" height="385"><defs><clipPath id="goRHTLaNdXMh"><path fill="none" stroke="none" d=" M 0 0 L 297 0 L 297 385 L 0 385 L 0 0 Z"/></clipPath></defs><g transform="scale(1,1)" clip-path="url(#goRHTLaNdXMh)"><g transform="translate(-404,-120)"><rect fill="rgb(255,255,255)" stroke="none" x="0" y="0" width="1142" height="554" fill-opacity="1"/><path fill="none" stroke="rgb(0,0,0)" paint-order="fill stroke markers" d=" M 435.82729695896865 211.56520346721305 L 506.5603157575537 211.56520346721302" stroke-opacity="1" stroke-linecap="round" stroke-linejoin="round" stroke-miterlimit="10" stroke-width="2"/><path fill="none" stroke="rgb(0,0,0)" paint-order="fill stroke markers" d=" M 506.5603157575537 211.56520346721302 L 506.5603157575537 310.59142978523204" stroke-opacity="1" stroke-linecap="round" stroke-linejoin="round" stroke-miterlimit="10" stroke-width="2"/><path fill="none" stroke="rgb(0,0,0)" paint-order="fill stroke markers" d=" M 506.5603157575537 310.59142978523204 L 435.82729695896865 310.591429785232" stroke-opacity="1" stroke-linecap="round" stroke-linejoin="round" stroke-miterlimit="10" stroke-width="2"/><path fill="none" stroke="rgb(0,0,0)" paint-order="fill stroke markers" d=" M 435.82729695896865 310.591429785232 L 435.82729695896865 211.56520346721305" stroke-opacity="1" stroke-linecap="round" stroke-linejoin="round" stroke-miterlimit="10" stroke-width="2"/><path fill="none" stroke="rgb(0,0,0)" paint-order="fill stroke markers" d=" M 506.5603157575538 140.83218466862803 L 605.5865420755729 140.83218466862803" stroke-opacity="1" stroke-linecap="round" stroke-linejoin="round" stroke-miterlimit="10" stroke-width="2"/><path fill="none" stroke="rgb(0,0,0)" paint-order="fill stroke markers" d=" M 605.5865420755729 140.83218466862803 L 605.5865420755729 211.56520346721302" stroke-opacity="1" stroke-linecap="round" stroke-linejoin="round" stroke-miterlimit="10" stroke-width="2"/><path fill="none" stroke="rgb(0,0,0)" paint-order="fill stroke markers" d=" M 605.5865420755729 211.56520346721302 L 506.5603157575537 211.56520346721302" stroke-opacity="1" stroke-linecap="round" stroke-linejoin="round" stroke-miterlimit="10" stroke-width="2"/><path fill="none" stroke="rgb(0,0,0)" paint-order="fill stroke markers" d=" M 506.5603157575537 211.56520346721302 L 506.5603157575538 140.83218466862803" stroke-opacity="1" stroke-linecap="round" stroke-linejoin="round" stroke-miterlimit="10" stroke-width="2"/><path fill="none" stroke="rgb(0,0,0)" paint-order="fill stroke markers" d=" M 605.5865420755729 211.56520346721302 L 676.319560874158 211.56520346721302" stroke-opacity="1" stroke-linecap="round" stroke-linejoin="round" stroke-miterlimit="10" stroke-width="2"/><path fill="none" stroke="rgb(0,0,0)" paint-order="fill stroke markers" d=" M 676.319560874158 211.56520346721302 L 676.319560874158 310.591429785232" stroke-opacity="1" stroke-linecap="round" stroke-linejoin="round" stroke-miterlimit="10" stroke-width="2"/><path fill="none" stroke="rgb(0,0,0)" paint-order="fill stroke markers" d=" M 676.319560874158 310.591429785232 L 605.5865420755729 310.59142978523204" stroke-opacity="1" stroke-linecap="round" stroke-linejoin="round" stroke-miterlimit="10" stroke-width="2"/><path fill="none" stroke="rgb(0,0,0)" paint-order="fill stroke markers" d=" M 605.5865420755729 310.59142978523204 L 605.5865420755729 211.56520346721302" stroke-opacity="1" stroke-linecap="round" stroke-linejoin="round" stroke-miterlimit="10" stroke-width="2"/><path fill="none" stroke="rgb(0,0,0)" paint-order="fill stroke markers" d=" M 506.5603157575537 211.56520346721302 L 605.5865420755729 211.56520346721302" stroke-opacity="1" stroke-linecap="round" stroke-linejoin="round" stroke-miterlimit="10"/><path fill="none" stroke="rgb(0,0,0)" paint-order="fill stroke markers" d=" M 605.5865420755729 211.56520346721302 L 605.5865420755729 310.59142978523204" stroke-opacity="1" stroke-linecap="round" stroke-linejoin="round" stroke-miterlimit="10"/><path fill="none" stroke="rgb(0,0,0)" paint-order="fill stroke markers" d=" M 605.5865420755729 310.59142978523204 L 506.5603157575537 310.59142978523204" stroke-opacity="1" stroke-linecap="round" stroke-linejoin="round" stroke-miterlimit="10"/><path fill="none" stroke="rgb(0,0,0)" paint-order="fill stroke markers" d=" M 506.5603157575537 310.59142978523204 L 506.5603157575537 211.56520346721302" stroke-opacity="1" stroke-linecap="round" stroke-linejoin="round" stroke-miterlimit="10"/><path fill="none" stroke="rgb(0,0,0)" paint-order="fill stroke markers" d=" M 506.5603157575537 310.59142978523204 L 605.5865420755729 310.59142978523204" stroke-opacity="1" stroke-linecap="round" stroke-linejoin="round" stroke-miterlimit="10" stroke-width="2"/><path fill="none" stroke="rgb(0,0,0)" paint-order="fill stroke markers" d=" M 605.5865420755729 310.59142978523204 L 605.5865420755729 381.324448583817" stroke-opacity="1" stroke-linecap="round" stroke-linejoin="round" stroke-miterlimit="10" stroke-width="2"/><path fill="none" stroke="rgb(0,0,0)" paint-order="fill stroke markers" d=" M 605.5865420755729 381.324448583817 L 506.5603157575537 381.324448583817" stroke-opacity="1" stroke-linecap="round" stroke-linejoin="round" stroke-miterlimit="10" stroke-width="2"/><path fill="none" stroke="rgb(0,0,0)" paint-order="fill stroke markers" d=" M 506.5603157575537 381.324448583817 L 506.5603157575537 310.59142978523204" stroke-opacity="1" stroke-linecap="round" stroke-linejoin="round" stroke-miterlimit="10" stroke-width="2"/><path fill="none" stroke="rgb(0,0,0)" paint-order="fill stroke markers" d=" M 506.5603157575537 381.324448583817 L 605.5865420755729 381.324448583817" stroke-opacity="1" stroke-linecap="round" stroke-linejoin="round" stroke-miterlimit="10" stroke-width="2"/><path fill="none" stroke="rgb(0,0,0)" paint-order="fill stroke markers" d=" M 605.5865420755729 381.324448583817 L 605.5865420755729 480.350674901836" stroke-opacity="1" stroke-linecap="round" stroke-linejoin="round" stroke-miterlimit="10" stroke-width="2"/><path fill="none" stroke="rgb(0,0,0)" paint-order="fill stroke markers" d=" M 605.5865420755729 480.350674901836 L 506.5603157575537 480.350674901836" stroke-opacity="1" stroke-linecap="round" stroke-linejoin="round" stroke-miterlimit="10" stroke-width="2"/><path fill="none" stroke="rgb(0,0,0)" paint-order="fill stroke markers" d=" M 506.5603157575537 480.350674901836 L 506.5603157575537 381.324448583817" stroke-opacity="1" stroke-linecap="round" stroke-linejoin="round" stroke-miterlimit="10" stroke-width="2"/><path fill="none" stroke="rgb(0,0,0)" paint-order="fill stroke markers" d=" M 435.82729695896865 211.56520346721305 L 506.5603157575537 211.56520346721302" stroke-opacity="1" stroke-linecap="round" stroke-linejoin="round" stroke-miterlimit="10"/><path fill="none" stroke="rgb(0,0,0)" paint-order="fill stroke markers" d=" M 506.5603157575537 211.56520346721302 L 506.5603157575538 140.83218466862803" stroke-opacity="1" stroke-linecap="round" stroke-linejoin="round" stroke-miterlimit="10"/><path fill="none" stroke="rgb(0,0,0)" paint-order="fill stroke markers" d=" M 506.5603157575538 140.83218466862803 L 605.5865420755729 140.83218466862803" stroke-opacity="1" stroke-linecap="round" stroke-linejoin="round" stroke-miterlimit="10"/><path fill="none" stroke="rgb(0,0,0)" paint-order="fill stroke markers" d=" M 605.5865420755729 140.83218466862803 L 605.5865420755729 211.56520346721302" stroke-opacity="1" stroke-linecap="round" stroke-linejoin="round" stroke-miterlimit="10"/><path fill="none" stroke="rgb(0,0,0)" paint-order="fill stroke markers" d=" M 605.5865420755729 211.56520346721302 L 676.319560874158 211.56520346721302" stroke-opacity="1" stroke-linecap="round" stroke-linejoin="round" stroke-miterlimit="10"/><path fill="none" stroke="rgb(0,0,0)" paint-order="fill stroke markers" d=" M 676.319560874158 211.56520346721302 L 676.319560874158 310.591429785232" stroke-opacity="1" stroke-linecap="round" stroke-linejoin="round" stroke-miterlimit="10"/><path fill="none" stroke="rgb(0,0,0)" paint-order="fill stroke markers" d=" M 676.319560874158 310.591429785232 L 605.5865420755729 310.59142978523204" stroke-opacity="1" stroke-linecap="round" stroke-linejoin="round" stroke-miterlimit="10"/><path fill="none" stroke="rgb(0,0,0)" paint-order="fill stroke markers" d=" M 605.5865420755729 310.59142978523204 L 605.5865420755729 480.350674901836" stroke-opacity="1" stroke-linecap="round" stroke-linejoin="round" stroke-miterlimit="10"/><path fill="none" stroke="rgb(0,0,0)" paint-order="fill stroke markers" d=" M 605.5865420755729 480.350674901836 L 506.5603157575537 480.350674901836" stroke-opacity="1" stroke-linecap="round" stroke-linejoin="round" stroke-miterlimit="10"/><path fill="none" stroke="rgb(0,0,0)" paint-order="fill stroke markers" d=" M 506.5603157575537 480.350674901836 L 506.5603157575537 310.59142978523204" stroke-opacity="1" stroke-linecap="round" stroke-linejoin="round" stroke-miterlimit="10"/><path fill="none" stroke="rgb(0,0,0)" paint-order="fill stroke markers" d=" M 506.5603157575537 310.59142978523204 L 435.82729695896865 310.591429785232" stroke-opacity="1" stroke-linecap="round" stroke-linejoin="round" stroke-miterlimit="10"/><path fill="none" stroke="rgb(0,0,0)" paint-order="fill stroke markers" d=" M 435.82729695896865 310.591429785232 L 435.82729695896865 211.56520346721305" stroke-opacity="1" stroke-linecap="round" stroke-linejoin="round" stroke-miterlimit="10"/><path fill="none" stroke="rgb(0,0,0)" paint-order="fill stroke markers" d=" M 53.5 36.5 L 153.5 36.5" stroke-opacity="0.39215686274509803" stroke-linecap="round" stroke-linejoin="round" stroke-miterlimit="10"/><path fill="rgb(0,0,0)" stroke="none" paint-order="stroke fill markers" d=" M 128.66666666666669 36.5 C 128.66666666666669 41.19442037356174 124.86108704022843 45 120.16666666666669 45 C 115.47224629310494 45 111.66666666666669 41.19442037356174 111.66666666666669 36.5 C 111.66666666666669 31.805579626438256 115.47224629310494 28 120.16666666666669 28 C 124.86108704022843 28 128.66666666666669 31.805579626438256 128.66666666666669 36.5 Z" fill-opacity="0.39215686274509803"/><path fill="none" stroke="rgb(0,0,0)" paint-order="fill stroke markers" d=" M 128.66666666666669 36.5 C 128.66666666666669 41.19442037356174 124.86108704022843 45 120.16666666666669 45 C 115.47224629310494 45 111.66666666666669 41.19442037356174 111.66666666666669 36.5 C 111.66666666666669 31.805579626438256 115.47224629310494 28 120.16666666666669 28 C 124.86108704022843 28 128.66666666666669 31.805579626438256 128.66666666666669 36.5 Z" stroke-opacity="0.39215686274509803" stroke-linecap="round" stroke-linejoin="round" stroke-miterlimit="10"/><path fill="rgb(0,0,0)" stroke="none" paint-order="stroke fill markers" d=" M 125.66666666666669 36.5 C 125.66666666666669 39.537566124069365 123.20423279073604 42 120.16666666666669 42 C 117.12910054259733 42 114.66666666666669 39.537566124069365 114.66666666666669 36.5 C 114.66666666666669 33.462433875930635 117.12910054259733 31 120.16666666666669 31 C 123.20423279073604 31 125.66666666666669 33.462433875930635 125.66666666666669 36.5 Z" fill-opacity="1"/><path fill="none" stroke="rgb(0,0,0)" paint-order="fill stroke markers" d=" M 125.66666666666669 36.5 C 125.66666666666669 39.537566124069365 123.20423279073604 42 120.16666666666669 42 C 117.12910054259733 42 114.66666666666669 39.537566124069365 114.66666666666669 36.5 C 114.66666666666669 33.462433875930635 117.12910054259733 31 120.16666666666669 31 C 123.20423279073604 31 125.66666666666669 33.462433875930635 125.66666666666669 36.5 Z" stroke-opacity="1" stroke-linecap="round" stroke-linejoin="round" stroke-miterlimit="10"/><text fill="rgb(0,0,0)" stroke="none" font-family="geogebra-sans-serif, sans-serif" font-size="16px" font-style="normal" font-weight="normal" text-decoration="normal" x="109" y="21" text-anchor="start" dominant-baseline="alphabetic" fill-opacity="1">length = 7</text><text fill="none" stroke="rgb(255,255,255)" font-family="geogebra-sans-serif, sans-serif" font-size="16px" font-style="normal" font-weight="normal" text-decoration="normal" x="109" y="21" text-anchor="start" dominant-baseline="alphabetic" stroke-opacity="1" stroke-linejoin="bevel" stroke-miterlimit="10" stroke-width="3">length = 7</text><text fill="rgb(0,0,0)" stroke="none" font-family="geogebra-sans-serif, sans-serif" font-size="16px" font-style="normal" font-weight="normal" text-decoration="normal" x="109" y="21" text-anchor="start" dominant-baseline="alphabetic" fill-opacity="1">length = 7</text><path fill="none" stroke="rgb(0,0,0)" paint-order="fill stroke markers" d=" M 53.5 84.5 L 153.5 84.5" stroke-opacity="0.39215686274509803" stroke-linecap="round" stroke-linejoin="round" stroke-miterlimit="10"/><path fill="rgb(0,0,0)" stroke="none" paint-order="stroke fill markers" d=" M 128.66666666666669 84.5 C 128.66666666666669 89.19442037356174 124.86108704022843 93 120.16666666666669 93 C 115.47224629310494 93 111.66666666666669 89.19442037356174 111.66666666666669 84.5 C 111.66666666666669 79.80557962643826 115.47224629310494 76 120.16666666666669 76 C 124.86108704022843 76 128.66666666666669 79.80557962643826 128.66666666666669 84.5 Z" fill-opacity="0.39215686274509803"/><path fill="none" stroke="rgb(0,0,0)" paint-order="fill stroke markers" d=" M 128.66666666666669 84.5 C 128.66666666666669 89.19442037356174 124.86108704022843 93 120.16666666666669 93 C 115.47224629310494 93 111.66666666666669 89.19442037356174 111.66666666666669 84.5 C 111.66666666666669 79.80557962643826 115.47224629310494 76 120.16666666666669 76 C 124.86108704022843 76 128.66666666666669 79.80557962643826 128.66666666666669 84.5 Z" stroke-opacity="0.39215686274509803" stroke-linecap="round" stroke-linejoin="round" stroke-miterlimit="10"/><path fill="rgb(0,0,0)" stroke="none" paint-order="stroke fill markers" d=" M 125.66666666666669 84.5 C 125.66666666666669 87.53756612406936 123.20423279073604 90 120.16666666666669 90 C 117.12910054259733 90 114.66666666666669 87.53756612406936 114.66666666666669 84.5 C 114.66666666666669 81.46243387593064 117.12910054259733 79 120.16666666666669 79 C 123.20423279073604 79 125.66666666666669 81.46243387593064 125.66666666666669 84.5 Z" fill-opacity="1"/><path fill="none" stroke="rgb(0,0,0)" paint-order="fill stroke markers" d=" M 125.66666666666669 84.5 C 125.66666666666669 87.53756612406936 123.20423279073604 90 120.16666666666669 90 C 117.12910054259733 90 114.66666666666669 87.53756612406936 114.66666666666669 84.5 C 114.66666666666669 81.46243387593064 117.12910054259733 79 120.16666666666669 79 C 123.20423279073604 79 125.66666666666669 81.46243387593064 125.66666666666669 84.5 Z" stroke-opacity="1" stroke-linecap="round" stroke-linejoin="round" stroke-miterlimit="10"/><text fill="rgb(0,0,0)" stroke="none" font-family="geogebra-sans-serif, sans-serif" font-size="16px" font-style="normal" font-weight="normal" text-decoration="normal" x="91" y="77" text-anchor="start" dominant-baseline="alphabetic" fill-opacity="1">width = 7</text><text fill="none" stroke="rgb(255,255,255)" font-family="geogebra-sans-serif, sans-serif" font-size="16px" font-style="normal" font-weight="normal" text-decoration="normal" x="91" y="77" text-anchor="start" dominant-baseline="alphabetic" stroke-opacity="1" stroke-linejoin="bevel" stroke-miterlimit="10" stroke-width="3">width = 7</text><text fill="rgb(0,0,0)" stroke="none" font-family="geogebra-sans-serif, sans-serif" font-size="16px" font-style="normal" font-weight="normal" text-decoration="normal" x="91" y="77" text-anchor="start" dominant-baseline="alphabetic" fill-opacity="1">width = 7</text><path fill="none" stroke="rgb(0,0,0)" paint-order="fill stroke markers" d=" M 53.5 132.5 L 153.5 132.5" stroke-opacity="0.39215686274509803" stroke-linecap="round" stroke-linejoin="round" stroke-miterlimit="10"/><path fill="rgb(0,0,0)" stroke="none" paint-order="stroke fill markers" d=" M 106.4444444444444 132.5 C 106.4444444444444 137.19442037356174 102.63886481800614 141 97.9444444444444 141 C 93.25002407088266 141 89.4444444444444 137.19442037356174 89.4444444444444 132.5 C 89.4444444444444 127.80557962643826 93.25002407088266 124 97.9444444444444 124 C 102.63886481800614 124 106.4444444444444 127.80557962643826 106.4444444444444 132.5 Z" fill-opacity="0.39215686274509803"/><path fill="none" stroke="rgb(0,0,0)" paint-order="fill stroke markers" d=" M 106.4444444444444 132.5 C 106.4444444444444 137.19442037356174 102.63886481800614 141 97.9444444444444 141 C 93.25002407088266 141 89.4444444444444 137.19442037356174 89.4444444444444 132.5 C 89.4444444444444 127.80557962643826 93.25002407088266 124 97.9444444444444 124 C 102.63886481800614 124 106.4444444444444 127.80557962643826 106.4444444444444 132.5 Z" stroke-opacity="0.39215686274509803" stroke-linecap="round" stroke-linejoin="round" stroke-miterlimit="10"/><path fill="rgb(0,0,0)" stroke="none" paint-order="stroke fill markers" d=" M 103.4444444444444 132.5 C 103.4444444444444 135.53756612406937 100.98201056851376 138 97.9444444444444 138 C 94.90687832037504 138 92.4444444444444 135.53756612406937 92.4444444444444 132.5 C 92.4444444444444 129.46243387593063 94.90687832037504 127 97.9444444444444 127 C 100.98201056851376 127 103.4444444444444 129.46243387593063 103.4444444444444 132.5 Z" fill-opacity="1"/><path fill="none" stroke="rgb(0,0,0)" paint-order="fill stroke markers" d=" M 103.4444444444444 132.5 C 103.4444444444444 135.53756612406937 100.98201056851376 138 97.9444444444444 138 C 94.90687832037504 138 92.4444444444444 135.53756612406937 92.4444444444444 132.5 C 92.4444444444444 129.46243387593063 94.90687832037504 127 97.9444444444444 127 C 100.98201056851376 127 103.4444444444444 129.46243387593063 103.4444444444444 132.5 Z" stroke-opacity="1" stroke-linecap="round" stroke-linejoin="round" stroke-miterlimit="10"/><text fill="rgb(0,0,0)" stroke="none" font-family="geogebra-sans-serif, sans-serif" font-size="16px" font-style="normal" font-weight="normal" text-decoration="normal" x="86" y="117" text-anchor="start" dominant-baseline="alphabetic" fill-opacity="1">height = 5</text><text fill="none" stroke="rgb(255,255,255)" font-family="geogebra-sans-serif, sans-serif" font-size="16px" font-style="normal" font-weight="normal" text-decoration="normal" x="86" y="117" text-anchor="start" dominant-baseline="alphabetic" stroke-opacity="1" stroke-linejoin="bevel" stroke-miterlimit="10" stroke-width="3">height = 5</text><text fill="rgb(0,0,0)" stroke="none" font-family="geogebra-sans-serif, sans-serif" font-size="16px" font-style="normal" font-weight="normal" text-decoration="normal" x="86" y="117" text-anchor="start" dominant-baseline="alphabetic" fill-opacity="1">height = 5</text><text fill="rgb(0,0,0)" stroke="none" font-family="geogebra-sans-serif, sans-serif" font-size="16px" font-style="normal" font-weight="normal" text-decoration="normal" x="706" y="67" text-anchor="start" dominant-baseline="alphabetic" fill-opacity="1">Surface Area = 238</text></g></g></svg>