<?xml version="1.0" encoding="UTF-8" standalone="no"?>
<svg
   version="1.1"
   width="435"
   height="430"
   id="svg129"
   sodipodi:docname="ppd4.svg"
   inkscape:version="1.1.1 (3bf5ae0d25, 2021-09-20)"
   xmlns:inkscape="http://www.inkscape.org/namespaces/inkscape"
   xmlns:sodipodi="http://sodipodi.sourceforge.net/DTD/sodipodi-0.dtd"
   xmlns="http://www.w3.org/2000/svg"
   xmlns:svg="http://www.w3.org/2000/svg">
  <sodipodi:namedview
     id="namedview131"
     pagecolor="#ffffff"
     bordercolor="#666666"
     borderopacity="1.0"
     inkscape:pageshadow="2"
     inkscape:pageopacity="0.0"
     inkscape:pagecheckerboard="0"
     showgrid="false"
     inkscape:zoom="1.8465116"
     inkscape:cx="209.04282"
     inkscape:cy="223.12343"
     inkscape:window-width="1920"
     inkscape:window-height="998"
     inkscape:window-x="-11"
     inkscape:window-y="-11"
     inkscape:window-maximized="1"
     inkscape:current-layer="g125" />
  <defs
     id="defs5">
    <clipPath
       id="qonMpOXzDGat">
      <path
         fill="none"
         stroke="none"
         d=" M 0 0 L 435 0 L 435 430 L 0 430 L 0 0 Z"
         id="path2" />
    </clipPath>
  </defs>
  <g
     transform="translate(23.828715,4.3324937)"
     clip-path="url(#qonMpOXzDGat)"
     id="g127">
    <g
       transform="translate(-424,-51)"
       id="g125">
      <path
         fill="#ffffff"
         stroke="none"
         paint-order="stroke fill markers"
         fill-rule="evenodd"
         d="m 44.5,587 h 21 c 1.380712,0 2.5,1.11929 2.5,2.5 v 21 c 0,1.38071 -1.119288,2.5 -2.5,2.5 h -21 c -1.380712,0 -2.5,-1.11929 -2.5,-2.5 v -21 c 0,-1.38071 1.119288,-2.5 2.5,-2.5 z"
         fill-opacity="1"
         id="path9" />
      <path
         fill="none"
         stroke="#000000"
         paint-order="fill stroke markers"
         d="m 44.5,587 h 21 c 1.380712,0 2.5,1.11929 2.5,2.5 v 21 c 0,1.38071 -1.119288,2.5 -2.5,2.5 h -21 c -1.380712,0 -2.5,-1.11929 -2.5,-2.5 v -21 c 0,-1.38071 1.119288,-2.5 2.5,-2.5 z"
         stroke-opacity="1"
         stroke-linecap="round"
         stroke-linejoin="round"
         stroke-miterlimit="10"
         id="path11" />
      <text
         fill="#000000"
         stroke="none"
         font-family="geogebra-sans-serif, sans-serif"
         font-size="20px"
         font-style="normal"
         font-weight="normal"
         text-decoration="normal"
         x="77"
         y="608"
         text-anchor="start"
         dominant-baseline="alphabetic"
         fill-opacity="1"
         id="text13">Show Perimeter of Base</text>
      <path
         fill="#ffffff"
         stroke="none"
         paint-order="stroke fill markers"
         fill-rule="evenodd"
         d="m 43.5,664 h 21 c 1.380712,0 2.5,1.11929 2.5,2.5 v 21 c 0,1.38071 -1.119288,2.5 -2.5,2.5 h -21 c -1.380712,0 -2.5,-1.11929 -2.5,-2.5 v -21 c 0,-1.38071 1.119288,-2.5 2.5,-2.5 z"
         fill-opacity="1"
         id="path15" />
      <path
         fill="none"
         stroke="#000000"
         paint-order="fill stroke markers"
         d="m 43.5,664 h 21 c 1.380712,0 2.5,1.11929 2.5,2.5 v 21 c 0,1.38071 -1.119288,2.5 -2.5,2.5 h -21 c -1.380712,0 -2.5,-1.11929 -2.5,-2.5 v -21 c 0,-1.38071 1.119288,-2.5 2.5,-2.5 z"
         stroke-opacity="1"
         stroke-linecap="round"
         stroke-linejoin="round"
         stroke-miterlimit="10"
         id="path17" />
      <text
         fill="#000000"
         stroke="none"
         font-family="geogebra-sans-serif, sans-serif"
         font-size="20px"
         font-style="normal"
         font-weight="normal"
         text-decoration="normal"
         x="76"
         y="684"
         text-anchor="start"
         dominant-baseline="alphabetic"
         fill-opacity="1"
         id="text19">Show the Height of Prism</text>
      <path
         fill="#ffffff"
         stroke="none"
         paint-order="stroke fill markers"
         fill-rule="evenodd"
         d="m 183.5,461 h 21 c 1.38071,0 2.5,1.11929 2.5,2.5 v 21 c 0,1.38071 -1.11929,2.5 -2.5,2.5 h -21 c -1.38071,0 -2.5,-1.11929 -2.5,-2.5 v -21 c 0,-1.38071 1.11929,-2.5 2.5,-2.5 z"
         fill-opacity="1"
         id="path21" />
      <path
         fill="none"
         stroke="#000000"
         paint-order="fill stroke markers"
         d="m 183.5,461 h 21 c 1.38071,0 2.5,1.11929 2.5,2.5 v 21 c 0,1.38071 -1.11929,2.5 -2.5,2.5 h -21 c -1.38071,0 -2.5,-1.11929 -2.5,-2.5 v -21 c 0,-1.38071 1.11929,-2.5 2.5,-2.5 z"
         stroke-opacity="1"
         stroke-linecap="round"
         stroke-linejoin="round"
         stroke-miterlimit="10"
         id="path23" />
      <text
         fill="#ff0000"
         stroke="none"
         font-family="geogebra-sans-serif, sans-serif"
         font-size="20px"
         font-style="normal"
         font-weight="normal"
         text-decoration="normal"
         x="216"
         y="482"
         text-anchor="start"
         dominant-baseline="alphabetic"
         fill-opacity="1"
         id="text25">Start</text>
      <path
         fill="none"
         stroke="#666666"
         paint-order="fill stroke markers"
         d="m 426.13196,259.92145 119.91202,50.44456"
         stroke-opacity="1"
         stroke-linecap="round"
         stroke-linejoin="round"
         stroke-miterlimit="10"
         id="path39"
         sodipodi:nodetypes="cc"
         style="stroke-width:2;stroke-miterlimit:10;stroke-dasharray:none" />
      <path
         fill="none"
         stroke="#666666"
         paint-order="fill stroke markers"
         d="M 546.04398,310.36601 V 212.26402"
         stroke-opacity="1"
         stroke-linecap="round"
         stroke-linejoin="round"
         stroke-miterlimit="10"
         id="path41"
         sodipodi:nodetypes="cc"
         style="stroke-width:2;stroke-miterlimit:10;stroke-dasharray:none" />
      <path
         fill="none"
         stroke="#666666"
         paint-order="fill stroke markers"
         d="M 546.04398,212.26402 426.13196,259.92145"
         stroke-opacity="1"
         stroke-linecap="round"
         stroke-linejoin="round"
         stroke-miterlimit="10"
         id="path43"
         sodipodi:nodetypes="cc"
         style="stroke-width:2;stroke-miterlimit:10;stroke-dasharray:none" />
      <path
         fill="none"
         stroke="#666666"
         paint-order="fill stroke markers"
         d="M 546.04398,310.36601 V 212.26402"
         stroke-opacity="1"
         stroke-linecap="round"
         stroke-linejoin="round"
         stroke-miterlimit="10"
         id="path67"
         sodipodi:nodetypes="cc"
         style="stroke-width:2;stroke-miterlimit:10;stroke-dasharray:none" />
      <path
         fill="none"
         stroke="#006400"
         paint-order="fill stroke markers"
         d="m 137.5,522.5 h 180"
         stroke-opacity="0.2"
         stroke-linecap="round"
         stroke-linejoin="round"
         stroke-miterlimit="10"
         stroke-width="5"
         id="path75" />
      <path
         fill="#006400"
         stroke="none"
         paint-order="stroke fill markers"
         d="m 146,522.5 c 0,4.69442 -3.80558,8.5 -8.5,8.5 -4.69442,0 -8.5,-3.80558 -8.5,-8.5 0,-4.69442 3.80558,-8.5 8.5,-8.5 4.69442,0 8.5,3.80558 8.5,8.5 z"
         fill-opacity="0.2"
         id="path77" />
      <path
         fill="none"
         stroke="#006400"
         paint-order="fill stroke markers"
         d="m 146,522.5 c 0,4.69442 -3.80558,8.5 -8.5,8.5 -4.69442,0 -8.5,-3.80558 -8.5,-8.5 0,-4.69442 3.80558,-8.5 8.5,-8.5 4.69442,0 8.5,3.80558 8.5,8.5 z"
         stroke-opacity="0.2"
         stroke-linecap="round"
         stroke-linejoin="round"
         stroke-miterlimit="10"
         id="path79" />
      <path
         fill="#006400"
         stroke="none"
         paint-order="stroke fill markers"
         d="m 143,522.5 c 0,3.03757 -2.46243,5.5 -5.5,5.5 -3.03757,0 -5.5,-2.46243 -5.5,-5.5 0,-3.03757 2.46243,-5.5 5.5,-5.5 3.03757,0 5.5,2.46243 5.5,5.5 z"
         fill-opacity="1"
         id="path81" />
      <path
         fill="none"
         stroke="#000000"
         paint-order="fill stroke markers"
         d="m 143,522.5 c 0,3.03757 -2.46243,5.5 -5.5,5.5 -3.03757,0 -5.5,-2.46243 -5.5,-5.5 0,-3.03757 2.46243,-5.5 5.5,-5.5 3.03757,0 5.5,2.46243 5.5,5.5 z"
         stroke-opacity="1"
         stroke-linecap="round"
         stroke-linejoin="round"
         stroke-miterlimit="10"
         id="path83" />
      <path
         fill="none"
         stroke="#000000"
         paint-order="fill stroke markers"
         d="m 98.5,119.5 h 200"
         stroke-opacity="0.392157"
         stroke-linecap="round"
         stroke-linejoin="round"
         stroke-miterlimit="10"
         stroke-width="5"
         id="path85" />
      <path
         fill="#000000"
         stroke="none"
         paint-order="stroke fill markers"
         d="m 197,119.5 c 0,4.69442 -3.80558,8.5 -8.5,8.5 -4.69442,0 -8.5,-3.80558 -8.5,-8.5 0,-4.69442 3.80558,-8.5 8.5,-8.5 4.69442,0 8.5,3.80558 8.5,8.5 z"
         fill-opacity="0.392157"
         id="path87" />
      <path
         fill="none"
         stroke="#000000"
         paint-order="fill stroke markers"
         d="m 197,119.5 c 0,4.69442 -3.80558,8.5 -8.5,8.5 -4.69442,0 -8.5,-3.80558 -8.5,-8.5 0,-4.69442 3.80558,-8.5 8.5,-8.5 4.69442,0 8.5,3.80558 8.5,8.5 z"
         stroke-opacity="0.392157"
         stroke-linecap="round"
         stroke-linejoin="round"
         stroke-miterlimit="10"
         id="path89" />
      <path
         fill="#000000"
         stroke="none"
         paint-order="stroke fill markers"
         d="m 194,119.5 c 0,3.03757 -2.46243,5.5 -5.5,5.5 -3.03757,0 -5.5,-2.46243 -5.5,-5.5 0,-3.03757 2.46243,-5.5 5.5,-5.5 3.03757,0 5.5,2.46243 5.5,5.5 z"
         fill-opacity="1"
         id="path91" />
      <path
         fill="none"
         stroke="#000000"
         paint-order="fill stroke markers"
         d="m 194,119.5 c 0,3.03757 -2.46243,5.5 -5.5,5.5 -3.03757,0 -5.5,-2.46243 -5.5,-5.5 0,-3.03757 2.46243,-5.5 5.5,-5.5 3.03757,0 5.5,2.46243 5.5,5.5 z"
         stroke-opacity="1"
         stroke-linecap="round"
         stroke-linejoin="round"
         stroke-miterlimit="10"
         id="path93" />
      <path
         fill="none"
         stroke="#000000"
         paint-order="fill stroke markers"
         d="m 102.5,395.5 h 200"
         stroke-opacity="0.392157"
         stroke-linecap="round"
         stroke-linejoin="round"
         stroke-miterlimit="10"
         stroke-width="5"
         id="path95" />
      <path
         fill="#000000"
         stroke="none"
         paint-order="stroke fill markers"
         d="m 231,395.5 c 0,4.69442 -3.80558,8.5 -8.5,8.5 -4.69442,0 -8.5,-3.80558 -8.5,-8.5 0,-4.69442 3.80558,-8.5 8.5,-8.5 4.69442,0 8.5,3.80558 8.5,8.5 z"
         fill-opacity="0.392157"
         id="path97" />
      <path
         fill="none"
         stroke="#000000"
         paint-order="fill stroke markers"
         d="m 231,395.5 c 0,4.69442 -3.80558,8.5 -8.5,8.5 -4.69442,0 -8.5,-3.80558 -8.5,-8.5 0,-4.69442 3.80558,-8.5 8.5,-8.5 4.69442,0 8.5,3.80558 8.5,8.5 z"
         stroke-opacity="0.392157"
         stroke-linecap="round"
         stroke-linejoin="round"
         stroke-miterlimit="10"
         id="path99" />
      <path
         fill="#000000"
         stroke="none"
         paint-order="stroke fill markers"
         d="m 228,395.5 c 0,3.03757 -2.46243,5.5 -5.5,5.5 -3.03757,0 -5.5,-2.46243 -5.5,-5.5 0,-3.03757 2.46243,-5.5 5.5,-5.5 3.03757,0 5.5,2.46243 5.5,5.5 z"
         fill-opacity="1"
         id="path101" />
      <path
         fill="none"
         stroke="#000000"
         paint-order="fill stroke markers"
         d="m 228,395.5 c 0,3.03757 -2.46243,5.5 -5.5,5.5 -3.03757,0 -5.5,-2.46243 -5.5,-5.5 0,-3.03757 2.46243,-5.5 5.5,-5.5 3.03757,0 5.5,2.46243 5.5,5.5 z"
         stroke-opacity="1"
         stroke-linecap="round"
         stroke-linejoin="round"
         stroke-miterlimit="10"
         id="path103" />
      <path
         fill="none"
         stroke="#000000"
         paint-order="fill stroke markers"
         d="m 103.5,251.5 h 200"
         stroke-opacity="0.392157"
         stroke-linecap="round"
         stroke-linejoin="round"
         stroke-miterlimit="10"
         stroke-width="5"
         id="path105" />
      <path
         fill="#000000"
         stroke="none"
         paint-order="stroke fill markers"
         d="m 290,251.5 c 0,4.69442 -3.80558,8.5 -8.5,8.5 -4.69442,0 -8.5,-3.80558 -8.5,-8.5 0,-4.69442 3.80558,-8.5 8.5,-8.5 4.69442,0 8.5,3.80558 8.5,8.5 z"
         fill-opacity="0.392157"
         id="path107" />
      <path
         fill="none"
         stroke="#000000"
         paint-order="fill stroke markers"
         d="m 290,251.5 c 0,4.69442 -3.80558,8.5 -8.5,8.5 -4.69442,0 -8.5,-3.80558 -8.5,-8.5 0,-4.69442 3.80558,-8.5 8.5,-8.5 4.69442,0 8.5,3.80558 8.5,8.5 z"
         stroke-opacity="0.392157"
         stroke-linecap="round"
         stroke-linejoin="round"
         stroke-miterlimit="10"
         id="path109" />
      <path
         fill="#000000"
         stroke="none"
         paint-order="stroke fill markers"
         d="m 287,251.5 c 0,3.03757 -2.46243,5.5 -5.5,5.5 -3.03757,0 -5.5,-2.46243 -5.5,-5.5 0,-3.03757 2.46243,-5.5 5.5,-5.5 3.03757,0 5.5,2.46243 5.5,5.5 z"
         fill-opacity="1"
         id="path111" />
      <path
         fill="none"
         stroke="#000000"
         paint-order="fill stroke markers"
         d="m 287,251.5 c 0,3.03757 -2.46243,5.5 -5.5,5.5 -3.03757,0 -5.5,-2.46243 -5.5,-5.5 0,-3.03757 2.46243,-5.5 5.5,-5.5 3.03757,0 5.5,2.46243 5.5,5.5 z"
         stroke-opacity="1"
         stroke-linecap="round"
         stroke-linejoin="round"
         stroke-miterlimit="10"
         id="path113" />
      <text
         fill="#0000ff"
         stroke="none"
         font-family="geogebra-sans-serif, sans-serif"
         font-size="28px"
         font-style="normal"
         font-weight="normal"
         text-decoration="normal"
         x="28"
         y="77"
         text-anchor="start"
         dominant-baseline="alphabetic"
         fill-opacity="1"
         id="text115">Base of Triangle = 4.5 cm</text>
      <text
         fill="#0000ff"
         stroke="none"
         font-family="geogebra-sans-serif, sans-serif"
         font-size="28px"
         font-style="normal"
         font-weight="normal"
         text-decoration="normal"
         x="28"
         y="205"
         text-anchor="start"
         dominant-baseline="alphabetic"
         fill-opacity="1"
         id="text117">Height of Triangle = 8.9 cm</text>
      <text
         fill="#0000ff"
         stroke="none"
         font-family="geogebra-sans-serif, sans-serif"
         font-size="28px"
         font-style="normal"
         font-weight="normal"
         text-decoration="normal"
         x="32"
         y="341"
         text-anchor="start"
         dominant-baseline="alphabetic"
         fill-opacity="1"
         id="text119">Height of Prism = 6 cm</text>
      <text
         fill="#0000ff"
         stroke="none"
         font-family="geogebra-sans-serif, sans-serif"
         font-size="28px"
         font-style="normal"
         font-weight="normal"
         text-decoration="normal"
         x="84"
         y="485"
         text-anchor="start"
         dominant-baseline="alphabetic"
         fill-opacity="1"
         id="text121">Open</text>
      <text
         fill="#0000ff"
         stroke="none"
         font-family="geogebra-sans-serif, sans-serif"
         font-size="28px"
         font-style="normal"
         font-weight="normal"
         text-decoration="normal"
         x="280"
         y="487"
         text-anchor="start"
         dominant-baseline="alphabetic"
         fill-opacity="1"
         id="text123">Close</text>
      <path
         fill="none"
         stroke="#666666"
         paint-order="fill stroke markers"
         d="M 596.0697,92.17667 546.04398,212.26402"
         stroke-opacity="1"
         stroke-linecap="round"
         stroke-linejoin="round"
         stroke-miterlimit="10"
         id="path39-8"
         sodipodi:nodetypes="cc"
         style="stroke-width:2;stroke-miterlimit:10;stroke-dasharray:none" />
      <path
         fill="none"
         stroke="#666666"
         paint-order="fill stroke markers"
         d="m 546.04398,212.26402 98.10139,-0.3424"
         stroke-opacity="1"
         stroke-linecap="round"
         stroke-linejoin="round"
         stroke-miterlimit="10"
         id="path41-6"
         sodipodi:nodetypes="cc"
         style="stroke-width:2;stroke-miterlimit:10;stroke-dasharray:none" />
      <path
         fill="none"
         stroke="#666666"
         paint-order="fill stroke markers"
         d="M 644.14537,211.92162 596.0697,92.17667"
         stroke-opacity="1"
         stroke-linecap="round"
         stroke-linejoin="round"
         stroke-miterlimit="10"
         id="path43-2"
         sodipodi:nodetypes="cc"
         style="stroke-width:2;stroke-miterlimit:10;stroke-dasharray:none" />
      <path
         fill="none"
         stroke="#666666"
         paint-order="fill stroke markers"
         d="m 546.04398,212.26402 98.10139,-0.3424"
         stroke-opacity="1"
         stroke-linecap="round"
         stroke-linejoin="round"
         stroke-miterlimit="10"
         id="path67-4"
         sodipodi:nodetypes="cc"
         style="stroke-width:2;stroke-miterlimit:10;stroke-dasharray:none" />
      <path
         fill="none"
         stroke="#666666"
         paint-order="fill stroke markers"
         d="M 763.75133,263.08764 644.14537,211.92162"
         stroke-opacity="1"
         stroke-linecap="round"
         stroke-linejoin="round"
         stroke-miterlimit="10"
         id="path39-9"
         sodipodi:nodetypes="cc"
         style="stroke-width:2;stroke-miterlimit:10;stroke-dasharray:none" />
      <path
         fill="none"
         stroke="#666666"
         paint-order="fill stroke markers"
         d="m 644.14537,211.92162 -0.59098,98.10021"
         stroke-opacity="1"
         stroke-linecap="round"
         stroke-linejoin="round"
         stroke-miterlimit="10"
         id="path41-4"
         sodipodi:nodetypes="cc"
         style="stroke-width:2;stroke-miterlimit:10;stroke-dasharray:none" />
      <path
         fill="none"
         stroke="#666666"
         paint-order="fill stroke markers"
         d="M 643.55439,310.02183 763.75133,263.08764"
         stroke-opacity="1"
         stroke-linecap="round"
         stroke-linejoin="round"
         stroke-miterlimit="10"
         id="path43-5"
         sodipodi:nodetypes="cc"
         style="stroke-width:2;stroke-miterlimit:10;stroke-dasharray:none" />
      <path
         fill="none"
         stroke="#666666"
         paint-order="fill stroke markers"
         d="m 644.14537,211.92162 -0.59098,98.10021"
         stroke-opacity="1"
         stroke-linecap="round"
         stroke-linejoin="round"
         stroke-miterlimit="10"
         id="path67-2"
         sodipodi:nodetypes="cc"
         style="stroke-width:2;stroke-miterlimit:10;stroke-dasharray:none" />
      <path
         fill="none"
         stroke="#666666"
         paint-order="fill stroke markers"
         d="M 593.16174,429.95567 643.55439,310.02183"
         stroke-opacity="1"
         stroke-linecap="round"
         stroke-linejoin="round"
         stroke-miterlimit="10"
         id="path39-7"
         sodipodi:nodetypes="cc"
         style="stroke-width:2;stroke-miterlimit:10;stroke-dasharray:none" />
      <path
         fill="none"
         stroke="#666666"
         paint-order="fill stroke markers"
         d="m 643.55439,310.02183 -98.10198,0.0425"
         stroke-opacity="1"
         stroke-linecap="round"
         stroke-linejoin="round"
         stroke-miterlimit="10"
         id="path41-1"
         sodipodi:nodetypes="cc"
         style="stroke-width:2;stroke-miterlimit:10;stroke-dasharray:none" />
      <path
         fill="none"
         stroke="#666666"
         paint-order="fill stroke markers"
         d="m 545.45241,310.06429 47.70933,119.89138"
         stroke-opacity="1"
         stroke-linecap="round"
         stroke-linejoin="round"
         stroke-miterlimit="10"
         id="path43-4"
         sodipodi:nodetypes="cc"
         style="stroke-width:2;stroke-miterlimit:10;stroke-dasharray:none" />
      <path
         fill="none"
         stroke="#666666"
         paint-order="fill stroke markers"
         d="m 643.55439,310.02183 -98.10198,0.0425"
         stroke-opacity="1"
         stroke-linecap="round"
         stroke-linejoin="round"
         stroke-miterlimit="10"
         id="path67-43"
         sodipodi:nodetypes="cc"
         style="stroke-width:2;stroke-miterlimit:10;stroke-dasharray:none" />
    </g>
  </g>
</svg>
