<svg version="1.1" xmlns="http://www.w3.org/2000/svg" xmlns:xlink="http://www.w3.org/1999/xlink" width="339" height="403"><defs><clipPath id="FLEUnUoPLycO"><path fill="none" stroke="none" d=" M 0 0 L 339 0 L 339 403 L 0 403 L 0 0 Z"/></clipPath></defs><g transform="scale(1,1)" clip-path="url(#FLEUnUoPLycO)"><g transform="translate(-447,-57)"><rect fill="rgb(255,255,255)" stroke="none" x="0" y="0" width="980" height="516" fill-opacity="1"/><path fill="rgb(255,255,255)" stroke="none" paint-order="stroke fill markers" fill-rule="evenodd" d=" M 44.5 587 L 65.5 587 C 66.88071187457699 587 68 588.119288125423 68 589.5 L 68 610.5 C 68 611.880711874577 66.88071187457699 613 65.5 613 L 44.5 613 C 43.11928812542302 613 42 611.880711874577 42 610.5 L 42 589.5 C 42 588.119288125423 43.11928812542302 587 44.5 587 Z" fill-opacity="1"/><path fill="none" stroke="rgb(0,0,0)" paint-order="fill stroke markers" d=" M 44.5 587 L 65.5 587 C 66.88071187457699 587 68 588.119288125423 68 589.5 L 68 610.5 C 68 611.880711874577 66.88071187457699 613 65.5 613 L 44.5 613 C 43.11928812542302 613 42 611.880711874577 42 610.5 L 42 589.5 C 42 588.119288125423 43.11928812542302 587 44.5 587 Z" stroke-opacity="1" stroke-linecap="round" stroke-linejoin="round" stroke-miterlimit="10"/><text fill="rgb(0,0,0)" stroke="none" font-family="geogebra-sans-serif, sans-serif" font-size="20px" font-style="normal" font-weight="normal" text-decoration="normal" x="77" y="608" text-anchor="start" dominant-baseline="alphabetic" fill-opacity="1">Show Perimeter of Base</text><path fill="rgb(255,255,255)" stroke="none" paint-order="stroke fill markers" fill-rule="evenodd" d=" M 43.5 664 L 64.5 664 C 65.88071187457699 664 67 665.119288125423 67 666.5 L 67 687.5 C 67 688.880711874577 65.88071187457699 690 64.5 690 L 43.5 690 C 42.11928812542302 690 41 688.880711874577 41 687.5 L 41 666.5 C 41 665.119288125423 42.11928812542302 664 43.5 664 Z" fill-opacity="1"/><path fill="none" stroke="rgb(0,0,0)" paint-order="fill stroke markers" d=" M 43.5 664 L 64.5 664 C 65.88071187457699 664 67 665.119288125423 67 666.5 L 67 687.5 C 67 688.880711874577 65.88071187457699 690 64.5 690 L 43.5 690 C 42.11928812542302 690 41 688.880711874577 41 687.5 L 41 666.5 C 41 665.119288125423 42.11928812542302 664 43.5 664 Z" stroke-opacity="1" stroke-linecap="round" stroke-linejoin="round" stroke-miterlimit="10"/><text fill="rgb(0,0,0)" stroke="none" font-family="geogebra-sans-serif, sans-serif" font-size="20px" font-style="normal" font-weight="normal" text-decoration="normal" x="76" y="684" text-anchor="start" dominant-baseline="alphabetic" fill-opacity="1">Show the Height of Prism</text><path fill="rgb(255,255,255)" stroke="none" paint-order="stroke fill markers" fill-rule="evenodd" d=" M 183.5 461 L 204.5 461 C 205.88071187457697 461 207 462.119288125423 207 463.5 L 207 484.5 C 207 485.880711874577 205.88071187457697 487 204.5 487 L 183.5 487 C 182.11928812542303 487 181 485.880711874577 181 484.5 L 181 463.5 C 181 462.119288125423 182.11928812542303 461 183.5 461 Z" fill-opacity="1"/><path fill="none" stroke="rgb(0,0,0)" paint-order="fill stroke markers" d=" M 183.5 461 L 204.5 461 C 205.88071187457697 461 207 462.119288125423 207 463.5 L 207 484.5 C 207 485.880711874577 205.88071187457697 487 204.5 487 L 183.5 487 C 182.11928812542303 487 181 485.880711874577 181 484.5 L 181 463.5 C 181 462.119288125423 182.11928812542303 461 183.5 461 Z" stroke-opacity="1" stroke-linecap="round" stroke-linejoin="round" stroke-miterlimit="10"/><text fill="rgb(255,0,0)" stroke="none" font-family="geogebra-sans-serif, sans-serif" font-size="20px" font-style="normal" font-weight="normal" text-decoration="normal" x="216" y="482" text-anchor="start" dominant-baseline="alphabetic" fill-opacity="1">Start</text><path fill="rgb(102,102,102)" stroke="none" paint-order="stroke fill markers" fill-rule="evenodd" d=" M 481.77046950203294 310.90757423505397 L 610.4898225696609 310.90757423505397 L 610.4898225696609 201.3603492557674 L 481.77046950203294 201.3603492557674 Z" fill-opacity="0.09803921568627451"/><path fill="rgb(102,102,102)" stroke="none" paint-order="stroke fill markers" fill-rule="evenodd" d=" M 773.5448730188255 310.90757423505397 L 644.8255199511975 310.90757423505397 L 644.8255199511975 201.3603492557674 L 773.5448730188255 201.3603492557674 Z" fill-opacity="0.09803921568627451"/><path fill="rgb(102,102,102)" stroke="none" paint-order="stroke fill markers" fill-rule="evenodd" d=" M 627.9285803259221 438.4401645094473 L 610.4898225696609 310.90757423505397 L 644.8255199511975 310.90757423505397 Z" fill-opacity="0.09803921568627451"/><path fill="rgb(102,102,102)" stroke="none" paint-order="stroke fill markers" fill-rule="evenodd" d=" M 627.9285803259221 73.82775898137402 L 644.8255199511975 201.3603492557674 L 610.4898225696609 201.3603492557674 Z" fill-opacity="0.09803921568627451"/><path fill="rgb(102,102,102)" stroke="none" paint-order="stroke fill markers" fill-rule="evenodd" d=" M 610.4898225696609 310.90757423505397 L 610.4898225696609 201.36034925576737 L 644.8255199511975 201.36034925576737 L 644.8255199511975 310.90757423505397 Z" fill-opacity="0.09803921568627451"/><path fill="none" stroke="rgb(0,0,0)" paint-order="fill stroke markers" d=" M 610.4898225696609 310.90757423505397 L 644.8255199511975 310.90757423505397" stroke-opacity="1" stroke-linecap="round" stroke-linejoin="round" stroke-miterlimit="10"/><path fill="none" stroke="rgb(102,102,102)" paint-order="fill stroke markers" d=" M 481.77046950203294 310.90757423505397 L 610.4898225696609 310.90757423505397" stroke-opacity="1" stroke-linecap="round" stroke-linejoin="round" stroke-miterlimit="10"/><path fill="none" stroke="rgb(102,102,102)" paint-order="fill stroke markers" d=" M 610.4898225696609 310.90757423505397 L 610.4898225696609 201.36034925576737" stroke-opacity="1" stroke-linecap="round" stroke-linejoin="round" stroke-miterlimit="10"/><path fill="none" stroke="rgb(102,102,102)" paint-order="fill stroke markers" d=" M 610.4898225696609 201.36034925576737 L 481.77046950203294 201.36034925576737" stroke-opacity="1" stroke-linecap="round" stroke-linejoin="round" stroke-miterlimit="10"/><path fill="none" stroke="rgb(102,102,102)" paint-order="fill stroke markers" d=" M 481.77046950203294 201.36034925576737 L 481.77046950203294 310.90757423505397" stroke-opacity="1" stroke-linecap="round" stroke-linejoin="round" stroke-miterlimit="10"/><path fill="none" stroke="rgb(102,102,102)" paint-order="fill stroke markers" d=" M 773.5448730188255 310.90757423505397 L 644.8255199511975 310.90757423505397" stroke-opacity="1" stroke-linecap="round" stroke-linejoin="round" stroke-miterlimit="10"/><path fill="none" stroke="rgb(102,102,102)" paint-order="fill stroke markers" d=" M 644.8255199511975 310.90757423505397 L 644.8255199511975 201.36034925576737" stroke-opacity="1" stroke-linecap="round" stroke-linejoin="round" stroke-miterlimit="10"/><path fill="none" stroke="rgb(102,102,102)" paint-order="fill stroke markers" d=" M 644.8255199511975 201.36034925576737 L 773.5448730188255 201.36034925576737" stroke-opacity="1" stroke-linecap="round" stroke-linejoin="round" stroke-miterlimit="10"/><path fill="none" stroke="rgb(102,102,102)" paint-order="fill stroke markers" d=" M 773.5448730188255 201.36034925576737 L 773.5448730188255 310.90757423505397" stroke-opacity="1" stroke-linecap="round" stroke-linejoin="round" stroke-miterlimit="10"/><path fill="none" stroke="rgb(102,102,102)" paint-order="fill stroke markers" d=" M 627.9285803259221 438.4401645094473 L 610.4898225696609 310.90757423505397" stroke-opacity="1" stroke-linecap="round" stroke-linejoin="round" stroke-miterlimit="10"/><path fill="none" stroke="rgb(102,102,102)" paint-order="fill stroke markers" d=" M 610.4898225696609 310.90757423505397 L 644.8255199511975 310.90757423505397" stroke-opacity="1" stroke-linecap="round" stroke-linejoin="round" stroke-miterlimit="10"/><path fill="none" stroke="rgb(102,102,102)" paint-order="fill stroke markers" d=" M 644.8255199511975 310.90757423505397 L 627.9285803259221 438.4401645094473" stroke-opacity="1" stroke-linecap="round" stroke-linejoin="round" stroke-miterlimit="10"/><path fill="none" stroke="rgb(102,102,102)" paint-order="fill stroke markers" d=" M 627.9285803259221 73.82775898137402 L 644.8255199511975 201.36034925576737" stroke-opacity="1" stroke-linecap="round" stroke-linejoin="round" stroke-miterlimit="10"/><path fill="none" stroke="rgb(102,102,102)" paint-order="fill stroke markers" d=" M 644.8255199511975 201.36034925576737 L 610.4898225696609 201.36034925576737" stroke-opacity="1" stroke-linecap="round" stroke-linejoin="round" stroke-miterlimit="10"/><path fill="none" stroke="rgb(102,102,102)" paint-order="fill stroke markers" d=" M 610.4898225696609 201.36034925576737 L 627.9285803259221 73.82775898137402" stroke-opacity="1" stroke-linecap="round" stroke-linejoin="round" stroke-miterlimit="10"/><path fill="none" stroke="rgb(102,102,102)" paint-order="fill stroke markers" d=" M 610.4898225696609 310.90757423505397 L 610.4898225696609 201.36034925576737" stroke-opacity="1" stroke-linecap="round" stroke-linejoin="round" stroke-miterlimit="10"/><path fill="none" stroke="rgb(102,102,102)" paint-order="fill stroke markers" d=" M 610.4898225696609 201.36034925576737 L 644.8255199511975 201.36034925576737" stroke-opacity="1" stroke-linecap="round" stroke-linejoin="round" stroke-miterlimit="10"/><path fill="none" stroke="rgb(102,102,102)" paint-order="fill stroke markers" d=" M 644.8255199511975 201.36034925576737 L 644.8255199511975 310.90757423505397" stroke-opacity="1" stroke-linecap="round" stroke-linejoin="round" stroke-miterlimit="10"/><path fill="none" stroke="rgb(102,102,102)" paint-order="fill stroke markers" d=" M 644.8255199511975 310.90757423505397 L 610.4898225696609 310.90757423505397" stroke-opacity="1" stroke-linecap="round" stroke-linejoin="round" stroke-miterlimit="10"/><path fill="none" stroke="rgb(0,100,0)" paint-order="fill stroke markers" d=" M 137.5 522.5 L 317.5 522.5" stroke-opacity="0.2" stroke-linecap="round" stroke-linejoin="round" stroke-miterlimit="10" stroke-width="5"/><path fill="rgb(0,100,0)" stroke="none" paint-order="stroke fill markers" d=" M 146 522.5 C 146 527.1944203735618 142.19442037356174 531 137.5 531 C 132.80557962643826 531 129 527.1944203735618 129 522.5 C 129 517.8055796264382 132.80557962643826 514 137.5 514 C 142.19442037356174 514 146 517.8055796264382 146 522.5 Z" fill-opacity="0.2"/><path fill="none" stroke="rgb(0,100,0)" paint-order="fill stroke markers" d=" M 146 522.5 C 146 527.1944203735618 142.19442037356174 531 137.5 531 C 132.80557962643826 531 129 527.1944203735618 129 522.5 C 129 517.8055796264382 132.80557962643826 514 137.5 514 C 142.19442037356174 514 146 517.8055796264382 146 522.5 Z" stroke-opacity="0.2" stroke-linecap="round" stroke-linejoin="round" stroke-miterlimit="10"/><path fill="rgb(0,100,0)" stroke="none" paint-order="stroke fill markers" d=" M 143 522.5 C 143 525.5375661240694 140.53756612406937 528 137.5 528 C 134.46243387593063 528 132 525.5375661240694 132 522.5 C 132 519.4624338759306 134.46243387593063 517 137.5 517 C 140.53756612406937 517 143 519.4624338759306 143 522.5 Z" fill-opacity="1"/><path fill="none" stroke="rgb(0,0,0)" paint-order="fill stroke markers" d=" M 143 522.5 C 143 525.5375661240694 140.53756612406937 528 137.5 528 C 134.46243387593063 528 132 525.5375661240694 132 522.5 C 132 519.4624338759306 134.46243387593063 517 137.5 517 C 140.53756612406937 517 143 519.4624338759306 143 522.5 Z" stroke-opacity="1" stroke-linecap="round" stroke-linejoin="round" stroke-miterlimit="10"/><path fill="none" stroke="rgb(0,0,0)" paint-order="fill stroke markers" d=" M 98.5 119.5 L 298.5 119.5" stroke-opacity="0.39215686274509803" stroke-linecap="round" stroke-linejoin="round" stroke-miterlimit="10" stroke-width="5"/><path fill="rgb(0,0,0)" stroke="none" paint-order="stroke fill markers" d=" M 149.00000000000006 119.5 C 149.00000000000006 124.19442037356174 145.1944203735618 128 140.50000000000006 128 C 135.80557962643832 128 132.00000000000006 124.19442037356174 132.00000000000006 119.5 C 132.00000000000006 114.80557962643826 135.80557962643832 111 140.50000000000006 111 C 145.1944203735618 111 149.00000000000006 114.80557962643826 149.00000000000006 119.5 Z" fill-opacity="0.39215686274509803"/><path fill="none" stroke="rgb(0,0,0)" paint-order="fill stroke markers" d=" M 149.00000000000006 119.5 C 149.00000000000006 124.19442037356174 145.1944203735618 128 140.50000000000006 128 C 135.80557962643832 128 132.00000000000006 124.19442037356174 132.00000000000006 119.5 C 132.00000000000006 114.80557962643826 135.80557962643832 111 140.50000000000006 111 C 145.1944203735618 111 149.00000000000006 114.80557962643826 149.00000000000006 119.5 Z" stroke-opacity="0.39215686274509803" stroke-linecap="round" stroke-linejoin="round" stroke-miterlimit="10"/><path fill="rgb(0,0,0)" stroke="none" paint-order="stroke fill markers" d=" M 146.00000000000006 119.5 C 146.00000000000006 122.53756612406936 143.53756612406943 125 140.50000000000006 125 C 137.46243387593069 125 135.00000000000006 122.53756612406936 135.00000000000006 119.5 C 135.00000000000006 116.46243387593064 137.46243387593069 114 140.50000000000006 114 C 143.53756612406943 114 146.00000000000006 116.46243387593064 146.00000000000006 119.5 Z" fill-opacity="1"/><path fill="none" stroke="rgb(0,0,0)" paint-order="fill stroke markers" d=" M 146.00000000000006 119.5 C 146.00000000000006 122.53756612406936 143.53756612406943 125 140.50000000000006 125 C 137.46243387593069 125 135.00000000000006 122.53756612406936 135.00000000000006 119.5 C 135.00000000000006 116.46243387593064 137.46243387593069 114 140.50000000000006 114 C 143.53756612406943 114 146.00000000000006 116.46243387593064 146.00000000000006 119.5 Z" stroke-opacity="1" stroke-linecap="round" stroke-linejoin="round" stroke-miterlimit="10"/><path fill="none" stroke="rgb(0,0,0)" paint-order="fill stroke markers" d=" M 102.5 395.5 L 302.5 395.5" stroke-opacity="0.39215686274509803" stroke-linecap="round" stroke-linejoin="round" stroke-miterlimit="10" stroke-width="5"/><path fill="rgb(0,0,0)" stroke="none" paint-order="stroke fill markers" d=" M 245.00000000000006 395.5 C 245.00000000000006 400.19442037356174 241.1944203735618 404 236.50000000000006 404 C 231.80557962643832 404 228.00000000000006 400.19442037356174 228.00000000000006 395.5 C 228.00000000000006 390.80557962643826 231.80557962643832 387 236.50000000000006 387 C 241.1944203735618 387 245.00000000000006 390.80557962643826 245.00000000000006 395.5 Z" fill-opacity="0.39215686274509803"/><path fill="none" stroke="rgb(0,0,0)" paint-order="fill stroke markers" d=" M 245.00000000000006 395.5 C 245.00000000000006 400.19442037356174 241.1944203735618 404 236.50000000000006 404 C 231.80557962643832 404 228.00000000000006 400.19442037356174 228.00000000000006 395.5 C 228.00000000000006 390.80557962643826 231.80557962643832 387 236.50000000000006 387 C 241.1944203735618 387 245.00000000000006 390.80557962643826 245.00000000000006 395.5 Z" stroke-opacity="0.39215686274509803" stroke-linecap="round" stroke-linejoin="round" stroke-miterlimit="10"/><path fill="rgb(0,0,0)" stroke="none" paint-order="stroke fill markers" d=" M 242.00000000000006 395.5 C 242.00000000000006 398.5375661240694 239.53756612406943 401 236.50000000000006 401 C 233.46243387593069 401 231.00000000000006 398.5375661240694 231.00000000000006 395.5 C 231.00000000000006 392.4624338759306 233.46243387593069 390 236.50000000000006 390 C 239.53756612406943 390 242.00000000000006 392.4624338759306 242.00000000000006 395.5 Z" fill-opacity="1"/><path fill="none" stroke="rgb(0,0,0)" paint-order="fill stroke markers" d=" M 242.00000000000006 395.5 C 242.00000000000006 398.5375661240694 239.53756612406943 401 236.50000000000006 401 C 233.46243387593069 401 231.00000000000006 398.5375661240694 231.00000000000006 395.5 C 231.00000000000006 392.4624338759306 233.46243387593069 390 236.50000000000006 390 C 239.53756612406943 390 242.00000000000006 392.4624338759306 242.00000000000006 395.5 Z" stroke-opacity="1" stroke-linecap="round" stroke-linejoin="round" stroke-miterlimit="10"/><path fill="none" stroke="rgb(0,0,0)" paint-order="fill stroke markers" d=" M 103.5 251.5 L 303.5 251.5" stroke-opacity="0.39215686274509803" stroke-linecap="round" stroke-linejoin="round" stroke-miterlimit="10" stroke-width="5"/><path fill="rgb(0,0,0)" stroke="none" paint-order="stroke fill markers" d=" M 268 251.5 C 268 256.19442037356174 264.19442037356174 260 259.5 260 C 254.80557962643826 260 251 256.19442037356174 251 251.5 C 251 246.80557962643826 254.80557962643826 243 259.5 243 C 264.19442037356174 243 268 246.80557962643826 268 251.5 Z" fill-opacity="0.39215686274509803"/><path fill="none" stroke="rgb(0,0,0)" paint-order="fill stroke markers" d=" M 268 251.5 C 268 256.19442037356174 264.19442037356174 260 259.5 260 C 254.80557962643826 260 251 256.19442037356174 251 251.5 C 251 246.80557962643826 254.80557962643826 243 259.5 243 C 264.19442037356174 243 268 246.80557962643826 268 251.5 Z" stroke-opacity="0.39215686274509803" stroke-linecap="round" stroke-linejoin="round" stroke-miterlimit="10"/><path fill="rgb(0,0,0)" stroke="none" paint-order="stroke fill markers" d=" M 265 251.5 C 265 254.53756612406937 262.5375661240694 257 259.5 257 C 256.4624338759306 257 254 254.53756612406937 254 251.5 C 254 248.46243387593063 256.4624338759306 246 259.5 246 C 262.5375661240694 246 265 248.46243387593063 265 251.5 Z" fill-opacity="1"/><path fill="none" stroke="rgb(0,0,0)" paint-order="fill stroke markers" d=" M 265 251.5 C 265 254.53756612406937 262.5375661240694 257 259.5 257 C 256.4624338759306 257 254 254.53756612406937 254 251.5 C 254 248.46243387593063 256.4624338759306 246 259.5 246 C 262.5375661240694 246 265 248.46243387593063 265 251.5 Z" stroke-opacity="1" stroke-linecap="round" stroke-linejoin="round" stroke-miterlimit="10"/><text fill="rgb(0,0,255)" stroke="none" font-family="geogebra-sans-serif, sans-serif" font-size="28px" font-style="normal" font-weight="normal" text-decoration="normal" x="28" y="77" text-anchor="start" dominant-baseline="alphabetic" fill-opacity="1">Base of Triangle = 2.1 cm</text><text fill="rgb(0,0,255)" stroke="none" font-family="geogebra-sans-serif, sans-serif" font-size="28px" font-style="normal" font-weight="normal" text-decoration="normal" x="28" y="205" text-anchor="start" dominant-baseline="alphabetic" fill-opacity="1">Height of Triangle = 7.8 cm</text><text fill="rgb(0,0,255)" stroke="none" font-family="geogebra-sans-serif, sans-serif" font-size="28px" font-style="normal" font-weight="normal" text-decoration="normal" x="32" y="341" text-anchor="start" dominant-baseline="alphabetic" fill-opacity="1">Height of Prism = 6.7 cm</text><text fill="rgb(0,0,255)" stroke="none" font-family="geogebra-sans-serif, sans-serif" font-size="28px" font-style="normal" font-weight="normal" text-decoration="normal" x="84" y="485" text-anchor="start" dominant-baseline="alphabetic" fill-opacity="1">Open</text><text fill="rgb(0,0,255)" stroke="none" font-family="geogebra-sans-serif, sans-serif" font-size="28px" font-style="normal" font-weight="normal" text-decoration="normal" x="280" y="487" text-anchor="start" dominant-baseline="alphabetic" fill-opacity="1">Close</text></g></g></svg>