<svg version="1.1" xmlns="http://www.w3.org/2000/svg" xmlns:xlink="http://www.w3.org/1999/xlink" width="435" height="430"><defs><clipPath id="qonMpOXzDGat"><path fill="none" stroke="none" d=" M 0 0 L 435 0 L 435 430 L 0 430 L 0 0 Z"/></clipPath></defs><g transform="scale(1,1)" clip-path="url(#qonMpOXzDGat)"><g transform="translate(-424,-51)"><rect fill="rgb(255,255,255)" stroke="none" x="0" y="0" width="980" height="516" fill-opacity="1"/><path fill="rgb(255,255,255)" stroke="none" paint-order="stroke fill markers" fill-rule="evenodd" d=" M 44.5 587 L 65.5 587 C 66.88071187457699 587 68 588.119288125423 68 589.5 L 68 610.5 C 68 611.880711874577 66.88071187457699 613 65.5 613 L 44.5 613 C 43.11928812542302 613 42 611.880711874577 42 610.5 L 42 589.5 C 42 588.119288125423 43.11928812542302 587 44.5 587 Z" fill-opacity="1"/><path fill="none" stroke="rgb(0,0,0)" paint-order="fill stroke markers" d=" M 44.5 587 L 65.5 587 C 66.88071187457699 587 68 588.119288125423 68 589.5 L 68 610.5 C 68 611.880711874577 66.88071187457699 613 65.5 613 L 44.5 613 C 43.11928812542302 613 42 611.880711874577 42 610.5 L 42 589.5 C 42 588.119288125423 43.11928812542302 587 44.5 587 Z" stroke-opacity="1" stroke-linecap="round" stroke-linejoin="round" stroke-miterlimit="10"/><text fill="rgb(0,0,0)" stroke="none" font-family="geogebra-sans-serif, sans-serif" font-size="20px" font-style="normal" font-weight="normal" text-decoration="normal" x="77" y="608" text-anchor="start" dominant-baseline="alphabetic" fill-opacity="1">Show Perimeter of Base</text><path fill="rgb(255,255,255)" stroke="none" paint-order="stroke fill markers" fill-rule="evenodd" d=" M 43.5 664 L 64.5 664 C 65.88071187457699 664 67 665.119288125423 67 666.5 L 67 687.5 C 67 688.880711874577 65.88071187457699 690 64.5 690 L 43.5 690 C 42.11928812542302 690 41 688.880711874577 41 687.5 L 41 666.5 C 41 665.119288125423 42.11928812542302 664 43.5 664 Z" fill-opacity="1"/><path fill="none" stroke="rgb(0,0,0)" paint-order="fill stroke markers" d=" M 43.5 664 L 64.5 664 C 65.88071187457699 664 67 665.119288125423 67 666.5 L 67 687.5 C 67 688.880711874577 65.88071187457699 690 64.5 690 L 43.5 690 C 42.11928812542302 690 41 688.880711874577 41 687.5 L 41 666.5 C 41 665.119288125423 42.11928812542302 664 43.5 664 Z" stroke-opacity="1" stroke-linecap="round" stroke-linejoin="round" stroke-miterlimit="10"/><text fill="rgb(0,0,0)" stroke="none" font-family="geogebra-sans-serif, sans-serif" font-size="20px" font-style="normal" font-weight="normal" text-decoration="normal" x="76" y="684" text-anchor="start" dominant-baseline="alphabetic" fill-opacity="1">Show the Height of Prism</text><path fill="rgb(255,255,255)" stroke="none" paint-order="stroke fill markers" fill-rule="evenodd" d=" M 183.5 461 L 204.5 461 C 205.88071187457697 461 207 462.119288125423 207 463.5 L 207 484.5 C 207 485.880711874577 205.88071187457697 487 204.5 487 L 183.5 487 C 182.11928812542303 487 181 485.880711874577 181 484.5 L 181 463.5 C 181 462.119288125423 182.11928812542303 461 183.5 461 Z" fill-opacity="1"/><path fill="none" stroke="rgb(0,0,0)" paint-order="fill stroke markers" d=" M 183.5 461 L 204.5 461 C 205.88071187457697 461 207 462.119288125423 207 463.5 L 207 484.5 C 207 485.880711874577 205.88071187457697 487 204.5 487 L 183.5 487 C 182.11928812542303 487 181 485.880711874577 181 484.5 L 181 463.5 C 181 462.119288125423 182.11928812542303 461 183.5 461 Z" stroke-opacity="1" stroke-linecap="round" stroke-linejoin="round" stroke-miterlimit="10"/><text fill="rgb(255,0,0)" stroke="none" font-family="geogebra-sans-serif, sans-serif" font-size="20px" font-style="normal" font-weight="normal" text-decoration="normal" x="216" y="482" text-anchor="start" dominant-baseline="alphabetic" fill-opacity="1">Start</text><path fill="rgb(102,102,102)" stroke="none" paint-order="stroke fill markers" fill-rule="evenodd" d=" M 460.25034669254376 310.90757423505397 L 610.4898225696609 310.90757423505397 L 610.4898225696609 212.80558171628985 L 460.25034669254376 212.80558171628985 Z" fill-opacity="0.09803921568627451"/><path fill="rgb(102,102,102)" stroke="none" paint-order="stroke fill markers" fill-rule="evenodd" d=" M 834.305792835785 310.90757423505397 L 684.0663169586679 310.90757423505397 L 684.0663169586679 212.80558171628985 L 834.305792835785 212.80558171628985 Z" fill-opacity="0.09803921568627451"/><path fill="rgb(102,102,102)" stroke="none" paint-order="stroke fill markers" fill-rule="evenodd" d=" M 647.8585891902205 456.4255298045541 L 610.4898225696609 310.90757423505397 L 684.0663169586679 310.907574235054 Z" fill-opacity="0.09803921568627451"/><path fill="rgb(102,102,102)" stroke="none" paint-order="stroke fill markers" fill-rule="evenodd" d=" M 647.8585891902205 67.28762614678976 L 684.0663169586679 212.80558171628985 L 610.4898225696609 212.8055817162899 Z" fill-opacity="0.09803921568627451"/><path fill="rgb(102,102,102)" stroke="none" paint-order="stroke fill markers" fill-rule="evenodd" d=" M 610.4898225696609 310.90757423505397 L 610.4898225696609 212.80558171628985 L 684.0663169586679 212.80558171628985 L 684.0663169586679 310.90757423505397 Z" fill-opacity="0.09803921568627451"/><path fill="none" stroke="rgb(0,0,0)" paint-order="fill stroke markers" d=" M 610.4898225696609 310.90757423505397 L 684.0663169586679 310.90757423505397" stroke-opacity="1" stroke-linecap="round" stroke-linejoin="round" stroke-miterlimit="10"/><path fill="none" stroke="rgb(102,102,102)" paint-order="fill stroke markers" d=" M 460.25034669254376 310.90757423505397 L 610.4898225696609 310.90757423505397" stroke-opacity="1" stroke-linecap="round" stroke-linejoin="round" stroke-miterlimit="10"/><path fill="none" stroke="rgb(102,102,102)" paint-order="fill stroke markers" d=" M 610.4898225696609 310.90757423505397 L 610.4898225696609 212.80558171628985" stroke-opacity="1" stroke-linecap="round" stroke-linejoin="round" stroke-miterlimit="10"/><path fill="none" stroke="rgb(102,102,102)" paint-order="fill stroke markers" d=" M 610.4898225696609 212.80558171628985 L 460.25034669254376 212.80558171628985" stroke-opacity="1" stroke-linecap="round" stroke-linejoin="round" stroke-miterlimit="10"/><path fill="none" stroke="rgb(102,102,102)" paint-order="fill stroke markers" d=" M 460.25034669254376 212.80558171628985 L 460.25034669254376 310.90757423505397" stroke-opacity="1" stroke-linecap="round" stroke-linejoin="round" stroke-miterlimit="10"/><path fill="none" stroke="rgb(102,102,102)" paint-order="fill stroke markers" d=" M 834.305792835785 310.90757423505397 L 684.0663169586679 310.90757423505397" stroke-opacity="1" stroke-linecap="round" stroke-linejoin="round" stroke-miterlimit="10"/><path fill="none" stroke="rgb(102,102,102)" paint-order="fill stroke markers" d=" M 684.0663169586679 310.90757423505397 L 684.0663169586679 212.80558171628985" stroke-opacity="1" stroke-linecap="round" stroke-linejoin="round" stroke-miterlimit="10"/><path fill="none" stroke="rgb(102,102,102)" paint-order="fill stroke markers" d=" M 684.0663169586679 212.80558171628985 L 834.305792835785 212.80558171628985" stroke-opacity="1" stroke-linecap="round" stroke-linejoin="round" stroke-miterlimit="10"/><path fill="none" stroke="rgb(102,102,102)" paint-order="fill stroke markers" d=" M 834.305792835785 212.80558171628985 L 834.305792835785 310.90757423505397" stroke-opacity="1" stroke-linecap="round" stroke-linejoin="round" stroke-miterlimit="10"/><path fill="none" stroke="rgb(102,102,102)" paint-order="fill stroke markers" d=" M 647.8585891902205 456.4255298045541 L 610.4898225696609 310.90757423505397" stroke-opacity="1" stroke-linecap="round" stroke-linejoin="round" stroke-miterlimit="10"/><path fill="none" stroke="rgb(102,102,102)" paint-order="fill stroke markers" d=" M 610.4898225696609 310.90757423505397 L 684.0663169586679 310.90757423505397" stroke-opacity="1" stroke-linecap="round" stroke-linejoin="round" stroke-miterlimit="10"/><path fill="none" stroke="rgb(102,102,102)" paint-order="fill stroke markers" d=" M 684.0663169586679 310.90757423505397 L 647.8585891902205 456.4255298045541" stroke-opacity="1" stroke-linecap="round" stroke-linejoin="round" stroke-miterlimit="10"/><path fill="none" stroke="rgb(102,102,102)" paint-order="fill stroke markers" d=" M 647.8585891902205 67.28762614678976 L 684.0663169586679 212.80558171628985" stroke-opacity="1" stroke-linecap="round" stroke-linejoin="round" stroke-miterlimit="10"/><path fill="none" stroke="rgb(102,102,102)" paint-order="fill stroke markers" d=" M 684.0663169586679 212.80558171628985 L 610.4898225696609 212.80558171628985" stroke-opacity="1" stroke-linecap="round" stroke-linejoin="round" stroke-miterlimit="10"/><path fill="none" stroke="rgb(102,102,102)" paint-order="fill stroke markers" d=" M 610.4898225696609 212.80558171628985 L 647.8585891902205 67.28762614678976" stroke-opacity="1" stroke-linecap="round" stroke-linejoin="round" stroke-miterlimit="10"/><path fill="none" stroke="rgb(102,102,102)" paint-order="fill stroke markers" d=" M 610.4898225696609 310.90757423505397 L 610.4898225696609 212.80558171628985" stroke-opacity="1" stroke-linecap="round" stroke-linejoin="round" stroke-miterlimit="10"/><path fill="none" stroke="rgb(102,102,102)" paint-order="fill stroke markers" d=" M 610.4898225696609 212.80558171628985 L 684.0663169586679 212.80558171628985" stroke-opacity="1" stroke-linecap="round" stroke-linejoin="round" stroke-miterlimit="10"/><path fill="none" stroke="rgb(102,102,102)" paint-order="fill stroke markers" d=" M 684.0663169586679 212.80558171628985 L 684.0663169586679 310.90757423505397" stroke-opacity="1" stroke-linecap="round" stroke-linejoin="round" stroke-miterlimit="10"/><path fill="none" stroke="rgb(102,102,102)" paint-order="fill stroke markers" d=" M 684.0663169586679 310.90757423505397 L 610.4898225696609 310.90757423505397" stroke-opacity="1" stroke-linecap="round" stroke-linejoin="round" stroke-miterlimit="10"/><path fill="none" stroke="rgb(0,100,0)" paint-order="fill stroke markers" d=" M 137.5 522.5 L 317.5 522.5" stroke-opacity="0.2" stroke-linecap="round" stroke-linejoin="round" stroke-miterlimit="10" stroke-width="5"/><path fill="rgb(0,100,0)" stroke="none" paint-order="stroke fill markers" d=" M 146 522.5 C 146 527.1944203735618 142.19442037356174 531 137.5 531 C 132.80557962643826 531 129 527.1944203735618 129 522.5 C 129 517.8055796264382 132.80557962643826 514 137.5 514 C 142.19442037356174 514 146 517.8055796264382 146 522.5 Z" fill-opacity="0.2"/><path fill="none" stroke="rgb(0,100,0)" paint-order="fill stroke markers" d=" M 146 522.5 C 146 527.1944203735618 142.19442037356174 531 137.5 531 C 132.80557962643826 531 129 527.1944203735618 129 522.5 C 129 517.8055796264382 132.80557962643826 514 137.5 514 C 142.19442037356174 514 146 517.8055796264382 146 522.5 Z" stroke-opacity="0.2" stroke-linecap="round" stroke-linejoin="round" stroke-miterlimit="10"/><path fill="rgb(0,100,0)" stroke="none" paint-order="stroke fill markers" d=" M 143 522.5 C 143 525.5375661240694 140.53756612406937 528 137.5 528 C 134.46243387593063 528 132 525.5375661240694 132 522.5 C 132 519.4624338759306 134.46243387593063 517 137.5 517 C 140.53756612406937 517 143 519.4624338759306 143 522.5 Z" fill-opacity="1"/><path fill="none" stroke="rgb(0,0,0)" paint-order="fill stroke markers" d=" M 143 522.5 C 143 525.5375661240694 140.53756612406937 528 137.5 528 C 134.46243387593063 528 132 525.5375661240694 132 522.5 C 132 519.4624338759306 134.46243387593063 517 137.5 517 C 140.53756612406937 517 143 519.4624338759306 143 522.5 Z" stroke-opacity="1" stroke-linecap="round" stroke-linejoin="round" stroke-miterlimit="10"/><path fill="none" stroke="rgb(0,0,0)" paint-order="fill stroke markers" d=" M 98.5 119.5 L 298.5 119.5" stroke-opacity="0.39215686274509803" stroke-linecap="round" stroke-linejoin="round" stroke-miterlimit="10" stroke-width="5"/><path fill="rgb(0,0,0)" stroke="none" paint-order="stroke fill markers" d=" M 197 119.5 C 197 124.19442037356174 193.19442037356174 128 188.5 128 C 183.80557962643826 128 180 124.19442037356174 180 119.5 C 180 114.80557962643826 183.80557962643826 111 188.5 111 C 193.19442037356174 111 197 114.80557962643826 197 119.5 Z" fill-opacity="0.39215686274509803"/><path fill="none" stroke="rgb(0,0,0)" paint-order="fill stroke markers" d=" M 197 119.5 C 197 124.19442037356174 193.19442037356174 128 188.5 128 C 183.80557962643826 128 180 124.19442037356174 180 119.5 C 180 114.80557962643826 183.80557962643826 111 188.5 111 C 193.19442037356174 111 197 114.80557962643826 197 119.5 Z" stroke-opacity="0.39215686274509803" stroke-linecap="round" stroke-linejoin="round" stroke-miterlimit="10"/><path fill="rgb(0,0,0)" stroke="none" paint-order="stroke fill markers" d=" M 194 119.5 C 194 122.53756612406936 191.53756612406937 125 188.5 125 C 185.46243387593063 125 183 122.53756612406936 183 119.5 C 183 116.46243387593064 185.46243387593063 114 188.5 114 C 191.53756612406937 114 194 116.46243387593064 194 119.5 Z" fill-opacity="1"/><path fill="none" stroke="rgb(0,0,0)" paint-order="fill stroke markers" d=" M 194 119.5 C 194 122.53756612406936 191.53756612406937 125 188.5 125 C 185.46243387593063 125 183 122.53756612406936 183 119.5 C 183 116.46243387593064 185.46243387593063 114 188.5 114 C 191.53756612406937 114 194 116.46243387593064 194 119.5 Z" stroke-opacity="1" stroke-linecap="round" stroke-linejoin="round" stroke-miterlimit="10"/><path fill="none" stroke="rgb(0,0,0)" paint-order="fill stroke markers" d=" M 102.5 395.5 L 302.5 395.5" stroke-opacity="0.39215686274509803" stroke-linecap="round" stroke-linejoin="round" stroke-miterlimit="10" stroke-width="5"/><path fill="rgb(0,0,0)" stroke="none" paint-order="stroke fill markers" d=" M 231 395.5 C 231 400.19442037356174 227.19442037356174 404 222.5 404 C 217.80557962643826 404 214 400.19442037356174 214 395.5 C 214 390.80557962643826 217.80557962643826 387 222.5 387 C 227.19442037356174 387 231 390.80557962643826 231 395.5 Z" fill-opacity="0.39215686274509803"/><path fill="none" stroke="rgb(0,0,0)" paint-order="fill stroke markers" d=" M 231 395.5 C 231 400.19442037356174 227.19442037356174 404 222.5 404 C 217.80557962643826 404 214 400.19442037356174 214 395.5 C 214 390.80557962643826 217.80557962643826 387 222.5 387 C 227.19442037356174 387 231 390.80557962643826 231 395.5 Z" stroke-opacity="0.39215686274509803" stroke-linecap="round" stroke-linejoin="round" stroke-miterlimit="10"/><path fill="rgb(0,0,0)" stroke="none" paint-order="stroke fill markers" d=" M 228 395.5 C 228 398.5375661240694 225.53756612406937 401 222.5 401 C 219.46243387593063 401 217 398.5375661240694 217 395.5 C 217 392.4624338759306 219.46243387593063 390 222.5 390 C 225.53756612406937 390 228 392.4624338759306 228 395.5 Z" fill-opacity="1"/><path fill="none" stroke="rgb(0,0,0)" paint-order="fill stroke markers" d=" M 228 395.5 C 228 398.5375661240694 225.53756612406937 401 222.5 401 C 219.46243387593063 401 217 398.5375661240694 217 395.5 C 217 392.4624338759306 219.46243387593063 390 222.5 390 C 225.53756612406937 390 228 392.4624338759306 228 395.5 Z" stroke-opacity="1" stroke-linecap="round" stroke-linejoin="round" stroke-miterlimit="10"/><path fill="none" stroke="rgb(0,0,0)" paint-order="fill stroke markers" d=" M 103.5 251.5 L 303.5 251.5" stroke-opacity="0.39215686274509803" stroke-linecap="round" stroke-linejoin="round" stroke-miterlimit="10" stroke-width="5"/><path fill="rgb(0,0,0)" stroke="none" paint-order="stroke fill markers" d=" M 290.00000000000006 251.5 C 290.00000000000006 256.19442037356174 286.1944203735618 260 281.50000000000006 260 C 276.8055796264383 260 273.00000000000006 256.19442037356174 273.00000000000006 251.5 C 273.00000000000006 246.80557962643826 276.8055796264383 243 281.50000000000006 243 C 286.1944203735618 243 290.00000000000006 246.80557962643826 290.00000000000006 251.5 Z" fill-opacity="0.39215686274509803"/><path fill="none" stroke="rgb(0,0,0)" paint-order="fill stroke markers" d=" M 290.00000000000006 251.5 C 290.00000000000006 256.19442037356174 286.1944203735618 260 281.50000000000006 260 C 276.8055796264383 260 273.00000000000006 256.19442037356174 273.00000000000006 251.5 C 273.00000000000006 246.80557962643826 276.8055796264383 243 281.50000000000006 243 C 286.1944203735618 243 290.00000000000006 246.80557962643826 290.00000000000006 251.5 Z" stroke-opacity="0.39215686274509803" stroke-linecap="round" stroke-linejoin="round" stroke-miterlimit="10"/><path fill="rgb(0,0,0)" stroke="none" paint-order="stroke fill markers" d=" M 287.00000000000006 251.5 C 287.00000000000006 254.53756612406937 284.53756612406943 257 281.50000000000006 257 C 278.4624338759307 257 276.00000000000006 254.53756612406937 276.00000000000006 251.5 C 276.00000000000006 248.46243387593063 278.4624338759307 246 281.50000000000006 246 C 284.53756612406943 246 287.00000000000006 248.46243387593063 287.00000000000006 251.5 Z" fill-opacity="1"/><path fill="none" stroke="rgb(0,0,0)" paint-order="fill stroke markers" d=" M 287.00000000000006 251.5 C 287.00000000000006 254.53756612406937 284.53756612406943 257 281.50000000000006 257 C 278.4624338759307 257 276.00000000000006 254.53756612406937 276.00000000000006 251.5 C 276.00000000000006 248.46243387593063 278.4624338759307 246 281.50000000000006 246 C 284.53756612406943 246 287.00000000000006 248.46243387593063 287.00000000000006 251.5 Z" stroke-opacity="1" stroke-linecap="round" stroke-linejoin="round" stroke-miterlimit="10"/><text fill="rgb(0,0,255)" stroke="none" font-family="geogebra-sans-serif, sans-serif" font-size="28px" font-style="normal" font-weight="normal" text-decoration="normal" x="28" y="77" text-anchor="start" dominant-baseline="alphabetic" fill-opacity="1">Base of Triangle = 4.5 cm</text><text fill="rgb(0,0,255)" stroke="none" font-family="geogebra-sans-serif, sans-serif" font-size="28px" font-style="normal" font-weight="normal" text-decoration="normal" x="28" y="205" text-anchor="start" dominant-baseline="alphabetic" fill-opacity="1">Height of Triangle = 8.9 cm</text><text fill="rgb(0,0,255)" stroke="none" font-family="geogebra-sans-serif, sans-serif" font-size="28px" font-style="normal" font-weight="normal" text-decoration="normal" x="32" y="341" text-anchor="start" dominant-baseline="alphabetic" fill-opacity="1">Height of Prism = 6 cm</text><text fill="rgb(0,0,255)" stroke="none" font-family="geogebra-sans-serif, sans-serif" font-size="28px" font-style="normal" font-weight="normal" text-decoration="normal" x="84" y="485" text-anchor="start" dominant-baseline="alphabetic" fill-opacity="1">Open</text><text fill="rgb(0,0,255)" stroke="none" font-family="geogebra-sans-serif, sans-serif" font-size="28px" font-style="normal" font-weight="normal" text-decoration="normal" x="280" y="487" text-anchor="start" dominant-baseline="alphabetic" fill-opacity="1">Close</text></g></g></svg>