<svg version="1.1" xmlns="http://www.w3.org/2000/svg" xmlns:xlink="http://www.w3.org/1999/xlink" width="313" height="221"><defs><clipPath id="RRJmlAzCItIo"><path fill="none" stroke="none" d=" M 0 0 L 313 0 L 313 221 L 0 221 L 0 0 Z"/></clipPath></defs><g transform="scale(1,1)" clip-path="url(#RRJmlAzCItIo)"><g transform="translate(-494,-197)"><rect fill="rgb(255,255,255)" stroke="none" x="0" y="0" width="980" height="516" fill-opacity="1"/><path fill="rgb(255,255,255)" stroke="none" paint-order="stroke fill markers" fill-rule="evenodd" d=" M 44.5 587 L 65.5 587 C 66.88071187457699 587 68 588.119288125423 68 589.5 L 68 610.5 C 68 611.880711874577 66.88071187457699 613 65.5 613 L 44.5 613 C 43.11928812542302 613 42 611.880711874577 42 610.5 L 42 589.5 C 42 588.119288125423 43.11928812542302 587 44.5 587 Z" fill-opacity="1"/><path fill="none" stroke="rgb(0,0,0)" paint-order="fill stroke markers" d=" M 44.5 587 L 65.5 587 C 66.88071187457699 587 68 588.119288125423 68 589.5 L 68 610.5 C 68 611.880711874577 66.88071187457699 613 65.5 613 L 44.5 613 C 43.11928812542302 613 42 611.880711874577 42 610.5 L 42 589.5 C 42 588.119288125423 43.11928812542302 587 44.5 587 Z" stroke-opacity="1" stroke-linecap="round" stroke-linejoin="round" stroke-miterlimit="10"/><text fill="rgb(0,0,0)" stroke="none" font-family="geogebra-sans-serif, sans-serif" font-size="20px" font-style="normal" font-weight="normal" text-decoration="normal" x="77" y="608" text-anchor="start" dominant-baseline="alphabetic" fill-opacity="1">Show Perimeter of Base</text><path fill="rgb(255,255,255)" stroke="none" paint-order="stroke fill markers" fill-rule="evenodd" d=" M 43.5 664 L 64.5 664 C 65.88071187457699 664 67 665.119288125423 67 666.5 L 67 687.5 C 67 688.880711874577 65.88071187457699 690 64.5 690 L 43.5 690 C 42.11928812542302 690 41 688.880711874577 41 687.5 L 41 666.5 C 41 665.119288125423 42.11928812542302 664 43.5 664 Z" fill-opacity="1"/><path fill="none" stroke="rgb(0,0,0)" paint-order="fill stroke markers" d=" M 43.5 664 L 64.5 664 C 65.88071187457699 664 67 665.119288125423 67 666.5 L 67 687.5 C 67 688.880711874577 65.88071187457699 690 64.5 690 L 43.5 690 C 42.11928812542302 690 41 688.880711874577 41 687.5 L 41 666.5 C 41 665.119288125423 42.11928812542302 664 43.5 664 Z" stroke-opacity="1" stroke-linecap="round" stroke-linejoin="round" stroke-miterlimit="10"/><text fill="rgb(0,0,0)" stroke="none" font-family="geogebra-sans-serif, sans-serif" font-size="20px" font-style="normal" font-weight="normal" text-decoration="normal" x="76" y="684" text-anchor="start" dominant-baseline="alphabetic" fill-opacity="1">Show the Height of Prism</text><path fill="rgb(255,255,255)" stroke="none" paint-order="stroke fill markers" fill-rule="evenodd" d=" M 183.5 461 L 204.5 461 C 205.88071187457697 461 207 462.119288125423 207 463.5 L 207 484.5 C 207 485.880711874577 205.88071187457697 487 204.5 487 L 183.5 487 C 182.11928812542303 487 181 485.880711874577 181 484.5 L 181 463.5 C 181 462.119288125423 182.11928812542303 461 183.5 461 Z" fill-opacity="1"/><path fill="none" stroke="rgb(0,0,0)" paint-order="fill stroke markers" d=" M 183.5 461 L 204.5 461 C 205.88071187457697 461 207 462.119288125423 207 463.5 L 207 484.5 C 207 485.880711874577 205.88071187457697 487 204.5 487 L 183.5 487 C 182.11928812542303 487 181 485.880711874577 181 484.5 L 181 463.5 C 181 462.119288125423 182.11928812542303 461 183.5 461 Z" stroke-opacity="1" stroke-linecap="round" stroke-linejoin="round" stroke-miterlimit="10"/><text fill="rgb(255,0,0)" stroke="none" font-family="geogebra-sans-serif, sans-serif" font-size="20px" font-style="normal" font-weight="normal" text-decoration="normal" x="216" y="482" text-anchor="start" dominant-baseline="alphabetic" fill-opacity="1">Start</text><path fill="rgb(102,102,102)" stroke="none" paint-order="stroke fill markers" fill-rule="evenodd" d=" M 509.6292688710628 310.90757423505397 L 610.4898225696609 310.90757423505397 L 610.4898225696609 302.73240819182365 L 509.6292688710628 302.73240819182365 Z" fill-opacity="0.09803921568627451"/><path fill="rgb(102,102,102)" stroke="none" paint-order="stroke fill markers" fill-rule="evenodd" d=" M 801.277202743712 310.90757423505397 L 700.4166490451139 310.90757423505397 L 700.4166490451139 302.73240819182365 L 801.277202743712 302.73240819182365 Z" fill-opacity="0.09803921568627451"/><path fill="rgb(102,102,102)" stroke="none" paint-order="stroke fill markers" fill-rule="evenodd" d=" M 656.162759550345 400.8344007105877 L 610.4898225696609 310.90757423505397 L 700.4166490451139 310.90757423505397 Z" fill-opacity="0.09803921568627451"/><path fill="rgb(102,102,102)" stroke="none" paint-order="stroke fill markers" fill-rule="evenodd" d=" M 656.162759550345 212.80558171628985 L 700.4166490451139 302.73240819182365 L 610.4898225696609 302.73240819182365 Z" fill-opacity="0.09803921568627451"/><path fill="rgb(102,102,102)" stroke="none" paint-order="stroke fill markers" fill-rule="evenodd" d=" M 610.4898225696609 310.90757423505397 L 610.4898225696609 302.73240819182365 L 700.4166490451139 302.73240819182365 L 700.4166490451139 310.90757423505397 Z" fill-opacity="0.09803921568627451"/><path fill="none" stroke="rgb(0,0,0)" paint-order="fill stroke markers" d=" M 610.4898225696609 310.90757423505397 L 700.4166490451139 310.90757423505397" stroke-opacity="1" stroke-linecap="round" stroke-linejoin="round" stroke-miterlimit="10"/><path fill="none" stroke="rgb(102,102,102)" paint-order="fill stroke markers" d=" M 509.6292688710628 310.90757423505397 L 610.4898225696609 310.90757423505397" stroke-opacity="1" stroke-linecap="round" stroke-linejoin="round" stroke-miterlimit="10"/><path fill="none" stroke="rgb(102,102,102)" paint-order="fill stroke markers" d=" M 610.4898225696609 310.90757423505397 L 610.4898225696609 302.73240819182365" stroke-opacity="1" stroke-linecap="round" stroke-linejoin="round" stroke-miterlimit="10"/><path fill="none" stroke="rgb(102,102,102)" paint-order="fill stroke markers" d=" M 610.4898225696609 302.73240819182365 L 509.6292688710628 302.73240819182365" stroke-opacity="1" stroke-linecap="round" stroke-linejoin="round" stroke-miterlimit="10"/><path fill="none" stroke="rgb(102,102,102)" paint-order="fill stroke markers" d=" M 509.6292688710628 302.73240819182365 L 509.6292688710628 310.90757423505397" stroke-opacity="1" stroke-linecap="round" stroke-linejoin="round" stroke-miterlimit="10"/><path fill="none" stroke="rgb(102,102,102)" paint-order="fill stroke markers" d=" M 801.277202743712 310.90757423505397 L 700.4166490451139 310.90757423505397" stroke-opacity="1" stroke-linecap="round" stroke-linejoin="round" stroke-miterlimit="10"/><path fill="none" stroke="rgb(102,102,102)" paint-order="fill stroke markers" d=" M 700.4166490451139 310.90757423505397 L 700.4166490451139 302.73240819182365" stroke-opacity="1" stroke-linecap="round" stroke-linejoin="round" stroke-miterlimit="10"/><path fill="none" stroke="rgb(102,102,102)" paint-order="fill stroke markers" d=" M 700.4166490451139 302.73240819182365 L 801.277202743712 302.73240819182365" stroke-opacity="1" stroke-linecap="round" stroke-linejoin="round" stroke-miterlimit="10"/><path fill="none" stroke="rgb(102,102,102)" paint-order="fill stroke markers" d=" M 801.277202743712 302.73240819182365 L 801.277202743712 310.90757423505397" stroke-opacity="1" stroke-linecap="round" stroke-linejoin="round" stroke-miterlimit="10"/><path fill="none" stroke="rgb(102,102,102)" paint-order="fill stroke markers" d=" M 656.162759550345 400.8344007105877 L 610.4898225696609 310.90757423505397" stroke-opacity="1" stroke-linecap="round" stroke-linejoin="round" stroke-miterlimit="10"/><path fill="none" stroke="rgb(102,102,102)" paint-order="fill stroke markers" d=" M 610.4898225696609 310.90757423505397 L 700.4166490451139 310.90757423505397" stroke-opacity="1" stroke-linecap="round" stroke-linejoin="round" stroke-miterlimit="10"/><path fill="none" stroke="rgb(102,102,102)" paint-order="fill stroke markers" d=" M 700.4166490451139 310.90757423505397 L 656.162759550345 400.8344007105877" stroke-opacity="1" stroke-linecap="round" stroke-linejoin="round" stroke-miterlimit="10"/><path fill="none" stroke="rgb(102,102,102)" paint-order="fill stroke markers" d=" M 656.162759550345 212.80558171628985 L 700.4166490451139 302.73240819182365" stroke-opacity="1" stroke-linecap="round" stroke-linejoin="round" stroke-miterlimit="10"/><path fill="none" stroke="rgb(102,102,102)" paint-order="fill stroke markers" d=" M 700.4166490451139 302.73240819182365 L 610.4898225696609 302.73240819182365" stroke-opacity="1" stroke-linecap="round" stroke-linejoin="round" stroke-miterlimit="10"/><path fill="none" stroke="rgb(102,102,102)" paint-order="fill stroke markers" d=" M 610.4898225696609 302.73240819182365 L 656.162759550345 212.80558171628985" stroke-opacity="1" stroke-linecap="round" stroke-linejoin="round" stroke-miterlimit="10"/><path fill="none" stroke="rgb(102,102,102)" paint-order="fill stroke markers" d=" M 610.4898225696609 310.90757423505397 L 610.4898225696609 302.73240819182365" stroke-opacity="1" stroke-linecap="round" stroke-linejoin="round" stroke-miterlimit="10"/><path fill="none" stroke="rgb(102,102,102)" paint-order="fill stroke markers" d=" M 610.4898225696609 302.73240819182365 L 700.4166490451139 302.73240819182365" stroke-opacity="1" stroke-linecap="round" stroke-linejoin="round" stroke-miterlimit="10"/><path fill="none" stroke="rgb(102,102,102)" paint-order="fill stroke markers" d=" M 700.4166490451139 302.73240819182365 L 700.4166490451139 310.90757423505397" stroke-opacity="1" stroke-linecap="round" stroke-linejoin="round" stroke-miterlimit="10"/><path fill="none" stroke="rgb(102,102,102)" paint-order="fill stroke markers" d=" M 700.4166490451139 310.90757423505397 L 610.4898225696609 310.90757423505397" stroke-opacity="1" stroke-linecap="round" stroke-linejoin="round" stroke-miterlimit="10"/><path fill="none" stroke="rgb(0,100,0)" paint-order="fill stroke markers" d=" M 137.5 522.5 L 317.5 522.5" stroke-opacity="0.2" stroke-linecap="round" stroke-linejoin="round" stroke-miterlimit="10" stroke-width="5"/><path fill="rgb(0,100,0)" stroke="none" paint-order="stroke fill markers" d=" M 146 522.5 C 146 527.1944203735618 142.19442037356174 531 137.5 531 C 132.80557962643826 531 129 527.1944203735618 129 522.5 C 129 517.8055796264382 132.80557962643826 514 137.5 514 C 142.19442037356174 514 146 517.8055796264382 146 522.5 Z" fill-opacity="0.2"/><path fill="none" stroke="rgb(0,100,0)" paint-order="fill stroke markers" d=" M 146 522.5 C 146 527.1944203735618 142.19442037356174 531 137.5 531 C 132.80557962643826 531 129 527.1944203735618 129 522.5 C 129 517.8055796264382 132.80557962643826 514 137.5 514 C 142.19442037356174 514 146 517.8055796264382 146 522.5 Z" stroke-opacity="0.2" stroke-linecap="round" stroke-linejoin="round" stroke-miterlimit="10"/><path fill="rgb(0,100,0)" stroke="none" paint-order="stroke fill markers" d=" M 143 522.5 C 143 525.5375661240694 140.53756612406937 528 137.5 528 C 134.46243387593063 528 132 525.5375661240694 132 522.5 C 132 519.4624338759306 134.46243387593063 517 137.5 517 C 140.53756612406937 517 143 519.4624338759306 143 522.5 Z" fill-opacity="1"/><path fill="none" stroke="rgb(0,0,0)" paint-order="fill stroke markers" d=" M 143 522.5 C 143 525.5375661240694 140.53756612406937 528 137.5 528 C 134.46243387593063 528 132 525.5375661240694 132 522.5 C 132 519.4624338759306 134.46243387593063 517 137.5 517 C 140.53756612406937 517 143 519.4624338759306 143 522.5 Z" stroke-opacity="1" stroke-linecap="round" stroke-linejoin="round" stroke-miterlimit="10"/><path fill="none" stroke="rgb(0,0,0)" paint-order="fill stroke markers" d=" M 98.5 119.5 L 298.5 119.5" stroke-opacity="0.39215686274509803" stroke-linecap="round" stroke-linejoin="round" stroke-miterlimit="10" stroke-width="5"/><path fill="rgb(0,0,0)" stroke="none" paint-order="stroke fill markers" d=" M 217 119.5 C 217 124.19442037356174 213.19442037356174 128 208.5 128 C 203.80557962643826 128 200 124.19442037356174 200 119.5 C 200 114.80557962643826 203.80557962643826 111 208.5 111 C 213.19442037356174 111 217 114.80557962643826 217 119.5 Z" fill-opacity="0.39215686274509803"/><path fill="none" stroke="rgb(0,0,0)" paint-order="fill stroke markers" d=" M 217 119.5 C 217 124.19442037356174 213.19442037356174 128 208.5 128 C 203.80557962643826 128 200 124.19442037356174 200 119.5 C 200 114.80557962643826 203.80557962643826 111 208.5 111 C 213.19442037356174 111 217 114.80557962643826 217 119.5 Z" stroke-opacity="0.39215686274509803" stroke-linecap="round" stroke-linejoin="round" stroke-miterlimit="10"/><path fill="rgb(0,0,0)" stroke="none" paint-order="stroke fill markers" d=" M 214 119.5 C 214 122.53756612406936 211.53756612406937 125 208.5 125 C 205.46243387593063 125 203 122.53756612406936 203 119.5 C 203 116.46243387593064 205.46243387593063 114 208.5 114 C 211.53756612406937 114 214 116.46243387593064 214 119.5 Z" fill-opacity="1"/><path fill="none" stroke="rgb(0,0,0)" paint-order="fill stroke markers" d=" M 214 119.5 C 214 122.53756612406936 211.53756612406937 125 208.5 125 C 205.46243387593063 125 203 122.53756612406936 203 119.5 C 203 116.46243387593064 205.46243387593063 114 208.5 114 C 211.53756612406937 114 214 116.46243387593064 214 119.5 Z" stroke-opacity="1" stroke-linecap="round" stroke-linejoin="round" stroke-miterlimit="10"/><path fill="none" stroke="rgb(0,0,0)" paint-order="fill stroke markers" d=" M 102.5 395.5 L 302.5 395.5" stroke-opacity="0.39215686274509803" stroke-linecap="round" stroke-linejoin="round" stroke-miterlimit="10" stroke-width="5"/><path fill="rgb(0,0,0)" stroke="none" paint-order="stroke fill markers" d=" M 121.00000000000006 395.5 C 121.00000000000006 400.19442037356174 117.1944203735618 404 112.50000000000006 404 C 107.80557962643832 404 104.00000000000006 400.19442037356174 104.00000000000006 395.5 C 104.00000000000006 390.80557962643826 107.80557962643832 387 112.50000000000006 387 C 117.1944203735618 387 121.00000000000006 390.80557962643826 121.00000000000006 395.5 Z" fill-opacity="0.39215686274509803"/><path fill="none" stroke="rgb(0,0,0)" paint-order="fill stroke markers" d=" M 121.00000000000006 395.5 C 121.00000000000006 400.19442037356174 117.1944203735618 404 112.50000000000006 404 C 107.80557962643832 404 104.00000000000006 400.19442037356174 104.00000000000006 395.5 C 104.00000000000006 390.80557962643826 107.80557962643832 387 112.50000000000006 387 C 117.1944203735618 387 121.00000000000006 390.80557962643826 121.00000000000006 395.5 Z" stroke-opacity="0.39215686274509803" stroke-linecap="round" stroke-linejoin="round" stroke-miterlimit="10"/><path fill="rgb(0,0,0)" stroke="none" paint-order="stroke fill markers" d=" M 118.00000000000006 395.5 C 118.00000000000006 398.5375661240694 115.53756612406941 401 112.50000000000006 401 C 109.4624338759307 401 107.00000000000006 398.5375661240694 107.00000000000006 395.5 C 107.00000000000006 392.4624338759306 109.4624338759307 390 112.50000000000006 390 C 115.53756612406941 390 118.00000000000006 392.4624338759306 118.00000000000006 395.5 Z" fill-opacity="1"/><path fill="none" stroke="rgb(0,0,0)" paint-order="fill stroke markers" d=" M 118.00000000000006 395.5 C 118.00000000000006 398.5375661240694 115.53756612406941 401 112.50000000000006 401 C 109.4624338759307 401 107.00000000000006 398.5375661240694 107.00000000000006 395.5 C 107.00000000000006 392.4624338759306 109.4624338759307 390 112.50000000000006 390 C 115.53756612406941 390 118.00000000000006 392.4624338759306 118.00000000000006 395.5 Z" stroke-opacity="1" stroke-linecap="round" stroke-linejoin="round" stroke-miterlimit="10"/><path fill="none" stroke="rgb(0,0,0)" paint-order="fill stroke markers" d=" M 103.5 251.5 L 303.5 251.5" stroke-opacity="0.39215686274509803" stroke-linecap="round" stroke-linejoin="round" stroke-miterlimit="10" stroke-width="5"/><path fill="rgb(0,0,0)" stroke="none" paint-order="stroke fill markers" d=" M 222 251.5 C 222 256.19442037356174 218.19442037356174 260 213.5 260 C 208.80557962643826 260 205 256.19442037356174 205 251.5 C 205 246.80557962643826 208.80557962643826 243 213.5 243 C 218.19442037356174 243 222 246.80557962643826 222 251.5 Z" fill-opacity="0.39215686274509803"/><path fill="none" stroke="rgb(0,0,0)" paint-order="fill stroke markers" d=" M 222 251.5 C 222 256.19442037356174 218.19442037356174 260 213.5 260 C 208.80557962643826 260 205 256.19442037356174 205 251.5 C 205 246.80557962643826 208.80557962643826 243 213.5 243 C 218.19442037356174 243 222 246.80557962643826 222 251.5 Z" stroke-opacity="0.39215686274509803" stroke-linecap="round" stroke-linejoin="round" stroke-miterlimit="10"/><path fill="rgb(0,0,0)" stroke="none" paint-order="stroke fill markers" d=" M 219 251.5 C 219 254.53756612406937 216.53756612406937 257 213.5 257 C 210.46243387593063 257 208 254.53756612406937 208 251.5 C 208 248.46243387593063 210.46243387593063 246 213.5 246 C 216.53756612406937 246 219 248.46243387593063 219 251.5 Z" fill-opacity="1"/><path fill="none" stroke="rgb(0,0,0)" paint-order="fill stroke markers" d=" M 219 251.5 C 219 254.53756612406937 216.53756612406937 257 213.5 257 C 210.46243387593063 257 208 254.53756612406937 208 251.5 C 208 248.46243387593063 210.46243387593063 246 213.5 246 C 216.53756612406937 246 219 248.46243387593063 219 251.5 Z" stroke-opacity="1" stroke-linecap="round" stroke-linejoin="round" stroke-miterlimit="10"/><text fill="rgb(0,0,255)" stroke="none" font-family="geogebra-sans-serif, sans-serif" font-size="28px" font-style="normal" font-weight="normal" text-decoration="normal" x="28" y="77" text-anchor="start" dominant-baseline="alphabetic" fill-opacity="1">Base of Triangle = 5.5 cm</text><text fill="rgb(0,0,255)" stroke="none" font-family="geogebra-sans-serif, sans-serif" font-size="28px" font-style="normal" font-weight="normal" text-decoration="normal" x="28" y="205" text-anchor="start" dominant-baseline="alphabetic" fill-opacity="1">Height of Triangle = 5.5 cm</text><text fill="rgb(0,0,255)" stroke="none" font-family="geogebra-sans-serif, sans-serif" font-size="28px" font-style="normal" font-weight="normal" text-decoration="normal" x="32" y="341" text-anchor="start" dominant-baseline="alphabetic" fill-opacity="1">Height of Prism = 0.5 cm</text><text fill="rgb(0,0,255)" stroke="none" font-family="geogebra-sans-serif, sans-serif" font-size="28px" font-style="normal" font-weight="normal" text-decoration="normal" x="84" y="485" text-anchor="start" dominant-baseline="alphabetic" fill-opacity="1">Open</text><text fill="rgb(0,0,255)" stroke="none" font-family="geogebra-sans-serif, sans-serif" font-size="28px" font-style="normal" font-weight="normal" text-decoration="normal" x="280" y="487" text-anchor="start" dominant-baseline="alphabetic" fill-opacity="1">Close</text></g></g></svg>