<svg version="1.1" xmlns="http://www.w3.org/2000/svg" xmlns:xlink="http://www.w3.org/1999/xlink" width="298" height="189"><defs><clipPath id="tVdgkxVouwzn"><path fill="none" stroke="none" d=" M 0 0 L 298 0 L 298 189 L 0 189 L 0 0 Z"/></clipPath></defs><g transform="scale(1,1)" clip-path="url(#tVdgkxVouwzn)"><g transform="translate(-515,-180)"><rect fill="rgb(255,255,255)" stroke="none" x="0" y="0" width="980" height="516" fill-opacity="1"/><path fill="rgb(255,255,255)" stroke="none" paint-order="stroke fill markers" fill-rule="evenodd" d=" M 44.5 587 L 65.5 587 C 66.88071187457699 587 68 588.119288125423 68 589.5 L 68 610.5 C 68 611.880711874577 66.88071187457699 613 65.5 613 L 44.5 613 C 43.11928812542302 613 42 611.880711874577 42 610.5 L 42 589.5 C 42 588.119288125423 43.11928812542302 587 44.5 587 Z" fill-opacity="1"/><path fill="none" stroke="rgb(0,0,0)" paint-order="fill stroke markers" d=" M 44.5 587 L 65.5 587 C 66.88071187457699 587 68 588.119288125423 68 589.5 L 68 610.5 C 68 611.880711874577 66.88071187457699 613 65.5 613 L 44.5 613 C 43.11928812542302 613 42 611.880711874577 42 610.5 L 42 589.5 C 42 588.119288125423 43.11928812542302 587 44.5 587 Z" stroke-opacity="1" stroke-linecap="round" stroke-linejoin="round" stroke-miterlimit="10"/><text fill="rgb(0,0,0)" stroke="none" font-family="geogebra-sans-serif, sans-serif" font-size="20px" font-style="normal" font-weight="normal" text-decoration="normal" x="77" y="608" text-anchor="start" dominant-baseline="alphabetic" fill-opacity="1">Show Perimeter of Base</text><path fill="rgb(255,255,255)" stroke="none" paint-order="stroke fill markers" fill-rule="evenodd" d=" M 43.5 664 L 64.5 664 C 65.88071187457699 664 67 665.119288125423 67 666.5 L 67 687.5 C 67 688.880711874577 65.88071187457699 690 64.5 690 L 43.5 690 C 42.11928812542302 690 41 688.880711874577 41 687.5 L 41 666.5 C 41 665.119288125423 42.11928812542302 664 43.5 664 Z" fill-opacity="1"/><path fill="none" stroke="rgb(0,0,0)" paint-order="fill stroke markers" d=" M 43.5 664 L 64.5 664 C 65.88071187457699 664 67 665.119288125423 67 666.5 L 67 687.5 C 67 688.880711874577 65.88071187457699 690 64.5 690 L 43.5 690 C 42.11928812542302 690 41 688.880711874577 41 687.5 L 41 666.5 C 41 665.119288125423 42.11928812542302 664 43.5 664 Z" stroke-opacity="1" stroke-linecap="round" stroke-linejoin="round" stroke-miterlimit="10"/><text fill="rgb(0,0,0)" stroke="none" font-family="geogebra-sans-serif, sans-serif" font-size="20px" font-style="normal" font-weight="normal" text-decoration="normal" x="76" y="684" text-anchor="start" dominant-baseline="alphabetic" fill-opacity="1">Show the Height of Prism</text><path fill="rgb(255,255,255)" stroke="none" paint-order="stroke fill markers" fill-rule="evenodd" d=" M 183.5 461 L 204.5 461 C 205.88071187457697 461 207 462.119288125423 207 463.5 L 207 484.5 C 207 485.880711874577 205.88071187457697 487 204.5 487 L 183.5 487 C 182.11928812542303 487 181 485.880711874577 181 484.5 L 181 463.5 C 181 462.119288125423 182.11928812542303 461 183.5 461 Z" fill-opacity="1"/><path fill="none" stroke="rgb(0,0,0)" paint-order="fill stroke markers" d=" M 183.5 461 L 204.5 461 C 205.88071187457697 461 207 462.119288125423 207 463.5 L 207 484.5 C 207 485.880711874577 205.88071187457697 487 204.5 487 L 183.5 487 C 182.11928812542303 487 181 485.880711874577 181 484.5 L 181 463.5 C 181 462.119288125423 182.11928812542303 461 183.5 461 Z" stroke-opacity="1" stroke-linecap="round" stroke-linejoin="round" stroke-miterlimit="10"/><text fill="rgb(255,0,0)" stroke="none" font-family="geogebra-sans-serif, sans-serif" font-size="20px" font-style="normal" font-weight="normal" text-decoration="normal" x="216" y="482" text-anchor="start" dominant-baseline="alphabetic" fill-opacity="1">Start</text><path fill="rgb(102,102,102)" stroke="none" paint-order="stroke fill markers" fill-rule="evenodd" d=" M 546.7452037926116 310.90757423505397 L 610.4898225696609 310.90757423505397 L 610.4898225696609 232.42598022004267 L 546.7452037926116 232.42598022004267 Z" fill-opacity="0.09803921568627451"/><path fill="rgb(102,102,102)" stroke="none" paint-order="stroke fill markers" fill-rule="evenodd" d=" M 788.6867659518322 310.90757423505397 L 724.9421471747829 310.90757423505397 L 724.9421471747829 232.42598022004267 L 788.6867659518322 232.42598022004267 Z" fill-opacity="0.09803921568627451"/><path fill="rgb(102,102,102)" stroke="none" paint-order="stroke fill markers" fill-rule="evenodd" d=" M 668.6190150905315 337.06810557339105 L 610.4898225696609 310.90757423505397 L 724.9421471747829 310.90757423505397 Z" fill-opacity="0.09803921568627451"/><path fill="rgb(102,102,102)" stroke="none" paint-order="stroke fill markers" fill-rule="evenodd" d=" M 668.6190150905315 206.2654488817056 L 724.9421471747829 232.42598022004267 L 610.4898225696609 232.42598022004267 Z" fill-opacity="0.09803921568627451"/><path fill="rgb(102,102,102)" stroke="none" paint-order="stroke fill markers" fill-rule="evenodd" d=" M 610.4898225696609 310.90757423505397 L 610.4898225696609 232.42598022004267 L 724.9421471747829 232.42598022004267 L 724.9421471747829 310.90757423505397 Z" fill-opacity="0.09803921568627451"/><path fill="none" stroke="rgb(0,0,0)" paint-order="fill stroke markers" d=" M 610.4898225696609 310.90757423505397 L 724.9421471747829 310.90757423505397" stroke-opacity="1" stroke-linecap="round" stroke-linejoin="round" stroke-miterlimit="10"/><path fill="none" stroke="rgb(102,102,102)" paint-order="fill stroke markers" d=" M 546.7452037926116 310.90757423505397 L 610.4898225696609 310.90757423505397" stroke-opacity="1" stroke-linecap="round" stroke-linejoin="round" stroke-miterlimit="10"/><path fill="none" stroke="rgb(102,102,102)" paint-order="fill stroke markers" d=" M 610.4898225696609 310.90757423505397 L 610.4898225696609 232.42598022004267" stroke-opacity="1" stroke-linecap="round" stroke-linejoin="round" stroke-miterlimit="10"/><path fill="none" stroke="rgb(102,102,102)" paint-order="fill stroke markers" d=" M 610.4898225696609 232.42598022004267 L 546.7452037926116 232.42598022004267" stroke-opacity="1" stroke-linecap="round" stroke-linejoin="round" stroke-miterlimit="10"/><path fill="none" stroke="rgb(102,102,102)" paint-order="fill stroke markers" d=" M 546.7452037926116 232.42598022004267 L 546.7452037926116 310.90757423505397" stroke-opacity="1" stroke-linecap="round" stroke-linejoin="round" stroke-miterlimit="10"/><path fill="none" stroke="rgb(102,102,102)" paint-order="fill stroke markers" d=" M 788.6867659518322 310.90757423505397 L 724.9421471747829 310.90757423505397" stroke-opacity="1" stroke-linecap="round" stroke-linejoin="round" stroke-miterlimit="10"/><path fill="none" stroke="rgb(102,102,102)" paint-order="fill stroke markers" d=" M 724.9421471747829 310.90757423505397 L 724.9421471747829 232.42598022004267" stroke-opacity="1" stroke-linecap="round" stroke-linejoin="round" stroke-miterlimit="10"/><path fill="none" stroke="rgb(102,102,102)" paint-order="fill stroke markers" d=" M 724.9421471747829 232.42598022004267 L 788.6867659518322 232.42598022004267" stroke-opacity="1" stroke-linecap="round" stroke-linejoin="round" stroke-miterlimit="10"/><path fill="none" stroke="rgb(102,102,102)" paint-order="fill stroke markers" d=" M 788.6867659518322 232.42598022004267 L 788.6867659518322 310.90757423505397" stroke-opacity="1" stroke-linecap="round" stroke-linejoin="round" stroke-miterlimit="10"/><path fill="none" stroke="rgb(102,102,102)" paint-order="fill stroke markers" d=" M 668.6190150905315 337.06810557339105 L 610.4898225696609 310.90757423505397" stroke-opacity="1" stroke-linecap="round" stroke-linejoin="round" stroke-miterlimit="10"/><path fill="none" stroke="rgb(102,102,102)" paint-order="fill stroke markers" d=" M 610.4898225696609 310.90757423505397 L 724.9421471747829 310.90757423505397" stroke-opacity="1" stroke-linecap="round" stroke-linejoin="round" stroke-miterlimit="10"/><path fill="none" stroke="rgb(102,102,102)" paint-order="fill stroke markers" d=" M 724.9421471747829 310.90757423505397 L 668.6190150905315 337.06810557339105" stroke-opacity="1" stroke-linecap="round" stroke-linejoin="round" stroke-miterlimit="10"/><path fill="none" stroke="rgb(102,102,102)" paint-order="fill stroke markers" d=" M 668.6190150905315 206.2654488817056 L 724.9421471747829 232.42598022004267" stroke-opacity="1" stroke-linecap="round" stroke-linejoin="round" stroke-miterlimit="10"/><path fill="none" stroke="rgb(102,102,102)" paint-order="fill stroke markers" d=" M 724.9421471747829 232.42598022004267 L 610.4898225696609 232.42598022004267" stroke-opacity="1" stroke-linecap="round" stroke-linejoin="round" stroke-miterlimit="10"/><path fill="none" stroke="rgb(102,102,102)" paint-order="fill stroke markers" d=" M 610.4898225696609 232.42598022004267 L 668.6190150905315 206.2654488817056" stroke-opacity="1" stroke-linecap="round" stroke-linejoin="round" stroke-miterlimit="10"/><path fill="none" stroke="rgb(102,102,102)" paint-order="fill stroke markers" d=" M 610.4898225696609 310.90757423505397 L 610.4898225696609 232.42598022004267" stroke-opacity="1" stroke-linecap="round" stroke-linejoin="round" stroke-miterlimit="10"/><path fill="none" stroke="rgb(102,102,102)" paint-order="fill stroke markers" d=" M 610.4898225696609 232.42598022004267 L 724.9421471747829 232.42598022004267" stroke-opacity="1" stroke-linecap="round" stroke-linejoin="round" stroke-miterlimit="10"/><path fill="none" stroke="rgb(102,102,102)" paint-order="fill stroke markers" d=" M 724.9421471747829 232.42598022004267 L 724.9421471747829 310.90757423505397" stroke-opacity="1" stroke-linecap="round" stroke-linejoin="round" stroke-miterlimit="10"/><path fill="none" stroke="rgb(102,102,102)" paint-order="fill stroke markers" d=" M 724.9421471747829 310.90757423505397 L 610.4898225696609 310.90757423505397" stroke-opacity="1" stroke-linecap="round" stroke-linejoin="round" stroke-miterlimit="10"/><path fill="none" stroke="rgb(0,100,0)" paint-order="fill stroke markers" d=" M 137.5 522.5 L 317.5 522.5" stroke-opacity="0.2" stroke-linecap="round" stroke-linejoin="round" stroke-miterlimit="10" stroke-width="5"/><path fill="rgb(0,100,0)" stroke="none" paint-order="stroke fill markers" d=" M 146 522.5 C 146 527.1944203735618 142.19442037356174 531 137.5 531 C 132.80557962643826 531 129 527.1944203735618 129 522.5 C 129 517.8055796264382 132.80557962643826 514 137.5 514 C 142.19442037356174 514 146 517.8055796264382 146 522.5 Z" fill-opacity="0.2"/><path fill="none" stroke="rgb(0,100,0)" paint-order="fill stroke markers" d=" M 146 522.5 C 146 527.1944203735618 142.19442037356174 531 137.5 531 C 132.80557962643826 531 129 527.1944203735618 129 522.5 C 129 517.8055796264382 132.80557962643826 514 137.5 514 C 142.19442037356174 514 146 517.8055796264382 146 522.5 Z" stroke-opacity="0.2" stroke-linecap="round" stroke-linejoin="round" stroke-miterlimit="10"/><path fill="rgb(0,100,0)" stroke="none" paint-order="stroke fill markers" d=" M 143 522.5 C 143 525.5375661240694 140.53756612406937 528 137.5 528 C 134.46243387593063 528 132 525.5375661240694 132 522.5 C 132 519.4624338759306 134.46243387593063 517 137.5 517 C 140.53756612406937 517 143 519.4624338759306 143 522.5 Z" fill-opacity="1"/><path fill="none" stroke="rgb(0,0,0)" paint-order="fill stroke markers" d=" M 143 522.5 C 143 525.5375661240694 140.53756612406937 528 137.5 528 C 134.46243387593063 528 132 525.5375661240694 132 522.5 C 132 519.4624338759306 134.46243387593063 517 137.5 517 C 140.53756612406937 517 143 519.4624338759306 143 522.5 Z" stroke-opacity="1" stroke-linecap="round" stroke-linejoin="round" stroke-miterlimit="10"/><path fill="none" stroke="rgb(0,0,0)" paint-order="fill stroke markers" d=" M 98.5 119.5 L 298.5 119.5" stroke-opacity="0.39215686274509803" stroke-linecap="round" stroke-linejoin="round" stroke-miterlimit="10" stroke-width="5"/><path fill="rgb(0,0,0)" stroke="none" paint-order="stroke fill markers" d=" M 247 119.5 C 247 124.19442037356174 243.19442037356174 128 238.5 128 C 233.80557962643826 128 230 124.19442037356174 230 119.5 C 230 114.80557962643826 233.80557962643826 111 238.5 111 C 243.19442037356174 111 247 114.80557962643826 247 119.5 Z" fill-opacity="0.39215686274509803"/><path fill="none" stroke="rgb(0,0,0)" paint-order="fill stroke markers" d=" M 247 119.5 C 247 124.19442037356174 243.19442037356174 128 238.5 128 C 233.80557962643826 128 230 124.19442037356174 230 119.5 C 230 114.80557962643826 233.80557962643826 111 238.5 111 C 243.19442037356174 111 247 114.80557962643826 247 119.5 Z" stroke-opacity="0.39215686274509803" stroke-linecap="round" stroke-linejoin="round" stroke-miterlimit="10"/><path fill="rgb(0,0,0)" stroke="none" paint-order="stroke fill markers" d=" M 244 119.5 C 244 122.53756612406936 241.53756612406937 125 238.5 125 C 235.46243387593063 125 233 122.53756612406936 233 119.5 C 233 116.46243387593064 235.46243387593063 114 238.5 114 C 241.53756612406937 114 244 116.46243387593064 244 119.5 Z" fill-opacity="1"/><path fill="none" stroke="rgb(0,0,0)" paint-order="fill stroke markers" d=" M 244 119.5 C 244 122.53756612406936 241.53756612406937 125 238.5 125 C 235.46243387593063 125 233 122.53756612406936 233 119.5 C 233 116.46243387593064 235.46243387593063 114 238.5 114 C 241.53756612406937 114 244 116.46243387593064 244 119.5 Z" stroke-opacity="1" stroke-linecap="round" stroke-linejoin="round" stroke-miterlimit="10"/><path fill="none" stroke="rgb(0,0,0)" paint-order="fill stroke markers" d=" M 102.5 395.5 L 302.5 395.5" stroke-opacity="0.39215686274509803" stroke-linecap="round" stroke-linejoin="round" stroke-miterlimit="10" stroke-width="5"/><path fill="rgb(0,0,0)" stroke="none" paint-order="stroke fill markers" d=" M 207 395.5 C 207 400.19442037356174 203.19442037356174 404 198.5 404 C 193.80557962643826 404 190 400.19442037356174 190 395.5 C 190 390.80557962643826 193.80557962643826 387 198.5 387 C 203.19442037356174 387 207 390.80557962643826 207 395.5 Z" fill-opacity="0.39215686274509803"/><path fill="none" stroke="rgb(0,0,0)" paint-order="fill stroke markers" d=" M 207 395.5 C 207 400.19442037356174 203.19442037356174 404 198.5 404 C 193.80557962643826 404 190 400.19442037356174 190 395.5 C 190 390.80557962643826 193.80557962643826 387 198.5 387 C 203.19442037356174 387 207 390.80557962643826 207 395.5 Z" stroke-opacity="0.39215686274509803" stroke-linecap="round" stroke-linejoin="round" stroke-miterlimit="10"/><path fill="rgb(0,0,0)" stroke="none" paint-order="stroke fill markers" d=" M 204 395.5 C 204 398.5375661240694 201.53756612406937 401 198.5 401 C 195.46243387593063 401 193 398.5375661240694 193 395.5 C 193 392.4624338759306 195.46243387593063 390 198.5 390 C 201.53756612406937 390 204 392.4624338759306 204 395.5 Z" fill-opacity="1"/><path fill="none" stroke="rgb(0,0,0)" paint-order="fill stroke markers" d=" M 204 395.5 C 204 398.5375661240694 201.53756612406937 401 198.5 401 C 195.46243387593063 401 193 398.5375661240694 193 395.5 C 193 392.4624338759306 195.46243387593063 390 198.5 390 C 201.53756612406937 390 204 392.4624338759306 204 395.5 Z" stroke-opacity="1" stroke-linecap="round" stroke-linejoin="round" stroke-miterlimit="10"/><path fill="none" stroke="rgb(0,0,0)" paint-order="fill stroke markers" d=" M 103.5 251.5 L 303.5 251.5" stroke-opacity="0.39215686274509803" stroke-linecap="round" stroke-linejoin="round" stroke-miterlimit="10" stroke-width="5"/><path fill="rgb(0,0,0)" stroke="none" paint-order="stroke fill markers" d=" M 144.00000000000006 251.5 C 144.00000000000006 256.19442037356174 140.1944203735618 260 135.50000000000006 260 C 130.80557962643832 260 127.00000000000006 256.19442037356174 127.00000000000006 251.5 C 127.00000000000006 246.80557962643826 130.80557962643832 243 135.50000000000006 243 C 140.1944203735618 243 144.00000000000006 246.80557962643826 144.00000000000006 251.5 Z" fill-opacity="0.39215686274509803"/><path fill="none" stroke="rgb(0,0,0)" paint-order="fill stroke markers" d=" M 144.00000000000006 251.5 C 144.00000000000006 256.19442037356174 140.1944203735618 260 135.50000000000006 260 C 130.80557962643832 260 127.00000000000006 256.19442037356174 127.00000000000006 251.5 C 127.00000000000006 246.80557962643826 130.80557962643832 243 135.50000000000006 243 C 140.1944203735618 243 144.00000000000006 246.80557962643826 144.00000000000006 251.5 Z" stroke-opacity="0.39215686274509803" stroke-linecap="round" stroke-linejoin="round" stroke-miterlimit="10"/><path fill="rgb(0,0,0)" stroke="none" paint-order="stroke fill markers" d=" M 141.00000000000006 251.5 C 141.00000000000006 254.53756612406937 138.53756612406943 257 135.50000000000006 257 C 132.46243387593069 257 130.00000000000006 254.53756612406937 130.00000000000006 251.5 C 130.00000000000006 248.46243387593063 132.46243387593069 246 135.50000000000006 246 C 138.53756612406943 246 141.00000000000006 248.46243387593063 141.00000000000006 251.5 Z" fill-opacity="1"/><path fill="none" stroke="rgb(0,0,0)" paint-order="fill stroke markers" d=" M 141.00000000000006 251.5 C 141.00000000000006 254.53756612406937 138.53756612406943 257 135.50000000000006 257 C 132.46243387593069 257 130.00000000000006 254.53756612406937 130.00000000000006 251.5 C 130.00000000000006 248.46243387593063 132.46243387593069 246 135.50000000000006 246 C 138.53756612406943 246 141.00000000000006 248.46243387593063 141.00000000000006 251.5 Z" stroke-opacity="1" stroke-linecap="round" stroke-linejoin="round" stroke-miterlimit="10"/><text fill="rgb(0,0,255)" stroke="none" font-family="geogebra-sans-serif, sans-serif" font-size="28px" font-style="normal" font-weight="normal" text-decoration="normal" x="28" y="77" text-anchor="start" dominant-baseline="alphabetic" fill-opacity="1">Base of Triangle = 7 cm</text><text fill="rgb(0,0,255)" stroke="none" font-family="geogebra-sans-serif, sans-serif" font-size="28px" font-style="normal" font-weight="normal" text-decoration="normal" x="28" y="205" text-anchor="start" dominant-baseline="alphabetic" fill-opacity="1">Height of Triangle = 1.6 cm</text><text fill="rgb(0,0,255)" stroke="none" font-family="geogebra-sans-serif, sans-serif" font-size="28px" font-style="normal" font-weight="normal" text-decoration="normal" x="32" y="341" text-anchor="start" dominant-baseline="alphabetic" fill-opacity="1">Height of Prism = 4.8 cm</text><text fill="rgb(0,0,255)" stroke="none" font-family="geogebra-sans-serif, sans-serif" font-size="28px" font-style="normal" font-weight="normal" text-decoration="normal" x="84" y="485" text-anchor="start" dominant-baseline="alphabetic" fill-opacity="1">Open</text><text fill="rgb(0,0,255)" stroke="none" font-family="geogebra-sans-serif, sans-serif" font-size="28px" font-style="normal" font-weight="normal" text-decoration="normal" x="280" y="487" text-anchor="start" dominant-baseline="alphabetic" fill-opacity="1">Close</text></g></g></svg>