<svg version="1.1" xmlns="http://www.w3.org/2000/svg" xmlns:xlink="http://www.w3.org/1999/xlink" width="393" height="242"><defs><clipPath id="SHantRaFEbxo"><path fill="none" stroke="none" d=" M 0 0 L 393 0 L 393 242 L 0 242 L 0 0 Z"/></clipPath></defs><g transform="scale(1,1)" clip-path="url(#SHantRaFEbxo)"><g transform="translate(-479,-172)"><rect fill="rgb(255,255,255)" stroke="none" x="0" y="0" width="980" height="516" fill-opacity="1"/><path fill="rgb(255,255,255)" stroke="none" paint-order="stroke fill markers" fill-rule="evenodd" d=" M 44.5 587 L 65.5 587 C 66.88071187457699 587 68 588.119288125423 68 589.5 L 68 610.5 C 68 611.880711874577 66.88071187457699 613 65.5 613 L 44.5 613 C 43.11928812542302 613 42 611.880711874577 42 610.5 L 42 589.5 C 42 588.119288125423 43.11928812542302 587 44.5 587 Z" fill-opacity="1"/><path fill="none" stroke="rgb(0,0,0)" paint-order="fill stroke markers" d=" M 44.5 587 L 65.5 587 C 66.88071187457699 587 68 588.119288125423 68 589.5 L 68 610.5 C 68 611.880711874577 66.88071187457699 613 65.5 613 L 44.5 613 C 43.11928812542302 613 42 611.880711874577 42 610.5 L 42 589.5 C 42 588.119288125423 43.11928812542302 587 44.5 587 Z" stroke-opacity="1" stroke-linecap="round" stroke-linejoin="round" stroke-miterlimit="10"/><text fill="rgb(0,0,0)" stroke="none" font-family="geogebra-sans-serif, sans-serif" font-size="20px" font-style="normal" font-weight="normal" text-decoration="normal" x="77" y="608" text-anchor="start" dominant-baseline="alphabetic" fill-opacity="1">Show Perimeter of Base</text><path fill="rgb(255,255,255)" stroke="none" paint-order="stroke fill markers" fill-rule="evenodd" d=" M 43.5 664 L 64.5 664 C 65.88071187457699 664 67 665.119288125423 67 666.5 L 67 687.5 C 67 688.880711874577 65.88071187457699 690 64.5 690 L 43.5 690 C 42.11928812542302 690 41 688.880711874577 41 687.5 L 41 666.5 C 41 665.119288125423 42.11928812542302 664 43.5 664 Z" fill-opacity="1"/><path fill="none" stroke="rgb(0,0,0)" paint-order="fill stroke markers" d=" M 43.5 664 L 64.5 664 C 65.88071187457699 664 67 665.119288125423 67 666.5 L 67 687.5 C 67 688.880711874577 65.88071187457699 690 64.5 690 L 43.5 690 C 42.11928812542302 690 41 688.880711874577 41 687.5 L 41 666.5 C 41 665.119288125423 42.11928812542302 664 43.5 664 Z" stroke-opacity="1" stroke-linecap="round" stroke-linejoin="round" stroke-miterlimit="10"/><text fill="rgb(0,0,0)" stroke="none" font-family="geogebra-sans-serif, sans-serif" font-size="20px" font-style="normal" font-weight="normal" text-decoration="normal" x="76" y="684" text-anchor="start" dominant-baseline="alphabetic" fill-opacity="1">Show the Height of Prism</text><path fill="rgb(255,255,255)" stroke="none" paint-order="stroke fill markers" fill-rule="evenodd" d=" M 183.5 461 L 204.5 461 C 205.88071187457697 461 207 462.119288125423 207 463.5 L 207 484.5 C 207 485.880711874577 205.88071187457697 487 204.5 487 L 183.5 487 C 182.11928812542303 487 181 485.880711874577 181 484.5 L 181 463.5 C 181 462.119288125423 182.11928812542303 461 183.5 461 Z" fill-opacity="1"/><path fill="none" stroke="rgb(0,0,0)" paint-order="fill stroke markers" d=" M 183.5 461 L 204.5 461 C 205.88071187457697 461 207 462.119288125423 207 463.5 L 207 484.5 C 207 485.880711874577 205.88071187457697 487 204.5 487 L 183.5 487 C 182.11928812542303 487 181 485.880711874577 181 484.5 L 181 463.5 C 181 462.119288125423 182.11928812542303 461 183.5 461 Z" stroke-opacity="1" stroke-linecap="round" stroke-linejoin="round" stroke-miterlimit="10"/><text fill="rgb(255,0,0)" stroke="none" font-family="geogebra-sans-serif, sans-serif" font-size="20px" font-style="normal" font-weight="normal" text-decoration="normal" x="216" y="482" text-anchor="start" dominant-baseline="alphabetic" fill-opacity="1">Start</text><path fill="rgb(102,102,102)" stroke="none" paint-order="stroke fill markers" fill-rule="evenodd" d=" M 495.55472378088837 310.90757423505397 L 610.4898225696609 310.90757423505397 L 610.4898225696609 276.5718768534865 L 495.55472378088837 276.5718768534865 Z" fill-opacity="0.09803921568627451"/><path fill="rgb(102,102,102)" stroke="none" paint-order="stroke fill markers" fill-rule="evenodd" d=" M 857.862611258646 310.90757423505397 L 742.9275124698736 310.90757423505397 L 742.9275124698736 276.5718768534865 L 857.862611258646 276.5718768534865 Z" fill-opacity="0.09803921568627451"/><path fill="rgb(102,102,102)" stroke="none" paint-order="stroke fill markers" fill-rule="evenodd" d=" M 677.7536024866683 404.1044671278799 L 610.4898225696609 310.90757423505397 L 742.9275124698736 310.90757423505397 Z" fill-opacity="0.09803921568627451"/><path fill="rgb(102,102,102)" stroke="none" paint-order="stroke fill markers" fill-rule="evenodd" d=" M 677.7536024866683 183.37498396066061 L 742.9275124698736 276.5718768534866 L 610.4898225696609 276.5718768534866 Z" fill-opacity="0.09803921568627451"/><path fill="rgb(102,102,102)" stroke="none" paint-order="stroke fill markers" fill-rule="evenodd" d=" M 610.4898225696609 310.90757423505397 L 610.4898225696609 276.5718768534865 L 742.9275124698736 276.5718768534865 L 742.9275124698736 310.90757423505397 Z" fill-opacity="0.09803921568627451"/><path fill="none" stroke="rgb(0,0,0)" paint-order="fill stroke markers" d=" M 610.4898225696609 310.90757423505397 L 742.9275124698736 310.90757423505397" stroke-opacity="1" stroke-linecap="round" stroke-linejoin="round" stroke-miterlimit="10"/><path fill="none" stroke="rgb(102,102,102)" paint-order="fill stroke markers" d=" M 495.55472378088837 310.90757423505397 L 610.4898225696609 310.90757423505397" stroke-opacity="1" stroke-linecap="round" stroke-linejoin="round" stroke-miterlimit="10"/><path fill="none" stroke="rgb(102,102,102)" paint-order="fill stroke markers" d=" M 610.4898225696609 310.90757423505397 L 610.4898225696609 276.5718768534865" stroke-opacity="1" stroke-linecap="round" stroke-linejoin="round" stroke-miterlimit="10"/><path fill="none" stroke="rgb(102,102,102)" paint-order="fill stroke markers" d=" M 610.4898225696609 276.5718768534865 L 495.55472378088837 276.5718768534865" stroke-opacity="1" stroke-linecap="round" stroke-linejoin="round" stroke-miterlimit="10"/><path fill="none" stroke="rgb(102,102,102)" paint-order="fill stroke markers" d=" M 495.55472378088837 276.5718768534865 L 495.55472378088837 310.90757423505397" stroke-opacity="1" stroke-linecap="round" stroke-linejoin="round" stroke-miterlimit="10"/><path fill="none" stroke="rgb(102,102,102)" paint-order="fill stroke markers" d=" M 857.862611258646 310.90757423505397 L 742.9275124698736 310.90757423505397" stroke-opacity="1" stroke-linecap="round" stroke-linejoin="round" stroke-miterlimit="10"/><path fill="none" stroke="rgb(102,102,102)" paint-order="fill stroke markers" d=" M 742.9275124698736 310.90757423505397 L 742.9275124698736 276.5718768534865" stroke-opacity="1" stroke-linecap="round" stroke-linejoin="round" stroke-miterlimit="10"/><path fill="none" stroke="rgb(102,102,102)" paint-order="fill stroke markers" d=" M 742.9275124698736 276.5718768534865 L 857.862611258646 276.5718768534865" stroke-opacity="1" stroke-linecap="round" stroke-linejoin="round" stroke-miterlimit="10"/><path fill="none" stroke="rgb(102,102,102)" paint-order="fill stroke markers" d=" M 857.862611258646 276.5718768534865 L 857.862611258646 310.90757423505397" stroke-opacity="1" stroke-linecap="round" stroke-linejoin="round" stroke-miterlimit="10"/><path fill="none" stroke="rgb(102,102,102)" paint-order="fill stroke markers" d=" M 677.7536024866683 404.1044671278799 L 610.4898225696609 310.90757423505397" stroke-opacity="1" stroke-linecap="round" stroke-linejoin="round" stroke-miterlimit="10"/><path fill="none" stroke="rgb(102,102,102)" paint-order="fill stroke markers" d=" M 610.4898225696609 310.90757423505397 L 742.9275124698736 310.90757423505397" stroke-opacity="1" stroke-linecap="round" stroke-linejoin="round" stroke-miterlimit="10"/><path fill="none" stroke="rgb(102,102,102)" paint-order="fill stroke markers" d=" M 742.9275124698736 310.90757423505397 L 677.7536024866683 404.1044671278799" stroke-opacity="1" stroke-linecap="round" stroke-linejoin="round" stroke-miterlimit="10"/><path fill="none" stroke="rgb(102,102,102)" paint-order="fill stroke markers" d=" M 677.7536024866683 183.37498396066061 L 742.9275124698736 276.5718768534865" stroke-opacity="1" stroke-linecap="round" stroke-linejoin="round" stroke-miterlimit="10"/><path fill="none" stroke="rgb(102,102,102)" paint-order="fill stroke markers" d=" M 742.9275124698736 276.5718768534865 L 610.4898225696609 276.5718768534865" stroke-opacity="1" stroke-linecap="round" stroke-linejoin="round" stroke-miterlimit="10"/><path fill="none" stroke="rgb(102,102,102)" paint-order="fill stroke markers" d=" M 610.4898225696609 276.5718768534865 L 677.7536024866683 183.37498396066061" stroke-opacity="1" stroke-linecap="round" stroke-linejoin="round" stroke-miterlimit="10"/><path fill="none" stroke="rgb(102,102,102)" paint-order="fill stroke markers" d=" M 610.4898225696609 310.90757423505397 L 610.4898225696609 276.5718768534865" stroke-opacity="1" stroke-linecap="round" stroke-linejoin="round" stroke-miterlimit="10"/><path fill="none" stroke="rgb(102,102,102)" paint-order="fill stroke markers" d=" M 610.4898225696609 276.5718768534865 L 742.9275124698736 276.5718768534865" stroke-opacity="1" stroke-linecap="round" stroke-linejoin="round" stroke-miterlimit="10"/><path fill="none" stroke="rgb(102,102,102)" paint-order="fill stroke markers" d=" M 742.9275124698736 276.5718768534865 L 742.9275124698736 310.90757423505397" stroke-opacity="1" stroke-linecap="round" stroke-linejoin="round" stroke-miterlimit="10"/><path fill="none" stroke="rgb(102,102,102)" paint-order="fill stroke markers" d=" M 742.9275124698736 310.90757423505397 L 610.4898225696609 310.90757423505397" stroke-opacity="1" stroke-linecap="round" stroke-linejoin="round" stroke-miterlimit="10"/><path fill="none" stroke="rgb(0,100,0)" paint-order="fill stroke markers" d=" M 137.5 522.5 L 317.5 522.5" stroke-opacity="0.2" stroke-linecap="round" stroke-linejoin="round" stroke-miterlimit="10" stroke-width="5"/><path fill="rgb(0,100,0)" stroke="none" paint-order="stroke fill markers" d=" M 146 522.5 C 146 527.1944203735618 142.19442037356174 531 137.5 531 C 132.80557962643826 531 129 527.1944203735618 129 522.5 C 129 517.8055796264382 132.80557962643826 514 137.5 514 C 142.19442037356174 514 146 517.8055796264382 146 522.5 Z" fill-opacity="0.2"/><path fill="none" stroke="rgb(0,100,0)" paint-order="fill stroke markers" d=" M 146 522.5 C 146 527.1944203735618 142.19442037356174 531 137.5 531 C 132.80557962643826 531 129 527.1944203735618 129 522.5 C 129 517.8055796264382 132.80557962643826 514 137.5 514 C 142.19442037356174 514 146 517.8055796264382 146 522.5 Z" stroke-opacity="0.2" stroke-linecap="round" stroke-linejoin="round" stroke-miterlimit="10"/><path fill="rgb(0,100,0)" stroke="none" paint-order="stroke fill markers" d=" M 143 522.5 C 143 525.5375661240694 140.53756612406937 528 137.5 528 C 134.46243387593063 528 132 525.5375661240694 132 522.5 C 132 519.4624338759306 134.46243387593063 517 137.5 517 C 140.53756612406937 517 143 519.4624338759306 143 522.5 Z" fill-opacity="1"/><path fill="none" stroke="rgb(0,0,0)" paint-order="fill stroke markers" d=" M 143 522.5 C 143 525.5375661240694 140.53756612406937 528 137.5 528 C 134.46243387593063 528 132 525.5375661240694 132 522.5 C 132 519.4624338759306 134.46243387593063 517 137.5 517 C 140.53756612406937 517 143 519.4624338759306 143 522.5 Z" stroke-opacity="1" stroke-linecap="round" stroke-linejoin="round" stroke-miterlimit="10"/><path fill="none" stroke="rgb(0,0,0)" paint-order="fill stroke markers" d=" M 98.5 119.5 L 298.5 119.5" stroke-opacity="0.39215686274509803" stroke-linecap="round" stroke-linejoin="round" stroke-miterlimit="10" stroke-width="5"/><path fill="rgb(0,0,0)" stroke="none" paint-order="stroke fill markers" d=" M 269 119.5 C 269 124.19442037356174 265.19442037356174 128 260.5 128 C 255.80557962643826 128 252 124.19442037356174 252 119.5 C 252 114.80557962643826 255.80557962643826 111 260.5 111 C 265.19442037356174 111 269 114.80557962643826 269 119.5 Z" fill-opacity="0.39215686274509803"/><path fill="none" stroke="rgb(0,0,0)" paint-order="fill stroke markers" d=" M 269 119.5 C 269 124.19442037356174 265.19442037356174 128 260.5 128 C 255.80557962643826 128 252 124.19442037356174 252 119.5 C 252 114.80557962643826 255.80557962643826 111 260.5 111 C 265.19442037356174 111 269 114.80557962643826 269 119.5 Z" stroke-opacity="0.39215686274509803" stroke-linecap="round" stroke-linejoin="round" stroke-miterlimit="10"/><path fill="rgb(0,0,0)" stroke="none" paint-order="stroke fill markers" d=" M 266 119.5 C 266 122.53756612406936 263.5375661240694 125 260.5 125 C 257.4624338759306 125 255 122.53756612406936 255 119.5 C 255 116.46243387593064 257.4624338759306 114 260.5 114 C 263.5375661240694 114 266 116.46243387593064 266 119.5 Z" fill-opacity="1"/><path fill="none" stroke="rgb(0,0,0)" paint-order="fill stroke markers" d=" M 266 119.5 C 266 122.53756612406936 263.5375661240694 125 260.5 125 C 257.4624338759306 125 255 122.53756612406936 255 119.5 C 255 116.46243387593064 257.4624338759306 114 260.5 114 C 263.5375661240694 114 266 116.46243387593064 266 119.5 Z" stroke-opacity="1" stroke-linecap="round" stroke-linejoin="round" stroke-miterlimit="10"/><path fill="none" stroke="rgb(0,0,0)" paint-order="fill stroke markers" d=" M 102.5 395.5 L 302.5 395.5" stroke-opacity="0.39215686274509803" stroke-linecap="round" stroke-linejoin="round" stroke-miterlimit="10" stroke-width="5"/><path fill="rgb(0,0,0)" stroke="none" paint-order="stroke fill markers" d=" M 153.00000000000006 395.5 C 153.00000000000006 400.19442037356174 149.1944203735618 404 144.50000000000006 404 C 139.80557962643832 404 136.00000000000006 400.19442037356174 136.00000000000006 395.5 C 136.00000000000006 390.80557962643826 139.80557962643832 387 144.50000000000006 387 C 149.1944203735618 387 153.00000000000006 390.80557962643826 153.00000000000006 395.5 Z" fill-opacity="0.39215686274509803"/><path fill="none" stroke="rgb(0,0,0)" paint-order="fill stroke markers" d=" M 153.00000000000006 395.5 C 153.00000000000006 400.19442037356174 149.1944203735618 404 144.50000000000006 404 C 139.80557962643832 404 136.00000000000006 400.19442037356174 136.00000000000006 395.5 C 136.00000000000006 390.80557962643826 139.80557962643832 387 144.50000000000006 387 C 149.1944203735618 387 153.00000000000006 390.80557962643826 153.00000000000006 395.5 Z" stroke-opacity="0.39215686274509803" stroke-linecap="round" stroke-linejoin="round" stroke-miterlimit="10"/><path fill="rgb(0,0,0)" stroke="none" paint-order="stroke fill markers" d=" M 150.00000000000006 395.5 C 150.00000000000006 398.5375661240694 147.53756612406943 401 144.50000000000006 401 C 141.46243387593069 401 139.00000000000006 398.5375661240694 139.00000000000006 395.5 C 139.00000000000006 392.4624338759306 141.46243387593069 390 144.50000000000006 390 C 147.53756612406943 390 150.00000000000006 392.4624338759306 150.00000000000006 395.5 Z" fill-opacity="1"/><path fill="none" stroke="rgb(0,0,0)" paint-order="fill stroke markers" d=" M 150.00000000000006 395.5 C 150.00000000000006 398.5375661240694 147.53756612406943 401 144.50000000000006 401 C 141.46243387593069 401 139.00000000000006 398.5375661240694 139.00000000000006 395.5 C 139.00000000000006 392.4624338759306 141.46243387593069 390 144.50000000000006 390 C 147.53756612406943 390 150.00000000000006 392.4624338759306 150.00000000000006 395.5 Z" stroke-opacity="1" stroke-linecap="round" stroke-linejoin="round" stroke-miterlimit="10"/><path fill="none" stroke="rgb(0,0,0)" paint-order="fill stroke markers" d=" M 103.5 251.5 L 303.5 251.5" stroke-opacity="0.39215686274509803" stroke-linecap="round" stroke-linejoin="round" stroke-miterlimit="10" stroke-width="5"/><path fill="rgb(0,0,0)" stroke="none" paint-order="stroke fill markers" d=" M 226.00000000000006 251.5 C 226.00000000000006 256.19442037356174 222.1944203735618 260 217.50000000000006 260 C 212.80557962643832 260 209.00000000000006 256.19442037356174 209.00000000000006 251.5 C 209.00000000000006 246.80557962643826 212.80557962643832 243 217.50000000000006 243 C 222.1944203735618 243 226.00000000000006 246.80557962643826 226.00000000000006 251.5 Z" fill-opacity="0.39215686274509803"/><path fill="none" stroke="rgb(0,0,0)" paint-order="fill stroke markers" d=" M 226.00000000000006 251.5 C 226.00000000000006 256.19442037356174 222.1944203735618 260 217.50000000000006 260 C 212.80557962643832 260 209.00000000000006 256.19442037356174 209.00000000000006 251.5 C 209.00000000000006 246.80557962643826 212.80557962643832 243 217.50000000000006 243 C 222.1944203735618 243 226.00000000000006 246.80557962643826 226.00000000000006 251.5 Z" stroke-opacity="0.39215686274509803" stroke-linecap="round" stroke-linejoin="round" stroke-miterlimit="10"/><path fill="rgb(0,0,0)" stroke="none" paint-order="stroke fill markers" d=" M 223.00000000000006 251.5 C 223.00000000000006 254.53756612406937 220.53756612406943 257 217.50000000000006 257 C 214.46243387593069 257 212.00000000000006 254.53756612406937 212.00000000000006 251.5 C 212.00000000000006 248.46243387593063 214.46243387593069 246 217.50000000000006 246 C 220.53756612406943 246 223.00000000000006 248.46243387593063 223.00000000000006 251.5 Z" fill-opacity="1"/><path fill="none" stroke="rgb(0,0,0)" paint-order="fill stroke markers" d=" M 223.00000000000006 251.5 C 223.00000000000006 254.53756612406937 220.53756612406943 257 217.50000000000006 257 C 214.46243387593069 257 212.00000000000006 254.53756612406937 212.00000000000006 251.5 C 212.00000000000006 248.46243387593063 214.46243387593069 246 217.50000000000006 246 C 220.53756612406943 246 223.00000000000006 248.46243387593063 223.00000000000006 251.5 Z" stroke-opacity="1" stroke-linecap="round" stroke-linejoin="round" stroke-miterlimit="10"/><text fill="rgb(0,0,255)" stroke="none" font-family="geogebra-sans-serif, sans-serif" font-size="28px" font-style="normal" font-weight="normal" text-decoration="normal" x="28" y="77" text-anchor="start" dominant-baseline="alphabetic" fill-opacity="1">Base of Triangle = 8.1 cm</text><text fill="rgb(0,0,255)" stroke="none" font-family="geogebra-sans-serif, sans-serif" font-size="28px" font-style="normal" font-weight="normal" text-decoration="normal" x="28" y="205" text-anchor="start" dominant-baseline="alphabetic" fill-opacity="1">Height of Triangle = 5.7 cm</text><text fill="rgb(0,0,255)" stroke="none" font-family="geogebra-sans-serif, sans-serif" font-size="28px" font-style="normal" font-weight="normal" text-decoration="normal" x="32" y="341" text-anchor="start" dominant-baseline="alphabetic" fill-opacity="1">Height of Prism = 2.1 cm</text><text fill="rgb(0,0,255)" stroke="none" font-family="geogebra-sans-serif, sans-serif" font-size="28px" font-style="normal" font-weight="normal" text-decoration="normal" x="84" y="485" text-anchor="start" dominant-baseline="alphabetic" fill-opacity="1">Open</text><text fill="rgb(0,0,255)" stroke="none" font-family="geogebra-sans-serif, sans-serif" font-size="28px" font-style="normal" font-weight="normal" text-decoration="normal" x="280" y="487" text-anchor="start" dominant-baseline="alphabetic" fill-opacity="1">Close</text></g></g></svg>