<?xml version="1.0" encoding="UTF-8" standalone="no"?>
<!-- Created with Inkscape (http://www.inkscape.org/) -->

<svg
   width="97.078011mm"
   height="91.995621mm"
   viewBox="0 0 97.078011 91.995621"
   version="1.1"
   id="svg1430"
   inkscape:version="1.1.1 (3bf5ae0d25, 2021-09-20)"
   sodipodi:docname="pyra_blue.svg"
   xmlns:inkscape="http://www.inkscape.org/namespaces/inkscape"
   xmlns:sodipodi="http://sodipodi.sourceforge.net/DTD/sodipodi-0.dtd"
   xmlns="http://www.w3.org/2000/svg"
   xmlns:svg="http://www.w3.org/2000/svg">
  <sodipodi:namedview
     id="namedview1432"
     pagecolor="#ffffff"
     bordercolor="#666666"
     borderopacity="1.0"
     inkscape:pageshadow="2"
     inkscape:pageopacity="0.0"
     inkscape:pagecheckerboard="0"
     inkscape:document-units="mm"
     showgrid="false"
     inkscape:zoom="0.64052329"
     inkscape:cx="138.94889"
     inkscape:cy="507.39763"
     inkscape:window-width="1920"
     inkscape:window-height="1046"
     inkscape:window-x="-11"
     inkscape:window-y="-11"
     inkscape:window-maximized="1"
     inkscape:current-layer="layer1" />
  <defs
     id="defs1427" />
  <g
     inkscape:label="Calque 1"
     inkscape:groupmode="layer"
     id="layer1"
     transform="translate(-68.360856,-13.897876)">
    <g
       id="g27"
       transform="matrix(0.26458333,0,0,0.26458333,44.892315,-5.0198316)">
      <polygon
         fill="#c8e9fb"
         points="308.7,276.5 270.8,91.9 250.5,290 "
         id="polygon15" />
      <polygon
         fill="#c8e9fb"
         points="266.2,84.3 97.5,325.6 245,291.3 "
         id="polygon17" />
      <polygon
         fill="#c8e9fb"
         points="444.7,356.6 275.5,88.2 314.3,276.8 "
         id="polygon19" />
      <polygon
         fill="#c8e9fb"
         points="98.4,330.9 232.6,412.1 244.4,297 "
         id="polygon21" />
      <polygon
         fill="#c8e9fb"
         points="237.9,413.1 446.1,363.7 311.4,281.3 249.9,295.7 "
         id="polygon23" />
      <path
         fill="#6b91ae"
         d="m 455.4,363.6 c 0,-0.1 0,-0.2 -0.1,-0.2 L 272.1,72.8 v 0 0 c 0,0 0,0 0,0 -0.2,-0.3 -0.5,-0.6 -0.8,-0.8 -0.1,-0.1 -0.2,-0.1 -0.3,-0.2 -0.3,-0.1 -0.5,-0.2 -0.8,-0.2 -0.1,0 -0.2,-0.1 -0.2,-0.1 0,0 -0.1,0 -0.1,0 0,0 -0.1,0 -0.1,0 -0.8,0 -1.5,0.5 -1.9,1 0,0 -0.1,0.1 -0.1,0.1 L 89.1,328.3 c 0,0 0,0 0,0.1 -0.1,0.2 -0.2,0.4 -0.3,0.6 0,0.1 -0.1,0.2 -0.1,0.3 0,0.2 0,0.5 0,0.7 0,0.1 0,0.2 0,0.4 0,0 0,0 0,0 0,0 0,0 0,0 0.1,0.3 0.2,0.5 0.3,0.7 0.1,0.1 0.1,0.2 0.1,0.3 0.2,0.3 0.5,0.5 0.8,0.7 0,0 0,0 0,0 l 143.5,86.7 c 0,0 0,0 0,0 0.3,0.2 0.7,0.3 1.1,0.4 0.1,0 0.2,0 0.3,0 v 0 c 0,0 0,0 0,0 0,0 0,0 0,0 0,0 0,0 0,0 0.2,0 0.4,0 0.6,-0.1 l 218.2,-51.7 c 0.1,0 0.2,-0.1 0.3,-0.2 0.2,-0.1 0.3,-0.1 0.5,-0.3 0.2,-0.1 0.4,-0.3 0.5,-0.5 0.1,-0.1 0.2,-0.1 0.3,-0.3 0,-0.1 0,-0.2 0.1,-0.2 0,-0.1 0.1,-0.1 0.1,-0.2 0,-0.1 0,-0.2 0,-0.3 0.1,-0.3 0.1,-0.5 0.1,-0.8 0,-0.1 0,-0.3 0,-0.4 0.2,0 0.1,-0.3 -0.1,-0.6 z m -10.7,-7 L 314.3,276.8 275.5,88.2 Z M 270.8,91.9 l 38,184.6 -58.3,13.5 z m -4.6,-7.6 -21.2,207 -147.5,34.3 z m -33.6,327.8 -134.2,-81.2 146,-34 z m 5.3,1 12,-117.4 61.5,-14.3 134.7,82.4 z"
         id="path25" />
    </g>
  </g>
</svg>
