<?xml version="1.0" encoding="UTF-8" standalone="no"?>
<!-- Created with Inkscape (http://www.inkscape.org/) -->

<svg
   width="210mm"
   height="297mm"
   viewBox="0 0 210 297"
   version="1.1"
   id="svg5"
   inkscape:version="1.1.1 (3bf5ae0d25, 2021-09-20)"
   sodipodi:docname="regle.svg"
   xmlns:inkscape="http://www.inkscape.org/namespaces/inkscape"
   xmlns:sodipodi="http://sodipodi.sourceforge.net/DTD/sodipodi-0.dtd"
   xmlns="http://www.w3.org/2000/svg"
   xmlns:svg="http://www.w3.org/2000/svg">
  <sodipodi:namedview
     id="namedview7"
     pagecolor="#ffffff"
     bordercolor="#666666"
     borderopacity="1.0"
     inkscape:pageshadow="2"
     inkscape:pageopacity="0.0"
     inkscape:pagecheckerboard="0"
     inkscape:document-units="mm"
     showgrid="false"
     inkscape:zoom="1.8116734"
     inkscape:cx="357.68036"
     inkscape:cy="423.36548"
     inkscape:window-width="1920"
     inkscape:window-height="974"
     inkscape:window-x="-11"
     inkscape:window-y="-11"
     inkscape:window-maximized="1"
     inkscape:current-layer="g1099" />
  <defs
     id="defs2" />
  <g
     inkscape:label="Calque 1"
     inkscape:groupmode="layer"
     id="layer1">
    <g
       id="g1099"
       transform="matrix(0.26458333,0,0,0.26458333,30.698077,18.741867)">
      <path
         id="path7745"
         class="st0"
         d="m 45,398.4 v -25 0"
         style="fill:#020203;fill-opacity:1" />
      <path
         id="path7747"
         class="st0"
         d="m 50,398.4 v -25"
         style="fill:#020203;fill-opacity:1" />
      <path
         id="path7749"
         class="st0"
         d="m 55.1,398.4 v -25"
         style="fill:#020203;fill-opacity:1" />
      <path
         id="path7751"
         class="st0"
         d="m 60.1,398.4 v -25"
         style="fill:#020203;fill-opacity:1" />
      <path
         id="path7753"
         class="st0"
         d="M 65.1,405.9 V 373.4"
         style="fill:#020203;fill-opacity:1" />
      <path
         id="path7755"
         class="st0"
         d="m 70.1,398.4 v -25"
         style="fill:#020203;fill-opacity:1" />
      <path
         id="path7757"
         class="st0"
         d="m 75.1,398.4 v -25"
         style="fill:#020203;fill-opacity:1" />
      <path
         id="path7759"
         class="st0"
         d="m 80.1,398.4 v -25"
         style="fill:#020203;fill-opacity:1" />
      <path
         id="path7761"
         class="st0"
         d="m 85.1,398.4 v -25"
         style="fill:#020203;fill-opacity:1" />
      <path
         id="path7763"
         class="st0"
         d="m 90.1,423.4 v -50"
         style="fill:#020203;fill-opacity:1" />
      <path
         id="path7765"
         class="st0"
         d="m 95.1,398.4 v -25"
         style="fill:#020203;fill-opacity:1" />
      <path
         id="path7767"
         class="st0"
         d="m 100.1,398.4 v -25"
         style="fill:#020203;fill-opacity:1" />
      <path
         id="path7769"
         class="st0"
         d="m 105.1,398.4 v -25"
         style="fill:#020203;fill-opacity:1" />
      <path
         id="path7771"
         class="st0"
         d="m 110.1,398.4 v -25"
         style="fill:#020203;fill-opacity:1" />
      <path
         id="path7773"
         class="st0"
         d="M 115.1,405.9 V 373.4"
         style="fill:#020203;fill-opacity:1" />
      <path
         id="path7775"
         class="st0"
         d="m 120.1,398.4 v -25 0"
         style="fill:#020203;fill-opacity:1" />
      <path
         id="path7777"
         class="st0"
         d="m 125.1,398.4 v -25"
         style="fill:#020203;fill-opacity:1" />
      <path
         id="path7779"
         class="st0"
         d="m 130.1,398.4 v -25"
         style="fill:#020203;fill-opacity:1" />
      <path
         id="path7781"
         class="st0"
         d="m 135.1,398.4 v -25"
         style="fill:#020203;fill-opacity:1" />
      <path
         id="path7783"
         class="st0"
         d="m 140.1,423.4 v -50"
         style="fill:#020203;fill-opacity:1" />
      <path
         id="path7785"
         class="st0"
         d="m 145.1,398.4 v -25"
         style="fill:#020203;fill-opacity:1" />
      <path
         id="path7787"
         class="st0"
         d="m 150.1,398.4 v -25"
         style="fill:#020203;fill-opacity:1" />
      <path
         id="path7789"
         class="st0"
         d="m 155.1,398.4 v -25"
         style="fill:#020203;fill-opacity:1" />
      <path
         id="path7791"
         class="st0"
         d="m 160.1,398.4 v -25"
         style="fill:#020203;fill-opacity:1" />
      <path
         id="path7793"
         class="st0"
         d="M 165.1,405.9 V 373.4"
         style="fill:#020203;fill-opacity:1" />
      <path
         id="path7795"
         class="st0"
         d="m 170.1,398.4 v -25"
         style="fill:#020203;fill-opacity:1" />
      <path
         id="path7797"
         class="st0"
         d="m 175.1,398.4 v -25"
         style="fill:#020203;fill-opacity:1" />
      <path
         id="path7799"
         class="st0"
         d="m 180.1,398.4 v -25"
         style="fill:#020203;fill-opacity:1" />
      <path
         id="path7801"
         class="st0"
         d="m 185.1,398.4 v -25"
         style="fill:#020203;fill-opacity:1" />
      <path
         id="path7803"
         class="st0"
         d="m 190.1,423.4 v -50"
         style="fill:#020203;fill-opacity:1" />
      <path
         id="path7805"
         class="st0"
         d="m 195.1,398.4 v -25"
         style="fill:#020203;fill-opacity:1" />
      <path
         id="path7807"
         class="st0"
         d="m 200.1,398.4 v -25"
         style="fill:#020203;fill-opacity:1" />
      <path
         id="path7809"
         class="st0"
         d="m 205.1,398.4 v -25"
         style="fill:#020203;fill-opacity:1" />
      <path
         id="path7811"
         class="st0"
         d="m 210.1,398.4 v -25"
         style="fill:#020203;fill-opacity:1" />
      <path
         id="path7813"
         class="st0"
         d="M 215.1,405.9 V 373.4"
         style="fill:#020203;fill-opacity:1" />
      <path
         id="path7815"
         class="st0"
         d="m 220.2,398.4 v -25"
         style="fill:#020203;fill-opacity:1" />
      <path
         id="path7817"
         class="st0"
         d="m 225.2,398.4 v -25"
         style="fill:#020203;fill-opacity:1" />
      <path
         id="path7819"
         class="st0"
         d="m 230.2,398.4 v -25"
         style="fill:#020203;fill-opacity:1" />
      <path
         id="path7821"
         class="st0"
         d="m 235.2,398.4 v -25"
         style="fill:#020203;fill-opacity:1" />
      <path
         id="path7823"
         class="st0"
         d="m 240.2,423.4 v -50 0"
         style="fill:#020203;fill-opacity:1" />
      <path
         id="path7825"
         class="st0"
         d="m 245.2,398.4 v -25"
         style="fill:#020203;fill-opacity:1" />
      <path
         id="path7827"
         class="st0"
         d="m 250.2,398.4 v -25"
         style="fill:#020203;fill-opacity:1" />
      <path
         id="path7829"
         class="st0"
         d="m 255.2,398.4 v -25"
         style="fill:#020203;fill-opacity:1" />
      <path
         id="path7831"
         class="st0"
         d="m 260.2,398.4 v -25"
         style="fill:#020203;fill-opacity:1" />
      <path
         id="path7833"
         class="st0"
         d="M 265.2,405.9 V 373.4"
         style="fill:#020203;fill-opacity:1" />
      <path
         id="path7835"
         class="st0"
         d="m 270.2,398.4 v -25"
         style="fill:#020203;fill-opacity:1" />
      <path
         id="path7837"
         class="st0"
         d="m 275.2,398.4 v -25"
         style="fill:#020203;fill-opacity:1" />
      <path
         id="path7839"
         class="st0"
         d="m 280.2,398.4 v -25"
         style="fill:#020203;fill-opacity:1" />
      <path
         id="path7841"
         class="st0"
         d="m 285.2,398.4 v -25"
         style="fill:#020203;fill-opacity:1" />
      <path
         id="path7843"
         class="st0"
         d="m 290.2,423.4 v -50"
         style="fill:#020203;fill-opacity:1" />
      <path
         id="path7845"
         class="st0"
         d="m 295.2,398.4 v -25"
         style="fill:#020203;fill-opacity:1" />
      <path
         id="path7847"
         class="st0"
         d="m 300.2,398.4 v -25"
         style="fill:#020203;fill-opacity:1" />
      <path
         id="path7849"
         class="st0"
         d="m 305.2,398.4 v -25"
         style="fill:#020203;fill-opacity:1" />
      <path
         id="path7851"
         class="st0"
         d="m 310.2,398.4 v -25"
         style="fill:#020203;fill-opacity:1" />
      <path
         id="path7853"
         class="st0"
         d="M 315.2,405.9 V 373.4"
         style="fill:#020203;fill-opacity:1" />
      <path
         id="path7855"
         class="st0"
         d="m 320.2,398.4 v -25"
         style="fill:#020203;fill-opacity:1" />
      <path
         id="path7857"
         class="st0"
         d="m 325.2,398.4 v -25"
         style="fill:#020203;fill-opacity:1" />
      <path
         id="path7859"
         class="st0"
         d="m 330.2,398.4 v -25"
         style="fill:#020203;fill-opacity:1" />
      <path
         id="path7861"
         class="st0"
         d="m 335.2,398.4 v -25"
         style="fill:#020203;fill-opacity:1" />
      <path
         id="path7863"
         class="st0"
         d="m 340.2,423.4 v -50"
         style="fill:#020203;fill-opacity:1" />
      <path
         id="path7865"
         class="st0"
         d="m 345.2,398.4 v -25"
         style="fill:#020203;fill-opacity:1" />
      <path
         id="path7867"
         class="st0"
         d="m 350.2,398.4 v -25"
         style="fill:#020203;fill-opacity:1" />
      <path
         id="path7869"
         class="st0"
         d="m 355.2,398.4 v -25"
         style="fill:#020203;fill-opacity:1" />
      <path
         id="path7871"
         class="st0"
         d="m 360.2,398.4 v -25"
         style="fill:#020203;fill-opacity:1" />
      <path
         id="path7873"
         class="st0"
         d="M 365.2,405.9 V 373.4"
         style="fill:#020203;fill-opacity:1" />
      <path
         id="path7875"
         class="st0"
         d="m 370.2,398.4 v -25"
         style="fill:#020203;fill-opacity:1" />
      <path
         id="path7877"
         class="st0"
         d="m 375.2,398.4 v -25"
         style="fill:#020203;fill-opacity:1" />
      <path
         id="path7879"
         class="st0"
         d="m 380.3,398.4 v -25"
         style="fill:#020203;fill-opacity:1" />
      <path
         id="path7881"
         class="st0"
         d="m 385.3,398.4 v -25"
         style="fill:#020203;fill-opacity:1" />
      <path
         id="path7883"
         class="st0"
         d="m 390.2,423.4 v -50"
         style="fill:#020203;fill-opacity:1" />
      <path
         id="path7885"
         class="st0"
         d="m 395.3,398.4 v -25 0"
         style="fill:#020203;fill-opacity:1" />
      <path
         id="path7887"
         class="st0"
         d="m 400.3,398.4 v -25"
         style="fill:#020203;fill-opacity:1" />
      <path
         id="path7889"
         class="st0"
         d="m 405.3,398.4 v -25"
         style="fill:#020203;fill-opacity:1" />
      <path
         id="path7893"
         class="st0"
         d="m 410.3,398.4 v -25"
         style="fill:#020203;fill-opacity:1" />
      <path
         id="path7895"
         class="st0"
         d="M 415.3,405.9 V 373.4"
         style="fill:#020203;fill-opacity:1" />
      <path
         id="path7897"
         class="st0"
         d="m 420.3,398.4 v -25"
         style="fill:#020203;fill-opacity:1" />
      <path
         id="path7899"
         class="st0"
         d="m 425.3,398.4 v -25"
         style="fill:#020203;fill-opacity:1" />
      <path
         id="path7901"
         class="st0"
         d="m 430.3,398.4 v -25"
         style="fill:#020203;fill-opacity:1" />
      <path
         id="path7903"
         class="st0"
         d="m 435.3,398.4 v -25"
         style="fill:#020203;fill-opacity:1" />
      <path
         id="path7905"
         class="st0"
         d="m 440.3,423.4 v -50"
         style="fill:#020203;fill-opacity:1" />
      <path
         id="path7907"
         class="st0"
         d="m 445.3,398.4 v -25"
         style="fill:#020203;fill-opacity:1" />
      <path
         id="path7909"
         class="st0"
         d="m 450.3,398.4 v -25"
         style="fill:#020203;fill-opacity:1" />
      <path
         id="path7911"
         class="st0"
         d="m 455.3,398.4 v -25"
         style="fill:#020203;fill-opacity:1" />
      <path
         id="path7913"
         class="st0"
         d="m 460.3,398.4 v -25"
         style="fill:#020203;fill-opacity:1" />
      <path
         id="path7915"
         class="st0"
         d="M 465.3,405.9 V 373.4"
         style="fill:#020203;fill-opacity:1" />
      <path
         id="path7917"
         class="st0"
         d="m 470.3,398.4 v -25"
         style="fill:#020203;fill-opacity:1" />
      <path
         id="path7919"
         class="st0"
         d="m 475.3,398.4 v -25"
         style="fill:#020203;fill-opacity:1" />
      <path
         id="path7921"
         class="st0"
         d="m 480.3,398.4 v -25"
         style="fill:#020203;fill-opacity:1" />
      <path
         id="path7923"
         class="st0"
         d="m 485.3,398.4 v -25"
         style="fill:#020203;fill-opacity:1" />
      <path
         id="path7925"
         class="st0"
         d="m 490.3,423.4 v -50"
         style="fill:#020203;fill-opacity:1" />
      <path
         id="path7927"
         class="st0"
         d="m 495.3,398.4 v -25"
         style="fill:#020203;fill-opacity:1" />
      <path
         id="path7929"
         class="st0"
         d="m 500.3,398.4 v -25"
         style="fill:#020203;fill-opacity:1" />
      <path
         id="path7931"
         class="st0"
         d="m 505.3,398.4 v -25"
         style="fill:#020203;fill-opacity:1" />
      <path
         id="path7933"
         class="st0"
         d="m 510.3,398.4 v -25"
         style="fill:#020203;fill-opacity:1" />
      <path
         id="path7937"
         class="st0"
         d="M 515.3,405.9 V 373.4"
         style="fill:#020203;fill-opacity:1" />
      <path
         id="path7939"
         class="st0"
         d="m 520.3,398.4 v -25"
         style="fill:#020203;fill-opacity:1" />
      <path
         id="path7941"
         class="st0"
         d="m 525.3,398.4 v -25"
         style="fill:#020203;fill-opacity:1" />
      <path
         id="path7943"
         class="st0"
         d="m 530.3,398.4 v -25"
         style="fill:#020203;fill-opacity:1" />
      <path
         id="path7945"
         class="st0"
         d="m 535.3,398.4 v -25"
         style="fill:#020203;fill-opacity:1" />
      <path
         id="path7947"
         class="st0"
         d="m 540.3,423.4 v -50"
         style="fill:#020203;fill-opacity:1" />
      <g
         id="text8061"
         transform="translate(0,-14)"
         style="fill:#020203;fill-opacity:1">
	<path
   id="path8350"
   class="st1"
   d="M 91.6,454.4 H 90 v -9.9 c -0.4,0.4 -0.9,0.7 -1.5,1.1 -0.6,0.4 -1.1,0.6 -1.6,0.8 v -1.5 c 0.9,-0.4 1.6,-0.9 2.3,-1.5 0.6,-0.6 1.1,-1.1 1.4,-1.7 h 1 z"
   style="fill:#020203;fill-opacity:1" />

</g>
      <g
         id="text8061-1"
         transform="translate(0,-14)"
         style="fill:#020203;fill-opacity:1">
	<path
   id="path8353"
   class="st1"
   d="m 144.1,452.9 v 1.5 h -8.4 c 0,-0.4 0,-0.7 0.2,-1.1 0.2,-0.6 0.6,-1.1 1,-1.7 0.5,-0.6 1.1,-1.2 2,-1.9 1.4,-1.1 2.3,-2 2.8,-2.7 0.5,-0.7 0.7,-1.3 0.7,-1.9 0,-0.6 -0.2,-1.1 -0.7,-1.6 -0.4,-0.4 -1,-0.6 -1.7,-0.6 -0.7,0 -1.3,0.2 -1.8,0.7 -0.4,0.4 -0.7,1.1 -0.7,1.9 l -1.6,-0.2 c 0.1,-1.2 0.5,-2.1 1.2,-2.7 0.7,-0.6 1.7,-0.9 2.9,-0.9 1.2,0 2.2,0.3 2.9,1 0.7,0.7 1.1,1.5 1.1,2.5 0,0.5 -0.1,1 -0.3,1.5 -0.2,0.5 -0.6,1 -1,1.5 -0.5,0.5 -1.3,1.3 -2.4,2.2 -0.9,0.8 -1.5,1.3 -1.8,1.6 -0.3,0.3 -0.5,0.6 -0.7,0.8 h 6.3 z"
   style="fill:#020203;fill-opacity:1" />

</g>
      <g
         id="text8061-1-0"
         transform="translate(0,-14)"
         style="fill:#020203;fill-opacity:1">
	<path
   id="path8356"
   class="st1"
   d="m 186.2,450.9 1.6,-0.2 c 0.2,0.9 0.5,1.5 0.9,1.9 0.4,0.4 1,0.6 1.6,0.6 0.7,0 1.3,-0.3 1.8,-0.8 0.5,-0.5 0.8,-1.1 0.8,-1.9 0,-0.7 -0.2,-1.3 -0.7,-1.8 -0.5,-0.5 -1.1,-0.7 -1.8,-0.7 -0.3,0 -0.7,0.1 -1.1,0.2 l 0.2,-1.4 c 0.1,0 0.2,0 0.2,0 0.7,0 1.3,-0.2 1.8,-0.5 0.5,-0.3 0.8,-0.9 0.8,-1.6 0,-0.6 -0.2,-1 -0.6,-1.4 -0.4,-0.4 -0.9,-0.6 -1.5,-0.6 -0.6,0 -1.1,0.2 -1.5,0.6 -0.4,0.4 -0.7,0.9 -0.8,1.7 l -1.6,-0.3 c 0.2,-1 0.6,-1.8 1.3,-2.4 0.7,-0.6 1.5,-0.9 2.5,-0.9 0.7,0 1.3,0.1 1.9,0.4 0.6,0.3 1,0.7 1.3,1.2 0.3,0.5 0.5,1.1 0.5,1.6 0,0.5 -0.1,1 -0.4,1.5 -0.3,0.5 -0.7,0.8 -1.3,1.1 0.7,0.2 1.3,0.5 1.7,1.1 0.4,0.5 0.6,1.2 0.6,2 0,1.1 -0.4,2 -1.2,2.8 -0.8,0.8 -1.8,1.1 -3.1,1.1 -1.1,0 -2,-0.3 -2.8,-1 -0.5,-0.4 -1,-1.2 -1.1,-2.3 z"
   style="fill:#020203;fill-opacity:1" />

</g>
      <g
         id="text8061-1-0-9"
         transform="translate(0,-14)"
         style="fill:#020203;fill-opacity:1">
	<path
   id="path8359"
   class="st1"
   d="m 241.3,454.3 v -3 h -5.5 v -1.4 l 5.8,-8.2 h 1.3 v 8.2 h 1.7 v 1.4 h -1.7 v 3 z m 0,-4.4 v -5.7 l -4,5.7 z"
   style="fill:#020203;fill-opacity:1" />

</g>
      <g
         id="text8061-1-0-9-5"
         transform="translate(0,-14)"
         style="fill:#020203;fill-opacity:1">
	<path
   id="path8362"
   class="st1"
   d="m 288,450.8 1.6,-0.1 c 0.1,0.8 0.4,1.4 0.8,1.8 0.4,0.4 1,0.6 1.6,0.6 0.7,0 1.4,-0.3 1.9,-0.8 0.5,-0.6 0.8,-1.3 0.8,-2.2 0,-0.9 -0.2,-1.6 -0.7,-2.1 -0.5,-0.5 -1.1,-0.8 -1.9,-0.8 -0.5,0 -1,0.1 -1.4,0.3 -0.4,0.2 -0.7,0.5 -0.9,0.9 l -1.5,-0.2 1.2,-6.5 h 6.3 v 1.5 h -5 l -0.7,3.4 c 0.8,-0.5 1.6,-0.8 2.4,-0.8 1.1,0 2,0.4 2.8,1.1 0.8,0.8 1.1,1.7 1.1,2.9 0,1.1 -0.3,2.1 -1,3 -0.8,1 -1.9,1.5 -3.3,1.5 -1.1,0 -2.1,-0.3 -2.8,-1 -0.8,-0.5 -1.2,-1.4 -1.3,-2.5 z"
   style="fill:#020203;fill-opacity:1" />

</g>
      <g
         id="text8061-1-0-9-5-0"
         transform="translate(0,-14)"
         style="fill:#020203;fill-opacity:1">
	<path
   id="path8365"
   class="st1"
   d="m 345.2,444.7 -1.5,0.1 c -0.1,-0.6 -0.3,-1.1 -0.6,-1.3 -0.4,-0.4 -0.9,-0.7 -1.6,-0.7 -0.5,0 -0.9,0.1 -1.3,0.4 -0.5,0.4 -0.9,0.9 -1.2,1.6 -0.3,0.7 -0.4,1.7 -0.4,2.9 0.4,-0.6 0.8,-1 1.4,-1.3 0.5,-0.3 1.1,-0.4 1.7,-0.4 1,0 1.9,0.4 2.6,1.1 0.7,0.8 1.1,1.7 1.1,2.9 0,0.8 -0.2,1.5 -0.5,2.2 -0.3,0.7 -0.8,1.2 -1.4,1.6 -0.6,0.4 -1.3,0.5 -2,0.5 -1.3,0 -2.3,-0.5 -3.2,-1.4 -0.8,-1 -1.2,-2.5 -1.2,-4.7 0,-2.4 0.5,-4.2 1.4,-5.3 0.8,-1 1.8,-1.4 3.2,-1.4 1,0 1.8,0.3 2.4,0.8 0.6,0.7 1,1.4 1.1,2.4 z m -6.3,5.5 c 0,0.5 0.1,1 0.3,1.5 0.2,0.5 0.5,0.9 1,1.1 0.4,0.3 0.8,0.4 1.3,0.4 0.7,0 1.2,-0.3 1.7,-0.8 0.5,-0.5 0.7,-1.2 0.7,-2.2 0,-0.9 -0.2,-1.6 -0.7,-2.1 -0.5,-0.5 -1.1,-0.8 -1.8,-0.8 -0.7,0 -1.3,0.3 -1.8,0.8 -0.5,0.6 -0.7,1.3 -0.7,2.1 z"
   style="fill:#020203;fill-opacity:1" />

</g>
      <g
         id="text8061-1-0-9-5-7"
         transform="translate(0,-14)"
         style="fill:#020203;fill-opacity:1">
	<path
   id="path8368"
   class="st1"
   d="m 388.3,443.3 v -1.5 h 8.2 v 1.2 c -0.8,0.9 -1.6,2 -2.4,3.4 -0.8,1.4 -1.4,2.9 -1.8,4.4 -0.3,1.1 -0.5,2.2 -0.6,3.5 H 390 c 0,-1 0.2,-2.2 0.6,-3.6 0.4,-1.4 0.9,-2.8 1.6,-4.1 0.7,-1.3 1.4,-2.4 2.2,-3.3 z"
   style="fill:#020203;fill-opacity:1" />

</g>
      <g
         id="text8061-1-0-9-5-4"
         transform="translate(0,-14)"
         style="fill:#020203;fill-opacity:1">
	<path
   id="path8371"
   class="st1"
   d="m 440.4,447.4 c -0.6,-0.2 -1.1,-0.6 -1.4,-1 -0.3,-0.4 -0.5,-1 -0.5,-1.6 0,-0.9 0.3,-1.7 1,-2.3 0.7,-0.6 1.5,-0.9 2.6,-0.9 1.1,0 2,0.3 2.7,1 0.7,0.6 1,1.4 1,2.3 0,0.6 -0.2,1.1 -0.5,1.5 -0.3,0.4 -0.8,0.8 -1.4,1 0.8,0.3 1.4,0.7 1.8,1.2 0.4,0.6 0.6,1.2 0.6,2 0,1.1 -0.4,2 -1.1,2.7 -0.8,0.7 -1.8,1.1 -3,1.1 -1.2,0 -2.3,-0.4 -3,-1.1 -0.8,-0.7 -1.1,-1.7 -1.1,-2.8 0,-0.8 0.2,-1.5 0.6,-2.1 0.3,-0.4 0.9,-0.8 1.7,-1 z m -0.3,-2.6 c 0,0.6 0.2,1.1 0.6,1.5 0.4,0.4 0.9,0.6 1.5,0.6 0.6,0 1.1,-0.2 1.5,-0.6 0.4,-0.4 0.6,-0.8 0.6,-1.4 0,-0.6 -0.2,-1 -0.6,-1.4 -0.4,-0.4 -0.9,-0.6 -1.5,-0.6 -0.6,0 -1.1,0.2 -1.5,0.6 -0.4,0.3 -0.6,0.8 -0.6,1.3 z m -0.5,5.8 c 0,0.4 0.1,0.9 0.3,1.3 0.2,0.4 0.5,0.7 0.9,1 0.4,0.2 0.9,0.3 1.3,0.3 0.7,0 1.4,-0.2 1.8,-0.7 0.5,-0.5 0.7,-1.1 0.7,-1.8 0,-0.7 -0.2,-1.4 -0.7,-1.9 -0.5,-0.5 -1.1,-0.7 -1.9,-0.7 -0.7,0 -1.3,0.2 -1.8,0.7 -0.4,0.5 -0.6,1.1 -0.6,1.8 z"
   style="fill:#020203;fill-opacity:1" />

</g>
      <g
         id="text8061-1-0-9-5-72"
         transform="translate(0,-14)"
         style="fill:#020203;fill-opacity:1">
	<path
   id="path8374"
   class="st1"
   d="m 486.7,451.3 1.5,-0.1 c 0.1,0.7 0.4,1.2 0.7,1.5 0.4,0.3 0.8,0.5 1.4,0.5 0.5,0 0.9,-0.1 1.2,-0.3 0.4,-0.2 0.7,-0.5 0.9,-0.9 0.2,-0.4 0.4,-0.9 0.6,-1.5 0.2,-0.6 0.2,-1.3 0.2,-1.9 0,-0.1 0,-0.2 0,-0.3 -0.3,0.5 -0.7,0.9 -1.3,1.2 -0.5,0.3 -1.1,0.5 -1.7,0.5 -1,0 -1.9,-0.4 -2.7,-1.1 -0.7,-0.8 -1.1,-1.8 -1.1,-3 0,-1.3 0.4,-2.3 1.1,-3.1 0.8,-0.8 1.7,-1.2 2.8,-1.2 0.8,0 1.6,0.2 2.2,0.7 0.7,0.4 1.2,1.1 1.6,1.9 0.4,0.8 0.5,2 0.5,3.6 0,1.6 -0.2,2.9 -0.5,3.9 -0.4,1 -0.9,1.7 -1.6,2.2 -0.7,0.5 -1.5,0.7 -2.4,0.7 -1,0 -1.8,-0.3 -2.4,-0.8 -0.5,-0.7 -0.9,-1.5 -1,-2.5 z m 6.3,-5.5 c 0,-0.9 -0.2,-1.6 -0.7,-2.1 -0.5,-0.5 -1,-0.8 -1.7,-0.8 -0.7,0 -1.3,0.3 -1.8,0.8 -0.5,0.6 -0.8,1.3 -0.8,2.2 0,0.8 0.2,1.5 0.7,2 0.5,0.5 1.1,0.7 1.8,0.7 0.7,0 1.3,-0.2 1.8,-0.7 0.5,-0.5 0.7,-1.2 0.7,-2.1 z"
   style="fill:#020203;fill-opacity:1" />

</g>
      <g
         id="text8061-1-0-9-5-04"
         transform="translate(0,-14)"
         style="fill:#020203;fill-opacity:1">
	<path
   id="path8377"
   class="st1"
   d="m 541.9,454.3 h -1.6 v -9.9 c -0.4,0.4 -0.9,0.7 -1.5,1.1 -0.6,0.4 -1.1,0.6 -1.6,0.8 v -1.5 c 0.9,-0.4 1.6,-0.9 2.3,-1.5 0.6,-0.6 1.1,-1.1 1.4,-1.7 h 1 z"
   style="fill:#020203;fill-opacity:1" />

	<path
   id="path8379"
   class="st1"
   d="m 545.9,448 c 0,-1.5 0.2,-2.7 0.5,-3.6 0.3,-0.9 0.8,-1.6 1.4,-2.1 0.6,-0.5 1.4,-0.7 2.3,-0.7 0.7,0 1.3,0.1 1.8,0.4 0.5,0.3 0.9,0.7 1.3,1.2 0.3,0.5 0.6,1.1 0.8,1.9 0.2,0.7 0.3,1.7 0.3,3 0,1.5 -0.2,2.7 -0.5,3.6 -0.3,0.9 -0.8,1.6 -1.4,2.1 -0.6,0.5 -1.4,0.7 -2.3,0.7 -1.2,0 -2.2,-0.4 -2.9,-1.3 -0.9,-1.1 -1.3,-2.8 -1.3,-5.2 z m 1.6,0 c 0,2.1 0.2,3.5 0.7,4.1 0.5,0.7 1.1,1 1.8,1 0.7,0 1.3,-0.3 1.8,-1 0.5,-0.7 0.7,-2.1 0.7,-4.1 0,-2.1 -0.2,-3.5 -0.7,-4.1 -0.5,-0.7 -1.1,-1 -1.8,-1 -0.7,0 -1.3,0.3 -1.7,0.9 -0.5,0.7 -0.8,2.2 -0.8,4.2 z"
   style="fill:#020203;fill-opacity:1" />

</g>
      <g
         id="text8061-1-0-9-5-9"
         transform="translate(0,-14)"
         style="fill:#020203;fill-opacity:1">
	<path
   id="path8382"
   class="st1"
   d="m 41.1,448 c 0,-1.5 0.2,-2.7 0.5,-3.6 0.3,-0.9 0.8,-1.6 1.4,-2.1 0.6,-0.5 1.4,-0.7 2.3,-0.7 0.7,0 1.3,0.1 1.8,0.4 0.5,0.3 0.9,0.7 1.3,1.2 0.3,0.5 0.6,1.1 0.8,1.9 0.2,0.7 0.3,1.7 0.3,3 0,1.5 -0.2,2.7 -0.5,3.6 -0.3,0.9 -0.8,1.6 -1.4,2.1 -0.6,0.5 -1.4,0.7 -2.3,0.7 -1.2,0 -2.2,-0.4 -2.9,-1.3 -0.8,-1.1 -1.3,-2.8 -1.3,-5.2 z m 1.6,0 c 0,2.1 0.2,3.5 0.7,4.1 0.5,0.7 1.1,1 1.8,1 0.7,0 1.3,-0.3 1.8,-1 0.5,-0.7 0.7,-2.1 0.7,-4.1 0,-2.1 -0.2,-3.5 -0.7,-4.1 -0.5,-0.7 -1.1,-1 -1.8,-1 -0.7,0 -1.3,0.3 -1.7,0.9 -0.5,0.7 -0.8,2.2 -0.8,4.2 z"
   style="fill:#020203;fill-opacity:1" />

</g>
      <path
         class="st1"
         d="M 575.2,469.1 H 20.1 v -96.3 h 555.2 v 96.3 z M 20.7,468.4 H 574.5 V 373.5 H 20.7 Z"
         id="path949"
         style="fill:none;fill-opacity:1;stroke:none" />
      <g
         id="g951">
</g>
      <g
         id="g953">
</g>
      <g
         id="g955">
</g>
      <g
         id="g957">
</g>
      <g
         id="g959">
</g>
      <g
         id="g961">
</g>
      <path
         style="fill:#020203;fill-opacity:0.130252;stroke:none;stroke-width:1.00157481;stroke-linecap:square;stroke-linejoin:round;stroke-opacity:1;stroke-miterlimit:4;stroke-dasharray:none;paint-order:stroke markers fill"
         d="m 20.7,373.5 v 94.9 h 553.79999 l 0.8,-95.6 L 20.7,373.5"
         id="path1341" />
    </g>
  </g>
  <style
     type="text/css"
     id="style824">
	.st0{fill:none;stroke:#020203;stroke-width:0.75;stroke-miterlimit:11.3386;}
	.st1{fill:#020203;}
</style>
</svg>
