<?xml version="1.0" encoding="iso-8859-1"?>
<!-- Uploaded to: SVG Repo, www.svgrepo.com, Generator: SVG Repo Mixer Tools -->
<svg fill="#000000" height="800px" width="800px" version="1.1" id="Layer_1" xmlns="http://www.w3.org/2000/svg" xmlns:xlink="http://www.w3.org/1999/xlink" 
	 viewBox="0 0 512 512" xml:space="preserve">
<g>
	<g>
		<path d="M256,0C114.843,0,0,114.843,0,256c0,141.157,114.843,256,256,256s256-114.843,256-256C512,114.843,397.157,0,256,0z
			 M256,493.037C125.296,493.037,18.963,386.704,18.963,256C18.963,125.296,125.296,18.963,256,18.963S493.037,125.296,493.037,256
			C493.037,386.704,386.704,493.037,256,493.037z"/>
	</g>
</g>
<g>
	<g>
		<path d="M417.185,246.518c-5.236,0-9.481,4.246-9.481,9.482c0,83.648-68.056,151.704-151.704,151.704S104.296,339.648,104.296,256
			c0-5.236-4.245-9.482-9.482-9.482s-9.482,4.246-9.482,9.482c0,94.107,76.56,170.667,170.667,170.667S426.667,350.107,426.667,256
			C426.667,250.764,422.421,246.518,417.185,246.518z"/>
	</g>
</g>
<g>
	<g>
		<path d="M180.148,161.185c-5.236,0-9.481,4.246-9.481,9.482v56.889c0,5.236,4.245,9.482,9.481,9.482s9.482-4.245,9.482-9.482
			v-56.889C189.63,165.431,185.384,161.185,180.148,161.185z"/>
	</g>
</g>
<g>
	<g>
		<path d="M331.852,161.185c-5.236,0-9.482,4.246-9.482,9.482v56.889c0,5.236,4.245,9.482,9.482,9.482s9.481-4.245,9.481-9.482
			v-56.889C341.333,165.431,337.088,161.185,331.852,161.185z"/>
	</g>
</g>
</svg>