<?xml version="1.0" encoding="iso-8859-1"?>
<!-- Uploaded to: SVG Repo, www.svgrepo.com, Generator: SVG Repo Mixer Tools -->
<svg fill="#000000" height="800px" width="800px" version="1.1" id="Layer_1" xmlns="http://www.w3.org/2000/svg" xmlns:xlink="http://www.w3.org/1999/xlink" 
	 viewBox="0 0 512 512" xml:space="preserve">
<g>
	<g>
		<path d="M256,0C114.843,0,0,114.843,0,256c0,141.157,114.843,256,256,256s256-114.843,256-256C512,114.843,397.157,0,256,0z
			 M256,493.037C125.296,493.037,18.963,386.704,18.963,256C18.963,125.296,125.296,18.963,256,18.963S493.037,125.296,493.037,256
			C493.037,386.704,386.704,493.037,256,493.037z"/>
	</g>
</g>
<g>
	<g>
		<path d="M418.991,404.801c-22.176-71.991-87.731-120.357-163.13-120.357c-71.574,0-136.065,45.19-160.481,112.449
			c-1.787,4.926,0.759,10.361,5.685,12.148c4.898,1.796,10.361-0.759,12.148-5.676c21.695-59.787,79.019-99.958,142.648-99.958
			c67.018,0,125.296,42.991,145,106.977c1.259,4.074,5.009,6.694,9.065,6.694c0.926,0,1.861-0.139,2.787-0.426
			C417.722,415.111,420.528,409.806,418.991,404.801z"/>
	</g>
</g>
<g>
	<g>
		<path d="M205.815,211.37l-37.926-37.926c-3.704-3.704-9.704-3.704-13.407,0c-3.704,3.704-3.704,9.704,0,13.408l37.926,37.926
			c1.852,1.852,4.278,2.778,6.704,2.778c2.426,0,4.852-0.926,6.704-2.778C209.518,221.074,209.518,215.074,205.815,211.37z"/>
	</g>
</g>
<g>
	<g>
		<path d="M357.518,173.445c-3.704-3.704-9.704-3.704-13.407,0l-37.926,37.926c-3.704,3.704-3.704,9.704,0,13.408
			c1.852,1.852,4.278,2.778,6.704,2.778c2.426,0,4.852-0.926,6.704-2.778l37.926-37.926
			C361.222,183.148,361.222,177.148,357.518,173.445z"/>
	</g>
</g>
</svg>