<?xml version="1.0" encoding="UTF-8" standalone="no"?>
<!-- Created with Inkscape (http://www.inkscape.org/) -->

<svg
   width="22.927322mm"
   height="21.016087mm"
   viewBox="0 0 22.927322 21.016087"
   version="1.1"
   id="svg3488"
   sodipodi:docname="pq2.svg"
   inkscape:version="1.1.1 (3bf5ae0d25, 2021-09-20)"
   xmlns:inkscape="http://www.inkscape.org/namespaces/inkscape"
   xmlns:sodipodi="http://sodipodi.sourceforge.net/DTD/sodipodi-0.dtd"
   xmlns="http://www.w3.org/2000/svg"
   xmlns:svg="http://www.w3.org/2000/svg">
  <sodipodi:namedview
     id="namedview3490"
     pagecolor="#ffffff"
     bordercolor="#666666"
     borderopacity="1.0"
     inkscape:pageshadow="2"
     inkscape:pageopacity="0.0"
     inkscape:pagecheckerboard="0"
     inkscape:document-units="mm"
     showgrid="false"
     inkscape:zoom="0.64052329"
     inkscape:cx="108.50503"
     inkscape:cy="395.77015"
     inkscape:window-width="1723"
     inkscape:window-height="999"
     inkscape:window-x="131"
     inkscape:window-y="285"
     inkscape:window-maximized="0"
     inkscape:current-layer="layer1" />
  <defs
     id="defs3485" />
  <g
     inkscape:label="Calque 1"
     inkscape:groupmode="layer"
     id="layer1"
     transform="translate(-55.041206,4.7250119)">
    <polygon
       class="cls-3"
       points="163.88,83.27 140.16,64.42 203.83,57.34 "
       id="polygon3284"
       style="fill:#dcddde"
       transform="matrix(0.35261979,0,0,0.35261979,-166.8705,-11.595562)" />
    <polygon
       class="cls-4"
       points="163.88,83.27 187.61,24.67 204.18,57.2 "
       id="polygon3286"
       style="fill:none;stroke:#000000;stroke-linejoin:round"
       transform="matrix(0.35261979,0,0,0.35261979,-166.8705,-11.595562)" />
    <polyline
       class="cls-17"
       points="187.61 24.67 140.16 64.42 202.71 57.26"
       id="polyline3288"
       style="fill:none"
       transform="matrix(0.35261979,0,0,0.35261979,-166.8705,-11.595562)" />
    <polyline
       class="cls-4"
       points="187.61 24.67 140.16 64.42 163.88 83.27"
       id="polyline3290"
       style="fill:none;stroke:#000000;stroke-linejoin:round"
       transform="matrix(0.35261979,0,0,0.35261979,-166.8705,-11.595562)" />
    <line
       class="cls-5"
       x1="-94.872597"
       y1="8.5742903"
       x2="-117.44731"
       y2="11.120204"
       id="line3292"
       style="fill:none;stroke:#000000;stroke-width:0.35262;stroke-linejoin:round;stroke-dasharray:1.05786, 0.70524" />
    <polygon
       class="cls-3"
       points="163.88,83.27 140.16,64.42 203.83,57.34 "
       id="polygon3284-8"
       style="fill:#dcddde"
       transform="matrix(0.35261979,0,0,0.35261979,5.7943161,-13.247857)" />
    <polygon
       class="cls-4"
       points="163.88,83.27 187.61,24.67 204.18,57.2 "
       id="polygon3286-5"
       style="fill:none;stroke:#000000;stroke-linejoin:round"
       transform="matrix(0.35261979,0,0,0.35261979,5.7943161,-13.247857)" />
    <polyline
       class="cls-17"
       points="187.61 24.67 140.16 64.42 202.71 57.26"
       id="polyline3288-0"
       style="fill:none"
       transform="matrix(0.35261979,0,0,0.35261979,5.7943161,-13.247857)" />
    <polyline
       class="cls-4"
       points="187.61 24.67 140.16 64.42 163.88 83.27"
       id="polyline3290-6"
       style="fill:none;stroke:#000000;stroke-linejoin:round"
       transform="matrix(0.35261979,0,0,0.35261979,5.7943161,-13.247857)" />
    <line
       class="cls-5"
       x1="77.792221"
       y1="6.9219952"
       x2="55.217506"
       y2="9.4679089"
       id="line3292-3"
       style="fill:none;stroke:#000000;stroke-width:0.35262;stroke-linejoin:round;stroke-dasharray:1.05786, 0.70524" />
  </g>
</svg>
