<?xml version="1.0" encoding="UTF-8" standalone="no"?>
<!-- Created with Inkscape (http://www.inkscape.org/) -->

<svg
   width="25.924587mm"
   height="23.63254mm"
   viewBox="0 0 25.924587 23.632539"
   version="1.1"
   id="svg3488"
   sodipodi:docname="pq5.svg"
   inkscape:version="1.1.1 (3bf5ae0d25, 2021-09-20)"
   xmlns:inkscape="http://www.inkscape.org/namespaces/inkscape"
   xmlns:sodipodi="http://sodipodi.sourceforge.net/DTD/sodipodi-0.dtd"
   xmlns="http://www.w3.org/2000/svg"
   xmlns:svg="http://www.w3.org/2000/svg">
  <sodipodi:namedview
     id="namedview3490"
     pagecolor="#ffffff"
     bordercolor="#666666"
     borderopacity="1.0"
     inkscape:pageshadow="2"
     inkscape:pageopacity="0.0"
     inkscape:pagecheckerboard="0"
     inkscape:document-units="mm"
     showgrid="false"
     inkscape:zoom="0.64052329"
     inkscape:cx="-247.45392"
     inkscape:cy="419.18851"
     inkscape:window-width="1723"
     inkscape:window-height="999"
     inkscape:window-x="131"
     inkscape:window-y="285"
     inkscape:window-maximized="0"
     inkscape:current-layer="layer1" />
  <defs
     id="defs3485" />
  <g
     inkscape:label="Calque 1"
     inkscape:groupmode="layer"
     id="layer1"
     transform="translate(-149.19426,10.981449)">
    <polygon
       class="cls-3"
       points="163.88,83.27 140.16,64.42 203.83,57.34 "
       id="polygon3284"
       style="fill:#dcddde"
       transform="matrix(0.35261979,0,0,0.35261979,-166.8705,-11.595562)" />
    <polygon
       class="cls-4"
       points="163.88,83.27 187.61,24.67 204.18,57.2 "
       id="polygon3286"
       style="fill:none;stroke:#000000;stroke-linejoin:round"
       transform="matrix(0.35261979,0,0,0.35261979,-166.8705,-11.595562)" />
    <polyline
       class="cls-17"
       points="187.61 24.67 140.16 64.42 202.71 57.26"
       id="polyline3288"
       style="fill:none"
       transform="matrix(0.35261979,0,0,0.35261979,-166.8705,-11.595562)" />
    <polyline
       class="cls-4"
       points="187.61 24.67 140.16 64.42 163.88 83.27"
       id="polyline3290"
       style="fill:none;stroke:#000000;stroke-linejoin:round"
       transform="matrix(0.35261979,0,0,0.35261979,-166.8705,-11.595562)" />
    <line
       class="cls-5"
       x1="-94.872597"
       y1="8.5742903"
       x2="-117.44731"
       y2="11.120204"
       id="line3292"
       style="fill:none;stroke:#000000;stroke-width:0.35262;stroke-linejoin:round;stroke-dasharray:1.05786, 0.70524" />
    <polygon
       class="cls-3"
       points="369.5,68.09 411.91,53.87 441.54,68.09 400.1,83.27 "
       id="polygon3250"
       style="fill:#dcddde"
       transform="matrix(0.35261979,0,0,0.35261979,19.246812,-16.887862)" />
    <polygon
       class="cls-4"
       points="369.02,67.85 400.1,83.27 400.1,17.25 "
       id="polygon3252"
       style="fill:none;stroke:#000000;stroke-linejoin:round"
       transform="matrix(0.35261979,0,0,0.35261979,19.246812,-16.887862)" />
    <polygon
       class="cls-4"
       points="400.1,17.25 400.1,83.27 441.54,68.09 "
       id="polygon3254"
       style="fill:none;stroke:#000000;stroke-linejoin:round"
       transform="matrix(0.35261979,0,0,0.35261979,19.246812,-16.887862)" />
    <line
       class="cls-4"
       x1="160.32999"
       y1="-10.805171"
       x2="160.49219"
       y2="-10.300924"
       id="line3256"
       style="fill:none;stroke:#000000;stroke-width:0.35262;stroke-linejoin:round" />
    <line
       class="cls-14"
       x1="160.70024"
       y1="-9.6591558"
       x2="164.22644"
       y2="1.2826353"
       id="line3258"
       style="fill:none;stroke:#000000;stroke-width:0.35262;stroke-linejoin:round;stroke-dasharray:1.01555, 0.67703" />
    <polyline
       class="cls-4"
       points="411.44 52.44 411.91 53.87 413.26 54.52"
       id="polyline3260"
       style="fill:none;stroke:#000000;stroke-linejoin:round"
       transform="matrix(0.35261979,0,0,0.35261979,19.246812,-16.887862)" />
    <line
       class="cls-15"
       x1="165.56287"
       y1="2.6225917"
       x2="174.17032"
       y2="6.7482419"
       id="line3262"
       style="fill:none;stroke:#000000;stroke-width:0.35262;stroke-linejoin:round;stroke-dasharray:0.987335, 0.659399" />
    <line
       class="cls-4"
       x1="174.46652"
       y1="6.8928175"
       x2="174.94255"
       y2="7.1220183"
       id="line3264"
       style="fill:none;stroke:#000000;stroke-width:0.35262;stroke-linejoin:round" />
    <line
       class="cls-4"
       x1="149.37056"
       y1="7.0373902"
       x2="149.87482"
       y2="6.8716583"
       id="line3266"
       style="fill:none;stroke:#000000;stroke-width:0.35262;stroke-linejoin:round" />
    <line
       class="cls-16"
       x1="150.5448"
       y1="6.6530361"
       x2="163.6552"
       y2="2.3828101"
       id="line3268"
       style="fill:none;stroke:#000000;stroke-width:0.35262;stroke-linejoin:round;stroke-dasharray:1.06139, 0.708766" />
    <line
       class="cls-4"
       x1="163.99019"
       y1="2.2734973"
       x2="164.49443"
       y2="2.1077657"
       id="line3270"
       style="fill:none;stroke:#000000;stroke-width:0.35262;stroke-linejoin:round" />
  </g>
</svg>
