<?xml version="1.0" encoding="UTF-8" standalone="no"?>
<!-- Created with Inkscape (http://www.inkscape.org/) -->

<svg
   width="19.969286mm"
   height="28.075588mm"
   viewBox="0 0 19.969286 28.075587"
   version="1.1"
   id="svg3488"
   sodipodi:docname="pq6.svg"
   inkscape:version="1.1.1 (3bf5ae0d25, 2021-09-20)"
   xmlns:inkscape="http://www.inkscape.org/namespaces/inkscape"
   xmlns:sodipodi="http://sodipodi.sourceforge.net/DTD/sodipodi-0.dtd"
   xmlns="http://www.w3.org/2000/svg"
   xmlns:svg="http://www.w3.org/2000/svg">
  <sodipodi:namedview
     id="namedview3490"
     pagecolor="#ffffff"
     bordercolor="#666666"
     borderopacity="1.0"
     inkscape:pageshadow="2"
     inkscape:pageopacity="0.0"
     inkscape:pagecheckerboard="0"
     inkscape:document-units="mm"
     showgrid="false"
     inkscape:zoom="0.64052329"
     inkscape:cx="38.249975"
     inkscape:cy="52.300987"
     inkscape:window-width="1723"
     inkscape:window-height="999"
     inkscape:window-x="131"
     inkscape:window-y="285"
     inkscape:window-maximized="0"
     inkscape:current-layer="layer1" />
  <defs
     id="defs3485" />
  <g
     inkscape:label="Calque 1"
     inkscape:groupmode="layer"
     id="layer1"
     transform="translate(-73.737434,-85.89105)">
    <polygon
       class="cls-3"
       points="203.83,57.34 163.88,83.27 140.16,64.42 "
       id="polygon3284"
       style="fill:#dcddde"
       transform="matrix(0.35261979,0,0,0.35261979,-166.8705,-11.595562)" />
    <polygon
       class="cls-4"
       points="204.18,57.2 163.88,83.27 187.61,24.67 "
       id="polygon3286"
       style="fill:none;stroke:#000000;stroke-linejoin:round"
       transform="matrix(0.35261979,0,0,0.35261979,-166.8705,-11.595562)" />
    <polyline
       class="cls-17"
       points="187.61 24.67 140.16 64.42 202.71 57.26"
       id="polyline3288"
       style="fill:none"
       transform="matrix(0.35261979,0,0,0.35261979,-166.8705,-11.595562)" />
    <polyline
       class="cls-4"
       points="187.61 24.67 140.16 64.42 163.88 83.27"
       id="polyline3290"
       style="fill:none;stroke:#000000;stroke-linejoin:round"
       transform="matrix(0.35261979,0,0,0.35261979,-166.8705,-11.595562)" />
    <line
       class="cls-5"
       x1="-94.872597"
       y1="8.5742903"
       x2="-117.44731"
       y2="11.120204"
       id="line3292"
       style="fill:none;stroke:#000000;stroke-width:0.35262;stroke-linejoin:round;stroke-dasharray:1.05786, 0.70524" />
    <polygon
       class="cls-3"
       points="35.06,169 48.88,183.72 76.51,183.72 90.32,169 76.51,154.27 48.88,154.27 "
       id="polygon3230"
       style="fill:#dcddde"
       transform="matrix(0.35261979,0,0,0.35261979,61.616383,49.137489)" />
    <polygon
       class="cls-13"
       points="35.06,119.46 48.88,134.18 76.51,134.18 90.32,119.46 76.51,104.73 48.88,104.73 "
       id="polygon3232"
       style="fill:none;stroke:#000000;stroke-miterlimit:10"
       transform="matrix(0.35261979,0,0,0.35261979,61.616383,49.137489)" />
    <polyline
       class="cls-13"
       points="35.06 168.63 48.88 183.35 76.51 183.35 90.32 168.63"
       id="polyline3234"
       style="fill:none;stroke:#000000;stroke-miterlimit:10"
       transform="matrix(0.35261979,0,0,0.35261979,61.616383,49.137489)" />
    <polyline
       class="cls-5"
       points="90.32 169 76.51 154.27 48.88 154.27 35.06 169"
       id="polyline3236"
       style="fill:none;stroke:#000000;stroke-linejoin:round;stroke-dasharray:3, 2"
       transform="matrix(0.35261979,0,0,0.35261979,61.616383,49.137489)" />
    <line
       class="cls-13"
       x1="73.979233"
       y1="91.261452"
       x2="73.979233"
       y2="108.59977"
       id="line3238"
       style="fill:none;stroke:#000000;stroke-width:0.35262;stroke-miterlimit:10" />
    <line
       class="cls-13"
       x1="93.465004"
       y1="91.261452"
       x2="93.465004"
       y2="108.59977"
       id="line3240"
       style="fill:none;stroke:#000000;stroke-width:0.35262;stroke-miterlimit:10" />
    <line
       class="cls-13"
       x1="88.595322"
       y1="96.452011"
       x2="88.595322"
       y2="113.79385"
       id="line3242"
       style="fill:none;stroke:#000000;stroke-width:0.35262;stroke-miterlimit:10" />
    <line
       class="cls-13"
       x1="78.848915"
       y1="96.452011"
       x2="78.848915"
       y2="113.79385"
       id="line3244"
       style="fill:none;stroke:#000000;stroke-width:0.35262;stroke-miterlimit:10" />
    <line
       class="cls-5"
       x1="78.848915"
       y1="86.06736"
       x2="78.848915"
       y2="103.53615"
       id="line3246"
       style="fill:none;stroke:#000000;stroke-width:0.35262;stroke-linejoin:round;stroke-dasharray:1.05786, 0.70524" />
    <line
       class="cls-5"
       x1="88.595322"
       y1="103.53615"
       x2="88.595322"
       y2="86.06736"
       id="line3248"
       style="fill:none;stroke:#000000;stroke-width:0.35262;stroke-linejoin:round;stroke-dasharray:1.05786, 0.70524" />
  </g>
</svg>
