<?xml version="1.0" encoding="UTF-8" standalone="no"?>
<!-- Created with Inkscape (http://www.inkscape.org/) -->

<svg
   width="533.96509"
   height="593.03632"
   id="svg2"
   sodipodi:version="0.32"
   inkscape:version="1.1.1 (3bf5ae0d25, 2021-09-20)"
   sodipodi:modified="true"
   version="1.0"
   sodipodi:docname="tp3.svg"
   xmlns:inkscape="http://www.inkscape.org/namespaces/inkscape"
   xmlns:sodipodi="http://sodipodi.sourceforge.net/DTD/sodipodi-0.dtd"
   xmlns="http://www.w3.org/2000/svg"
   xmlns:svg="http://www.w3.org/2000/svg"
   xmlns:rdf="http://www.w3.org/1999/02/22-rdf-syntax-ns#"
   xmlns:cc="http://creativecommons.org/ns#"
   xmlns:dc="http://purl.org/dc/elements/1.1/">
  <defs
     id="defs4" />
  <sodipodi:namedview
     id="base"
     pagecolor="#ffffff"
     bordercolor="#666666"
     borderopacity="1.0"
     gridtolerance="10000"
     guidetolerance="10"
     objecttolerance="10"
     inkscape:pageopacity="0.0"
     inkscape:pageshadow="2"
     inkscape:zoom="0.7"
     inkscape:cx="248.57143"
     inkscape:cy="487.14286"
     inkscape:document-units="px"
     inkscape:current-layer="g17794"
     width="540px"
     height="600px"
     inkscape:window-width="1920"
     inkscape:window-height="1046"
     inkscape:window-x="-11"
     inkscape:window-y="-11"
     inkscape:pagecheckerboard="0"
     showgrid="false"
     inkscape:window-maximized="1"
     showguides="true"
     inkscape:guide-bbox="true">
    <sodipodi:guide
       position="634.7337,637.32203"
       orientation="0,-1"
       id="guide1005" />
  </sodipodi:namedview>
  <metadata
     id="metadata7">
    <rdf:RDF>
      <cc:Work
         rdf:about="">
        <dc:format>image/svg+xml</dc:format>
        <dc:type
           rdf:resource="http://purl.org/dc/dcmitype/StillImage" />
      </cc:Work>
    </rdf:RDF>
  </metadata>
  <g
     inkscape:label="Layer 1"
     inkscape:groupmode="layer"
     id="layer1"
     transform="translate(-510.96065,-104.82791)">
    <g
       id="g17794"
       transform="translate(247.14286,-21.428571)">
      <path
         id="path12935"
         d="M 267.14286,239.50504 V 416.6479 L 111.42857,710.93361 139.28571,505.21932 Z"
         style="fill:none;fill-opacity:1;fill-rule:evenodd;stroke:none;stroke-width:5;stroke-linecap:butt;stroke-linejoin:miter;stroke-miterlimit:4;stroke-dasharray:none;stroke-opacity:1" />
      <path
         id="path12933"
         d="m 422.85718,299.1479 372.85714,150 L 604.28575,717.71933 265.71432,606.29076 Z"
         style="fill:none;fill-opacity:1;fill-rule:evenodd;stroke:#000000;stroke-width:4;stroke-linecap:butt;stroke-linejoin:miter;stroke-miterlimit:4;stroke-dasharray:none;stroke-opacity:1" />
      <g
         transform="translate(-399.28571)"
         id="g15848"
         style="fill:none;stroke-width:5;stroke-miterlimit:4;stroke-dasharray:none">
        <path
           style="fill:none;fill-opacity:1;fill-rule:evenodd;stroke:none;stroke-width:5;stroke-linecap:butt;stroke-linejoin:miter;stroke-miterlimit:4;stroke-dasharray:none;stroke-opacity:1"
           d="m 603.57143,533.07647 213.21427,78.92857 4.2857,-2.14286 -3.2143,-2.5 L 605,527.71932 Z M 817.5,607.71932 885,502.00504 l 4.6429,2.14286 -67.5,107.14285 27.5,210.71429 -3.2143,5.71429 -2.8572,-3.21429 -26.7857,-213.92857 z"
           id="path13906" />
        <path
           style="fill:none;fill-opacity:1;fill-rule:evenodd;stroke:none;stroke-width:5;stroke-linecap:butt;stroke-linejoin:miter;stroke-miterlimit:4;stroke-dasharray:none;stroke-opacity:1"
           d="m 816.22768,607.6412 2.83482,-0.60268 2.67857,2.17634 -1.3058,2.83482 -3.3817,-0.0223 -0.3683,-0.40179 z"
           id="path14877" />
      </g>
      <path
         sodipodi:nodetypes="cccsscc"
         id="path10020"
         d="M 635.38595,559.91282 446.92937,824.25711 c -7.2232,-1.54027 -3.03199,3.06568 -4.33462,4.71342 0,0 3.02091,3.08254 5.87228,2.30349 3.49221,-0.95414 3.66072,-2.81908 6.63733,-7.19099 7.4802,-10.98657 186.59505,-261.39229 186.59505,-261.39229 z"
         style="fill:none;fill-opacity:1;fill-rule:evenodd;stroke:none;stroke-width:5;stroke-linecap:butt;stroke-linejoin:miter;stroke-miterlimit:4;stroke-dasharray:none;stroke-opacity:1" />
      <path
         id="path7107"
         d="M 270.21581,237.16908 268.1955,412.93562 637.91133,559.40774 574.27172,367.47876 Z"
         style="fill:none;fill-opacity:1;fill-rule:evenodd;stroke:none;stroke-width:4;stroke-linecap:butt;stroke-linejoin:miter;stroke-miterlimit:4;stroke-dasharray:none;stroke-opacity:1" />
      <path
         sodipodi:nodetypes="ccccc"
         id="path15852"
         d="m 570.89282,366.29076 -83.03564,131.42856 5.3571,1.42858 81.42861,-130 z"
         style="fill:none;fill-opacity:1;fill-rule:evenodd;stroke:none;stroke-width:4;stroke-linecap:butt;stroke-linejoin:miter;stroke-miterlimit:4;stroke-dasharray:none;stroke-opacity:1" />
      <path
         id="path4194"
         d="m 576.54457,366.4686 66.9226,192.93914 -6.06091,0.25254 -65.65992,-191.67645 c 0,0 1.26269,-4.29315 4.79823,-1.51523 z"
         style="fill:none;fill-opacity:1;fill-rule:evenodd;stroke:none;stroke-width:4;stroke-linecap:butt;stroke-linejoin:miter;stroke-miterlimit:4;stroke-dasharray:none;stroke-opacity:1" />
      <path
         id="path11962"
         d="m 141.42136,506.87981 128.03683,-263.14474 -3.03046,-7.32361 -129.8046,270.21581 z"
         style="fill:none;fill-opacity:1;fill-rule:evenodd;stroke:none;stroke-width:5;stroke-linecap:butt;stroke-linejoin:miter;stroke-miterlimit:4;stroke-dasharray:none;stroke-opacity:1" />
      <path
         sodipodi:nodetypes="csscsc"
         id="path6136"
         d="m 264.0625,409.1479 c 0.96707,1.511 2.17281,2.30596 3.61607,2.38839 3.27552,0.18708 0.89286,-4.88839 0.89286,-12.38839 0,-7.5 2.78317,-165.75761 2.78317,-165.75761 0,0 -5.1046,-3.34954 -5.1046,6.47189 0,9.82143 -2.00893,169.46429 -2.1875,169.28572 z"
         style="fill:none;fill-opacity:1;fill-rule:evenodd;stroke:none;stroke-width:4;stroke-linecap:butt;stroke-linejoin:miter;stroke-miterlimit:4;stroke-dasharray:none;stroke-opacity:1" />
      <path
         sodipodi:nodetypes="ccccc"
         id="path9049"
         d="M 109.98036,715.16064 444.375,823.96932 c 2.14917,2.2798 2.37236,4.35687 0,6.16072 L 107.76786,720.84432 Z"
         style="fill:none;fill-opacity:1;fill-rule:evenodd;stroke:none;stroke-width:5;stroke-linecap:butt;stroke-linejoin:miter;stroke-miterlimit:4;stroke-dasharray:none;stroke-opacity:1" />
      <path
         sodipodi:nodetypes="ccccc"
         id="path8078"
         d="M 264.40743,408.64247 106.06602,716.739 c -1.06251,2.6259 0.13873,4.35755 3.78807,4.29315 L 270.06787,413.78121 Z"
         style="fill:none;fill-opacity:1;fill-rule:evenodd;stroke:none;stroke-width:5;stroke-linecap:butt;stroke-linejoin:miter;stroke-miterlimit:4;stroke-dasharray:none;stroke-opacity:1" />
      <path
         sodipodi:nodetypes="ccscc"
         id="path3223"
         d="m 640.98214,564.41575 -373.125,-147.94643 c 0,0 -3.61607,-9.33036 4.10715,-6.42857 6.87196,2.58195 370.35714,147.85715 370.35714,147.85715 0,0 3.39286,3.75 -1.33929,6.51785 z"
         style="fill:none;fill-opacity:1;fill-rule:evenodd;stroke:none;stroke-width:4;stroke-linecap:butt;stroke-linejoin:miter;stroke-miterlimit:4;stroke-dasharray:none;stroke-opacity:1" />
      <path
         id="path5165"
         d="M 267.18535,411.16785 270,232.98718 c 0,0 2.85714,0.17857 2.85714,4.28571 0,4.10715 -2.23214,173.48215 -2.23214,173.48215 0,0 -1.60714,1.33928 -3.43965,0.41281 z"
         style="fill:none;fill-opacity:1;fill-rule:evenodd;stroke:none;stroke-width:4;stroke-linecap:butt;stroke-linejoin:miter;stroke-miterlimit:4;stroke-dasharray:none;stroke-opacity:1" />
      <path
         sodipodi:nodetypes="ccccc"
         id="path2251"
         d="m 572.5,368.96932 c 1.38217,-0.14124 2.36151,-1.71244 2.32143,-3.75 l -303.75,-131.96428 c -0.14037,1.58582 -0.13832,2.95692 1.42857,6.25 z"
         style="fill:none;fill-opacity:1;fill-rule:evenodd;stroke:none;stroke-width:4;stroke-linecap:butt;stroke-linejoin:miter;stroke-miterlimit:4;stroke-dasharray:none;stroke-opacity:1" />
      <path
         style="fill:none;stroke:#000000;stroke-width:4;stroke-linecap:butt;stroke-linejoin:miter;stroke-miterlimit:4;stroke-dasharray:none;stroke-opacity:1"
         d="M 265.65219,603.14069 296.58811,390.94552 422.81469,127.48509 422.85718,299.1479 793.58316,447.38779 730.31472,257.12795 422.81469,127.48509"
         id="path3368"
         sodipodi:nodetypes="ccccccc" />
      <path
         style="fill:none;stroke:#000000;stroke-width:4;stroke-linecap:butt;stroke-linejoin:miter;stroke-miterlimit:4;stroke-dasharray:8,4;stroke-dashoffset:0;stroke-opacity:1"
         d="M 729.78575,259.1479 578.00005,501.29075 296.56422,396.87981 576.29242,502.04968 602.28575,717.71933"
         id="path3370"
         sodipodi:nodetypes="ccccc" />
    </g>
  </g>
</svg>
